<svg xmlns="http://www.w3.org/2000/svg" viewBox="0 0 246.7 233.56"><defs><style>.prefix__cls-1{fill:#d3bc98}.prefix__cls-9{fill:#403f41}.prefix__cls-4{fill:#e4d0b2}.prefix__cls-5{fill:#5a3713}.prefix__cls-6{fill:#e9e0cb}.prefix__cls-7{fill:#c0a784}</style></defs><g id="prefix__Calque_2" data-name="Calque 2"><g id="prefix__Calque_1-2" data-name="Calque 1"><path class="prefix__cls-1" d="M242.94 97.23a110.21 110.21 0 00-71.82-85.57q-4.74-1.68-9.52-2.9a89.78 89.78 0 00-8.43-3.48A91.23 91.23 0 0044.72 43.83a91.52 91.52 0 00-25.25 56.64 38.39 38.39 0 0114.25 15.59 38.53 38.53 0 013.91 13.54 38.68 38.68 0 0124.89 54 38.69 38.69 0 0116 34.29 92.35 92.35 0 0014.48 3.7 91.26 91.26 0 00120.11-27.83 91.24 91.24 0 0029.81-96.53z"/><path d="M236.49 103.55A110.2 110.2 0 00164.67 18c-3.15-1.12-7.22.42-10.41-.4-2.72-1.28-5.68-2-8.57-3-41.46-14.8-76.28 2.62-98.24 38.81-8.73 9.07-24.9 16.83-29.39 29.47a91.31 91.31 0 00-5 23.91 38.49 38.49 0 0114.24 15.59 38.58 38.58 0 013.91 13.55 38.66 38.66 0 0124.89 54A38.56 38.56 0 0168.12 204c3.24 6.48 7.48 10.88 7 17.61 4.79 1.65 6.63 5.44 11.47 6.27 4.52 2.54 9.36-1.69 14.41.11 39.83 14.14 79.44.43 102.24-32.88 12.52-10.19 25.95-18.9 31.75-35.22a90.74 90.74 0 001.5-56.34z" opacity=".15" fill="#403f41"/><path class="prefix__cls-1" d="M237 99.35a110.21 110.21 0 00-71.8-85.57c-3.16-1.12-7.23.42-10.41-.4-2.72-1.28-5.68-2-8.58-3.05C104.75-4.4 69.94 13 48 49.21 39.24 58.27 23.08 66 18.59 78.68a90.93 90.93 0 00-5 23.91 38.59 38.59 0 0114.21 15.59 38.56 38.56 0 013.9 13.55 38.67 38.67 0 0124.9 54 38.65 38.65 0 0112.05 14.13c3.24 6.48 7.48 10.88 7 17.61 4.79 1.65 6.64 5.44 11.48 6.27 4.51 2.54 9.36-1.69 14.41.11 39.83 14.14 79.43.43 102.23-32.88 12.52-10.19 26-18.9 31.76-35.22a90.82 90.82 0 001.47-56.4z"/><path d="M242.94 97.23a110.21 110.21 0 00-71.82-85.57c-3.16-1.12-7.22.42-10.41-.4C158 10 155 9.23 152.14 8.2 110.68-6.52 75.86 10.89 53.9 47.09 45.17 56.15 29 63.92 24.51 76.55a91.49 91.49 0 00-5 23.92 38.39 38.39 0 0114.25 15.59 38.53 38.53 0 013.91 13.54 38.68 38.68 0 0124.89 54 38.4 38.4 0 0112 14.13c3.24 6.47 7.48 10.87 7 17.61 4.79 1.65 6.63 5.43 11.47 6.26 4.51 2.55 9.36-1.68 14.41.11 39.83 14.15 79.43.43 102.23-32.87 12.53-10.19 26-18.9 31.76-35.23a90.79 90.79 0 001.51-56.38z" fill="#ddc9a5"/><ellipse class="prefix__cls-4" cx="168.26" cy="61.91" rx="20.76" ry="15.86"/><path class="prefix__cls-4" d="M174.32 69.28c0 8.14-9.23 14.74-20.62 14.74s-20.62-6.6-20.62-14.74 9.23-14.74 20.62-14.74 20.62 6.6 20.62 14.74z"/><path class="prefix__cls-4" d="M179.2 53.87a15.85 15.85 0 11-15.85-15.41 15.63 15.63 0 0115.85 15.41zM197.05 188.31c-6.47 5.9-18 3.82-25.7-4.65s-8.74-20.13-2.27-26 18-3.82 25.71 4.66 8.73 20.09 2.26 25.99z"/><path class="prefix__cls-4" d="M181.7 182.42c-6 5.48-17.11 3.1-24.78-5.31s-9-19.69-3-25.17 17.11-3.11 24.79 5.3 9.01 19.69 2.99 25.18z"/><path class="prefix__cls-4" d="M196.38 175.64a15.86 15.86 0 11.71-22.1 15.64 15.64 0 01-.71 22.1zM126 107.44c0 7.74-8 14-17.81 14s-17.8-6.28-17.8-14 8-14 17.8-14 17.81 6.25 17.81 14zM96.09 56c0 7.75-8 14-17.8 14s-17.81-6.27-17.81-14 8-14 17.81-14 17.8 6.24 17.8 14zM244.16 112.16c0 7.75-8 14-17.81 14s-17.8-6.28-17.8-14 8-14 17.8-14 17.81 6.26 17.81 14z"/><path class="prefix__cls-4" d="M117.08 121.29c0 7.74-8 14-17.8 14s-17.81-6.28-17.81-14 8-14 17.81-14 17.8 6.25 17.8 14z"/><path class="prefix__cls-5" d="M119.27 31.77c2.79 4.38 5.35 10.71.49 12.5s-7.57-.52-12.65 1.88S99.43 36 103.18 35.4s13.38-7.88 16.09-3.63z"/><path class="prefix__cls-6" d="M149.76 158.41c-2.58 4.5-7 9.71-10.85 6.23s-3-6.95-7.52-10.34 5.41-11.49 7.7-8.46 13.18 8.16 10.67 12.57z"/><path class="prefix__cls-5" d="M181.76 91.92c1.5 9.81-1.14 9.16-10.26 13s-13.31 3.78-15.4-2.26-6.1-22.58 4.26-21.93 20.75 7.01 21.4 11.19z"/><path class="prefix__cls-6" d="M71 101c1.51 9.81-1.14 9.16-10.25 13s-13.32 3.77-15.4-2.27-6.08-22.57 4.26-21.91S70.32 96.77 71 101z"/><path class="prefix__cls-5" d="M82.73 140.59c-7-2-11.22 1.76-9.16 6.89s7.69 5.17 12.39 7.82 8.23.64 10.71-6.36-13.94-8.35-13.94-8.35zM168.2 197.56c1.73 5.61 6.12 14.48 12.5 8.44s18.87-15.42 10.19-20.76-19.47-6.7-20-3.19-4.23 10.55-2.69 15.51z"/><path class="prefix__cls-6" d="M142.91 225.47c5.88-.07 15.63-1.77 11.64-9.6s-9.44-22.46-17-15.65-11.96 16.78-8.75 18.27 8.93 7.04 14.11 6.98z"/><path class="prefix__cls-5" d="M223.19 134c-5.94 4.81-4.26 16-.58 15.51s7.13 1.75 10.24-5-9.66-10.51-9.66-10.51z"/><path class="prefix__cls-6" d="M104.06 96.38c-5.93 4.8-4.26 16-.57 15.51s7.13 1.75 10.24-5-9.67-10.51-9.67-10.51zM208.37 75.17c-5.93 4.81-4.25 16-.57 15.51s7.13 1.75 10.24-5-9.67-10.51-9.67-10.51z"/><path class="prefix__cls-5" d="M81.6 191.38c-5.49 1.58-3.92 7.07 3.77 11.21s13.63-.81 17.77-3.59.81-5.12-5.81-8.3-15.73.68-15.73.68z"/><path class="prefix__cls-6" d="M185.58 130.64c-5.54-1.42-7 4.12-2.42 11.58s12.13 6.17 17.13 5.93 3.29-4-.82-10.1-13.89-7.41-13.89-7.41zM164 36.21c-5.49-1.61-7.1 3.87-2.82 11.48s11.91 6.59 16.92 6.52 3.42-3.89-.48-10.12S164 36.21 164 36.21z"/><path class="prefix__cls-7" d="M235.73 164.63a52.22 52.22 0 00-9.95-4.62 47.73 47.73 0 00-10.64-2.38 36.79 36.79 0 00-10.79.37 34.27 34.27 0 00-10.11 3.63l-.22.12h-.27a95.57 95.57 0 00-14.16-.41 67.42 67.42 0 00-14 2 38.29 38.29 0 00-6.58 2.31 26.65 26.65 0 00-5.88 3.58 18.71 18.71 0 00-4.39 5.16l-.81 1.52-.84 1.65-.94 1.58c-.33.52-.69 1-1 1.52A55.74 55.74 0 01135 191c-3.73 3-7.63 5.81-11.44 8.67a78.28 78.28 0 00-10.71 9.33 23.58 23.58 0 00-4 5.83 15.42 15.42 0 00-1.45 6.9 15 15 0 011.08-7.06 24 24 0 013.79-6.14 67.88 67.88 0 0110.55-9.79c3.74-3 7.55-5.85 11.14-9a56.64 56.64 0 009.7-10.19c.32-.48.66-.95 1-1.45l.88-1.5.77-1.55.85-1.65a20.61 20.61 0 014.79-5.72 32.43 32.43 0 0113.21-6.29 69.93 69.93 0 0114.37-1.91 94.29 94.29 0 0114.44.58l-.49.09a35.55 35.55 0 0110.65-3.5 38.23 38.23 0 0111.15-.08 49.47 49.47 0 0120.46 8z"/><path class="prefix__cls-7" d="M144.42 180.11c-1.33-2.49-2.78-4.9-4.3-7.27a78.56 78.56 0 00-4.94-6.8 44.88 44.88 0 00-5.8-6 18.24 18.24 0 00-7.07-3.85l-.44-.1-.13-.49a60.08 60.08 0 00-11.15-22.81 31.59 31.59 0 00-9.68-7.94 25.72 25.72 0 00-12.11-2.8 170.21 170.21 0 00-25.8 2.16 225.82 225.82 0 00-25.4 5.39 174.19 174.19 0 0125.18-6.68c4.27-.83 8.59-1.44 12.92-1.94s8.7-.72 13.07-.8a27.37 27.37 0 0113 2.94 32.54 32.54 0 0110.29 8.45 51.27 51.27 0 016.94 11.27 63.22 63.22 0 014.24 12.47l-.57-.58a19 19 0 017.53 4.36 43.07 43.07 0 015.72 6.37 74.6 74.6 0 014.63 7.11 77.59 77.59 0 013.87 7.54zM140.19 8.4a136.91 136.91 0 016.88 13.83c2.08 4.73 3.88 9.56 5.51 14.46.86 2.44 1.56 4.92 2.32 7.39s1.37 5 1.92 7.52c1.21 5 2.06 10.13 2.82 15.25l-.76-.81A93.88 93.88 0 01183.56 75a46.22 46.22 0 0110.71 7.82 25.46 25.46 0 014.07 5.35 27.6 27.6 0 011.43 3c.41 1 .86 2 1.31 2.93q1.41 2.9 3 5.7a116.3 116.3 0 003.4 5.5c2.34 3.63 4.92 7.19 6.76 11.22a21.53 21.53 0 011.66 13 43.91 43.91 0 01-4.41 12.27 46.88 46.88 0 003.79-12.36 21.65 21.65 0 00-.09-6.38 22.63 22.63 0 00-1.95-6c-1.86-3.84-4.5-7.3-6.95-10.89a85.1 85.1 0 01-6.76-11.25c-.47-1-.95-2-1.37-3a26.67 26.67 0 00-1.35-2.91 24.11 24.11 0 00-3.83-5 44.07 44.07 0 00-10.33-7.41 82.39 82.39 0 00-11.79-5.13 103.83 103.83 0 00-12.36-3.61l-.66-.15-.09-.67C157.05 62 156.26 57 155.11 52s-2.39-10-3.86-14.87-3.16-9.75-5-14.55-3.81-9.58-6.06-14.18zM28.91 68.93c2.95-.7 5.93-1.26 8.92-1.77s6-1 9-1.36A175.41 175.41 0 0165 64.44a105.73 105.73 0 0118.28 1.1c6 1 12.15 2.6 17.4 6.17h-1c3.73-2 7.53-3.92 11.36-5.76s7.73-3.54 11.67-5.13a98.12 98.12 0 0112.1-4 38.42 38.42 0 016.3-1.08 14.37 14.37 0 013.21.09 5.37 5.37 0 012.89 1.17 5.28 5.28 0 00-2.92-1 16.4 16.4 0 00-3.13.11 39.1 39.1 0 00-6.16 1.41 118.29 118.29 0 00-11.78 4.54c-3.87 1.68-7.66 3.53-11.44 5.41s-7.51 3.87-11.19 5.89l-.53.28-.49-.33a30.76 30.76 0 00-7.94-3.75A59.33 59.33 0 0083 67.47a115.59 115.59 0 00-18-1.32c-6 0-12.06.26-18.09.74s-12 1.16-18 2.04z"/><g opacity=".15"><path class="prefix__cls-9" d="M21.91 149.21a1.86 1.86 0 00-3.53-1.16 1.89 1.89 0 00-.08.91 1.85 1.85 0 00.62 3.13 1.78 1.78 0 00.91.08 1.86 1.86 0 102.08-3zM8.09 136.31a1.82 1.82 0 00-.92-.08 1.91 1.91 0 00-.75-.52 1.93 1.93 0 00-.92-.07 1.81 1.81 0 00-.75-.52 1.87 1.87 0 00-2.35 1.06 1.85 1.85 0 00-1.24 3.49A1.86 1.86 0 002.32 142a1.77 1.77 0 00.91.07 1.81 1.81 0 00.75.52 1.86 1.86 0 002.35-1.06 1.84 1.84 0 002.29-1.15 1.77 1.77 0 00.08-.91 1.84 1.84 0 00-.61-3.13zM30.38 163.49a1.86 1.86 0 101.13 2.37 1.86 1.86 0 00-1.13-2.37z"/></g><path class="prefix__cls-1" d="M21.82 149.91a1.86 1.86 0 11-1.13-2.37 1.85 1.85 0 011.13 2.37z"/><path class="prefix__cls-1" d="M22.42 148.24a1.86 1.86 0 11-3.51-1.24 1.86 1.86 0 013.51 1.24z"/><path class="prefix__cls-1" d="M23.49 150.51a1.86 1.86 0 11-1.13-2.38 1.87 1.87 0 011.13 2.38zM9.15 139.3A1.86 1.86 0 118 136.93a1.86 1.86 0 011.15 2.37z"/><path class="prefix__cls-1" d="M9.74 137.63a1.86 1.86 0 11-1.13-2.37 1.85 1.85 0 011.13 2.37z"/><path class="prefix__cls-1" d="M8.07 137a1.86 1.86 0 01-3.51-1.24A1.86 1.86 0 118.07 137z"/><path class="prefix__cls-1" d="M5.81 138.12a1.86 1.86 0 11-1.13-2.38 1.86 1.86 0 011.13 2.38z"/><path class="prefix__cls-1" d="M6.4 136.45a1.86 1.86 0 11-1.13-2.38 1.85 1.85 0 011.13 2.38z"/><path class="prefix__cls-1" d="M4.14 137.52a1.87 1.87 0 01-2.38 1.14A1.86 1.86 0 113 135.15a1.85 1.85 0 011.14 2.37z"/><path class="prefix__cls-1" d="M5.22 139.79a1.86 1.86 0 11-1.13-2.38 1.87 1.87 0 011.13 2.38z"/><path class="prefix__cls-1" d="M6.89 140.38A1.86 1.86 0 115.76 138a1.87 1.87 0 011.13 2.38zM32 164.81a1.86 1.86 0 11-1.13-2.37 1.86 1.86 0 011.13 2.37z"/><path class="prefix__cls-1" d="M30.37 164.22a1.86 1.86 0 11-1.14-2.38 1.86 1.86 0 011.14 2.38z"/><path class="prefix__cls-1" d="M30.66 163.39a1.86 1.86 0 11-1.13-2.39 1.86 1.86 0 011.13 2.39z"/><path class="prefix__cls-4" d="M63.78 84A5.36 5.36 0 0167 82.34a6.25 6.25 0 013.75.63 5.34 5.34 0 012.63 3 4.43 4.43 0 01-.38 3.78 28.45 28.45 0 00-2.33-2.09 10.11 10.11 0 00-1.81-1.15c-.63-.33-1.34-.67-2.18-1.05s-1.75-.81-2.9-1.46zM54.1 77a5.3 5.3 0 012.14-3 6.26 6.26 0 013.63-1.13 5.35 5.35 0 013.72 1.54A4.45 4.45 0 0165 77.9a30.37 30.37 0 00-3-.82 11 11 0 00-2.14-.21h-2.42c-.93 0-2.03.13-3.34.13zM75.24 80.3a5.31 5.31 0 013-2 6.3 6.3 0 013.8.19 5.34 5.34 0 013 2.72 4.47 4.47 0 01.08 3.75c-1.11-.77-1.81-1.42-2.56-1.81a11.68 11.68 0 00-1.93-.93c-.66-.25-1.41-.51-2.29-.79s-1.89-.63-3.1-1.13zM59.27 136.32a5.31 5.31 0 011.1-3.48 6.18 6.18 0 013.09-2.2 5.31 5.31 0 014 .28 4.47 4.47 0 012.4 2.89 29.53 29.53 0 00-3.13.17 11.38 11.38 0 00-2.1.47c-.67.22-1.41.48-2.28.81s-1.82.74-3.08 1.06zM82.59 137.1a5.33 5.33 0 012.68-2.48 6.32 6.32 0 013.78-.38 5.34 5.34 0 013.34 2.24 4.46 4.46 0 01.65 3.69c-1.22-.59-2-1.13-2.8-1.4a11.36 11.36 0 00-2.06-.62c-.69-.15-1.46-.29-2.38-.44s-1.93-.3-3.21-.61zM82.61 170.71a5.37 5.37 0 011.51-3.33 6.25 6.25 0 013.34-1.81 5.28 5.28 0 014 .77 4.44 4.44 0 012 3.15c-1.35-.08-2.28-.26-3.12-.21a11.73 11.73 0 00-2.14.22c-.69.13-1.46.3-2.36.53s-1.93.46-3.23.68zM99.28 165.63a5.33 5.33 0 013.58-.71 6.22 6.22 0 013.42 1.64 5.32 5.32 0 011.69 3.66 4.52 4.52 0 01-1.38 3.49 27.51 27.51 0 00-1.66-2.66 10.8 10.8 0 00-1.42-1.61c-.51-.49-1.1-1-1.81-1.61s-1.49-1.27-2.42-2.2zM90.18 177a5.34 5.34 0 011.58-3.29 6.25 6.25 0 013.37-1.71 5.38 5.38 0 013.93.85 4.48 4.48 0 012 3.2 30.53 30.53 0 00-3.12-.27 11.05 11.05 0 00-2.14.17c-.7.12-1.47.28-2.38.48s-1.94.42-3.24.57z"/></g></g></svg>