<svg id="Calque_1" data-name="Calque 1" xmlns="http://www.w3.org/2000/svg" xmlns:xlink="http://www.w3.org/1999/xlink" viewBox="0 0 580 600"><defs><style>.cls-1,.cls-5,.cls-6,.cls-8{fill:none;}.cls-2,.cls-20{fill:#fff;}.cls-3{fill:#c9def2;}.cls-4{fill:#aecbed;}.cls-5{stroke:#d57482;}.cls-5,.cls-6,.cls-8{stroke-miterlimit:10;}.cls-6{stroke:#aecbed;}.cls-11,.cls-17,.cls-7{fill:#403f41;}.cls-7,.cls-9{opacity:0.1;}.cls-8{stroke:#686868;stroke-width:2.66px;}.cls-10{fill:#cf943a;}.cls-11{opacity:0.15;}.cls-12{fill:#f6f2e7;}.cls-13{fill:#d7aeca;}.cls-14{fill:#a9dde2;}.cls-15{clip-path:url(#clip-path);}.cls-16{fill:#dfd7ce;}.cls-18{fill:#d6d6d6;}.cls-19{fill:#ededed;}.cls-20{opacity:0.2;}</style><clipPath id="clip-path"><rect class="cls-1" x="374.34" y="43.73" width="17.64" height="316.89" transform="translate(-41.24 115.16) rotate(-16.23)"/></clipPath></defs><title>help-center-2</title><path class="cls-2" d="M500,19.78,158.6,100.18,271.8,580.93l341.44-80.4a3.09,3.09,0,0,0,2.11-3.83L503.57,22A2.84,2.84,0,0,0,500,19.78ZM278.54,544.28a4.87,4.87,0,1,1,3.63-5.86A4.87,4.87,0,0,1,278.54,544.28Zm-9.42-19L266.06,512a4.8,4.8,0,1,1,9.34-2.2l3.14,13.26a4.87,4.87,0,0,1-3.62,5.86A4.82,4.82,0,0,1,269.12,525.28ZM254,439.91a4.88,4.88,0,1,1,3.62-5.86A4.88,4.88,0,0,1,254,439.91Zm-11.48-27.74-3.06-13.28a4.8,4.8,0,1,1,9.34-2.2L251.91,410a4.88,4.88,0,0,1-3.62,5.86A4.82,4.82,0,0,1,242.49,412.17Zm-10.37-65a4.87,4.87,0,1,1,3.63-5.86A4.87,4.87,0,0,1,232.12,347.13Zm-22-72.32a4.8,4.8,0,0,1,3.56-5.84,4.86,4.86,0,0,1,5.85,3.62l3.11,13.27a4.8,4.8,0,1,1-9.34,2.2Zm.13-20.46a4.87,4.87,0,1,1,3.62-5.86A4.88,4.88,0,0,1,210.28,254.35ZM183.51,161.7a4.82,4.82,0,0,1,3.56-5.84,4.87,4.87,0,0,1,5.86,3.63L196,172.75a4.8,4.8,0,1,1-9.34,2.2ZM185.7,150a4.88,4.88,0,1,1,3.63-5.86A4.86,4.86,0,0,1,185.7,150Z"/><polygon class="cls-3" points="515.88 74.23 171.88 155.23 171.81 154.93 515.81 73.93 515.88 74.23"/><rect class="cls-3" x="167.85" y="117.44" width="353.4" height="0.31" transform="translate(-17.78 82.1) rotate(-13.25)"/><polygon class="cls-4" points="522.97 104.36 178.97 185.36 178.91 185.06 522.9 104.05 522.97 104.36"/><polygon class="cls-3" points="522.26 101.34 178.27 182.34 178.19 182.04 522.19 101.04 522.26 101.34"/><rect class="cls-4" x="177.07" y="156.6" width="353.4" height="0.31" transform="translate(-26.51 85.26) rotate(-13.25)"/><polygon class="cls-3" points="523.68 107.37 179.69 188.37 179.61 188.07 523.61 107.07 523.68 107.37"/><polygon class="cls-3" points="524.39 110.38 180.39 191.38 180.32 191.08 524.32 110.08 524.39 110.38"/><polygon class="cls-3" points="525.1 113.39 181.1 194.39 181.03 194.09 525.03 113.09 525.1 113.39"/><polygon class="cls-4" points="528.64 128.45 184.65 209.45 184.58 209.15 528.57 128.15 528.64 128.45"/><rect class="cls-3" x="177.78" y="159.61" width="353.4" height="0.31" transform="translate(-27.18 85.5) rotate(-13.25)"/><rect class="cls-3" x="178.49" y="162.62" width="353.4" height="0.31" transform="translate(-27.85 85.74) rotate(-13.25)"/><polygon class="cls-3" points="527.93 125.44 183.94 206.44 183.87 206.14 527.86 125.14 527.93 125.44"/><polygon class="cls-4" points="531.48 140.5 187.49 221.5 187.42 221.2 531.41 140.2 531.48 140.5"/><rect class="cls-3" x="180.62" y="171.66" width="353.4" height="0.31" transform="translate(-29.87 86.47) rotate(-13.25)"/><polygon class="cls-3" points="530.06 134.48 186.07 215.48 186 215.18 529.99 134.18 530.06 134.48"/><rect class="cls-3" x="182.04" y="177.68" width="353.4" height="0.31" transform="translate(-31.21 86.96) rotate(-13.25)"/><rect class="cls-4" x="185.58" y="192.75" width="353.4" height="0.31" transform="translate(-34.57 88.17) rotate(-13.25)"/><rect class="cls-3" x="183.46" y="183.71" width="353.4" height="0.31" transform="translate(-32.55 87.44) rotate(-13.25)"/><rect class="cls-3" x="184.17" y="186.72" width="353.4" height="0.31" transform="translate(-33.23 87.69) rotate(-13.25)"/><polygon class="cls-3" points="533.61 149.54 189.62 230.54 189.54 230.24 533.54 149.24 533.61 149.54"/><polygon class="cls-4" points="537.15 164.6 193.16 245.6 193.09 245.3 537.08 164.3 537.15 164.6"/><rect class="cls-3" x="186.29" y="195.76" width="353.4" height="0.31" transform="translate(-35.24 88.41) rotate(-13.25)"/><polygon class="cls-3" points="535.74 158.57 191.74 239.58 191.67 239.27 535.67 158.27 535.74 158.57"/><polygon class="cls-3" points="536.45 161.59 192.45 242.59 192.38 242.29 536.38 161.29 536.45 161.59"/><rect class="cls-4" x="194.1" y="228.89" width="353.4" height="0.31" transform="translate(-42.63 91.08) rotate(-13.25)"/><rect class="cls-3" x="191.97" y="219.86" width="353.4" height="0.31" transform="translate(-40.61 90.36) rotate(-13.25)"/><rect class="cls-3" x="192.68" y="222.87" width="353.4" height="0.31" transform="translate(-41.28 90.6) rotate(-13.25)"/><polygon class="cls-3" points="542.12 185.69 198.13 266.69 198.06 266.38 542.05 185.38 542.12 185.69"/><polygon class="cls-4" points="551.34 224.84 207.35 305.84 207.28 305.54 551.27 224.54 551.34 224.84"/><rect class="cls-3" x="200.48" y="256" width="353.4" height="0.31" transform="translate(-48.67 93.27) rotate(-13.25)"/><rect class="cls-3" x="201.19" y="259.01" width="353.4" height="0.31" transform="translate(-49.34 93.51) rotate(-13.25)"/><polygon class="cls-3" points="550.63 221.83 206.64 302.83 206.57 302.53 550.56 221.53 550.63 221.83"/><rect class="cls-4" x="205.44" y="277.09" width="353.4" height="0.31" transform="translate(-53.37 94.97) rotate(-13.25)"/><polygon class="cls-3" points="552.05 227.86 208.06 308.86 207.99 308.56 551.98 227.56 552.05 227.86"/><polygon class="cls-3" points="552.76 230.87 208.76 311.87 208.69 311.57 552.69 230.57 552.76 230.87"/><polygon class="cls-3" points="553.47 233.88 209.47 314.88 209.4 314.58 553.4 233.58 553.47 233.88"/><polygon class="cls-4" points="557.01 248.94 213.02 329.94 212.95 329.64 556.94 248.64 557.01 248.94"/><rect class="cls-3" x="206.15" y="280.1" width="353.4" height="0.31" transform="translate(-54.04 95.21) rotate(-13.25)"/><rect class="cls-3" x="206.86" y="283.11" width="353.4" height="0.31" transform="translate(-54.71 95.45) rotate(-13.25)"/><polygon class="cls-3" points="556.3 245.93 212.31 326.93 212.24 326.63 556.24 245.63 556.3 245.93"/><rect class="cls-3" x="208.99" y="292.15" width="353.4" height="0.31" transform="translate(-56.73 96.18) rotate(-13.25)"/><polygon class="cls-3" points="558.43 254.97 214.44 335.97 214.37 335.67 558.36 254.66 558.43 254.97"/><rect class="cls-3" x="210.41" y="298.17" width="353.4" height="0.31" transform="translate(-58.07 96.67) rotate(-13.25)"/><rect class="cls-4" x="213.96" y="313.23" width="353.4" height="0.31" transform="translate(-61.43 97.88) rotate(-13.25)"/><polygon class="cls-3" points="561.98 270.03 217.99 351.03 217.91 350.73 561.91 269.73 561.98 270.03"/><polygon class="cls-4" points="565.53 285.09 221.53 366.09 221.46 365.79 565.46 284.79 565.53 285.09"/><polygon class="cls-3" points="563.4 276.05 219.41 357.05 219.33 356.75 563.33 275.75 563.4 276.05"/><polygon class="cls-3" points="564.11 279.06 220.11 360.06 220.04 359.76 564.04 278.76 564.11 279.06"/><polygon class="cls-3" points="564.82 282.08 220.82 363.08 220.75 362.77 564.75 281.77 564.82 282.08"/><polygon class="cls-4" points="568.36 297.14 224.37 378.14 224.3 377.84 568.29 296.84 568.36 297.14"/><rect class="cls-3" x="217.5" y="328.29" width="353.4" height="0.31" transform="translate(-64.79 99.1) rotate(-13.25)"/><polygon class="cls-3" points="566.95 291.11 222.95 372.11 222.88 371.81 566.87 290.81 566.95 291.11"/><polygon class="cls-3" points="567.65 294.12 223.66 375.13 223.59 374.82 567.58 293.82 567.65 294.12"/><rect class="cls-4" x="222.47" y="349.38" width="353.4" height="0.31" transform="translate(-69.49 100.8) rotate(-13.25)"/><rect class="cls-3" x="220.34" y="340.34" width="353.4" height="0.31" transform="translate(-67.47 100.07) rotate(-13.25)"/><rect class="cls-3" x="221.05" y="343.36" width="353.4" height="0.31" transform="translate(-68.14 100.31) rotate(-13.25)"/><rect class="cls-3" x="221.76" y="346.37" width="353.4" height="0.31" transform="translate(-68.82 100.55) rotate(-13.25)"/><rect class="cls-3" x="223.18" y="352.39" width="353.4" height="0.31" transform="translate(-70.16 101.04) rotate(-13.25)"/><polygon class="cls-3" points="572.62 315.21 228.63 396.21 228.56 395.91 572.55 314.91 572.62 315.21"/><polygon class="cls-4" points="579.71 345.33 235.72 426.33 235.65 426.03 579.64 345.03 579.71 345.33"/><rect class="cls-3" x="229.56" y="379.5" width="353.4" height="0.31" transform="translate(-76.2 103.22) rotate(-13.25)"/><polygon class="cls-3" points="579 342.32 235.01 423.32 234.94 423.02 578.93 342.02 579 342.32"/><polygon class="cls-3" points="580.42 348.34 236.43 429.35 236.36 429.04 580.35 348.04 580.42 348.34"/><polygon class="cls-3" points="581.13 351.36 237.14 432.36 237.07 432.06 581.06 351.06 581.13 351.36"/><rect class="cls-4" x="236.65" y="409.62" width="353.4" height="0.31" transform="translate(-82.92 105.65) rotate(-13.25)"/><rect class="cls-3" x="235.23" y="403.6" width="353.4" height="0.31" transform="translate(-81.58 105.16) rotate(-13.25)"/><polygon class="cls-3" points="584.68 366.42 240.68 447.42 240.61 447.12 584.61 366.12 584.68 366.42"/><polygon class="cls-4" points="588.22 381.48 244.23 462.48 244.16 462.18 588.15 381.18 588.22 381.48"/><rect class="cls-3" x="237.36" y="412.64" width="353.4" height="0.31" transform="translate(-83.59 105.89) rotate(-13.25)"/><polygon class="cls-3" points="586.8 375.45 242.81 456.45 242.74 456.15 586.73 375.15 586.8 375.45"/><rect class="cls-3" x="238.78" y="418.66" width="353.4" height="0.31" transform="translate(-84.93 106.38) rotate(-13.25)"/><rect class="cls-4" x="242.33" y="433.72" width="353.4" height="0.31" transform="translate(-88.29 107.59) rotate(-13.25)"/><rect class="cls-3" x="240.2" y="424.69" width="353.4" height="0.31" transform="translate(-86.28 106.86) rotate(-13.25)"/><polygon class="cls-3" points="589.64 387.5 245.65 468.5 245.58 468.2 589.57 387.2 589.64 387.5"/><polygon class="cls-3" points="590.35 390.51 246.36 471.52 246.29 471.21 590.28 390.21 590.35 390.51"/><polygon class="cls-4" points="593.9 405.58 249.9 486.58 249.83 486.27 593.83 405.27 593.9 405.58"/><polygon class="cls-3" points="591.77 396.54 247.78 477.54 247.71 477.24 591.7 396.24 591.77 396.54"/><rect class="cls-3" x="243.75" y="439.75" width="353.4" height="0.31" transform="translate(-89.63 108.08) rotate(-13.25)"/><polygon class="cls-3" points="593.19 402.56 249.19 483.56 249.12 483.26 593.12 402.26 593.19 402.56"/><polygon class="cls-4" points="596.74 417.63 252.74 498.63 252.67 498.32 596.66 417.32 596.74 417.63"/><rect class="cls-3" x="245.87" y="448.78" width="353.4" height="0.31" transform="translate(-91.65 108.81) rotate(-13.25)"/><polygon class="cls-3" points="595.32 411.6 251.32 492.6 251.25 492.3 595.25 411.3 595.32 411.6"/><polygon class="cls-3" points="596.03 414.61 252.03 495.61 251.96 495.31 595.96 414.31 596.03 414.61"/><rect class="cls-3" x="248.71" y="460.83" width="353.4" height="0.31" transform="translate(-94.33 109.78) rotate(-13.25)"/><rect class="cls-3" x="249.42" y="463.84" width="353.4" height="0.31" transform="translate(-95.01 110.02) rotate(-13.25)"/><rect class="cls-3" x="250.13" y="466.86" width="353.4" height="0.31" transform="translate(-95.68 110.26) rotate(-13.25)"/><rect class="cls-4" x="256.51" y="493.97" width="353.4" height="0.31" transform="translate(-101.72 112.45) rotate(-13.25)"/><rect class="cls-3" x="257.22" y="496.98" width="353.4" height="0.31" transform="translate(-102.39 112.69) rotate(-13.25)"/><line class="cls-5" x1="221.64" y1="85.02" x2="334.84" y2="565.77"/><line class="cls-6" x1="235.86" y1="81.99" x2="349.07" y2="562.74"/><line class="cls-6" x1="250.02" y1="78.65" x2="363.22" y2="559.4"/><line class="cls-6" x1="264.18" y1="75.32" x2="377.38" y2="556.07"/><line class="cls-6" x1="278.34" y1="71.99" x2="391.54" y2="552.74"/><line class="cls-6" x1="292.49" y1="68.65" x2="405.7" y2="549.4"/><line class="cls-6" x1="306.65" y1="65.32" x2="419.85" y2="546.07"/><line class="cls-6" x1="320.81" y1="61.99" x2="434.01" y2="542.73"/><line class="cls-6" x1="334.97" y1="58.65" x2="448.17" y2="539.4"/><line class="cls-6" x1="349.12" y1="55.32" x2="462.33" y2="536.07"/><line class="cls-6" x1="363.28" y1="51.99" x2="476.48" y2="532.73"/><line class="cls-6" x1="377.44" y1="48.65" x2="490.64" y2="529.4"/><line class="cls-6" x1="391.6" y1="45.32" x2="504.8" y2="526.07"/><line class="cls-6" x1="405.75" y1="41.98" x2="518.95" y2="522.73"/><line class="cls-6" x1="419.91" y1="38.65" x2="533.11" y2="519.4"/><line class="cls-6" x1="434.07" y1="35.32" x2="547.27" y2="516.07"/><line class="cls-6" x1="448.22" y1="31.98" x2="561.43" y2="512.73"/><line class="cls-6" x1="462.38" y1="28.65" x2="575.58" y2="509.4"/><line class="cls-6" x1="476.54" y1="25.32" x2="589.74" y2="506.06"/><line class="cls-6" x1="490.7" y1="21.98" x2="603.9" y2="502.73"/><path class="cls-4" d="M183.85,158.46,173.23,161l.07.3,10.4-2.45Z"/><path class="cls-4" d="M191.15,156.74a3.61,3.61,0,0,1,.3.25L517.3,80.26l-.08-.3Z"/><rect class="cls-3" x="173.84" y="162.84" width="9.84" height="0.31" transform="translate(-32.6 45.31) rotate(-13.25)"/><path class="cls-3" d="M192.92,159.5a3,3,0,0,0,.07.3L518,83.27l-.07-.3Z"/><polygon class="cls-3" points="184.24 164.72 174.65 166.98 174.72 167.28 184.31 165.02 184.24 164.72"/><path class="cls-3" d="M193.63,162.51c0,.1,0,.2.07.3l325-76.53-.07-.3Z"/><path class="cls-3" d="M194.34,165.53c0,.1,0,.2.07.3l325-76.54-.07-.3Z"/><polygon class="cls-3" points="184.96 167.73 175.36 169.99 175.43 170.29 185.03 168.03 184.96 167.73"/><rect class="cls-4" x="175.97" y="171.87" width="9.88" height="0.31" transform="translate(-34.61 46.04) rotate(-13.25)"/><path class="cls-4" d="M195,168.54c0,.1.05.2.08.3l325-76.53-.07-.3Z"/><rect class="cls-3" x="176.68" y="174.88" width="9.9" height="0.31" transform="translate(-35.28 46.29) rotate(-13.25)"/><path class="cls-3" d="M195.75,171.55c0,.11.05.21.07.3l325-76.53-.07-.3Z"/><path class="cls-3" d="M187.47,176.68l-10,2.35.07.3L187.68,177Z"/><path class="cls-3" d="M196.11,174.64a3.43,3.43,0,0,1-.06.34l325.5-76.65-.07-.3Z"/><path class="cls-3" d="M272.77,538.1l-10.17,2.4.07.3,10-2.36Z"/><path class="cls-3" d="M281,536.17l.23.27L606.67,459.8l-.08-.31Z"/><path class="cls-3" d="M282.27,539l0,.31,325.07-76.54-.07-.3Z"/><path class="cls-3" d="M272.87,541.26l-9.56,2.25.07.3,9.61-2.26Z"/><path class="cls-4" d="M267.15,507.63l-11.64,2.74.07.3L266.84,508C266.93,507.89,267,507.76,267.15,507.63Z"/><path class="cls-4" d="M272.48,506.38a3.82,3.82,0,0,1,.46.21l326.63-76.92-.07-.3Z"/><path class="cls-3" d="M275.11,508.94l.12.29,325-76.54-.07-.31Z"/><path class="cls-3" d="M265.94,511.1l-9.72,2.29.07.3,9.67-2.28C266,511.3,265.94,511.2,265.94,511.1Z"/><rect class="cls-3" x="256.83" y="515.26" width="9.89" height="0.31" transform="translate(-111.16 73.71) rotate(-13.25)"/><path class="cls-3" d="M275.9,511.93c0,.1.05.2.07.3L601,435.7l-.07-.3Z"/><polygon class="cls-3" points="267.25 517.15 257.63 519.41 257.71 519.71 267.32 517.45 267.25 517.15"/><path class="cls-3" d="M276.61,514.94c0,.1.05.2.07.3l325-76.53-.07-.3Z"/><polygon class="cls-4" points="267.94 520.16 258.34 522.42 258.42 522.72 268.01 520.46 267.94 520.16"/><path class="cls-4" d="M277.32,518c0,.1.05.2.07.3l325-76.53-.07-.3Z"/><rect class="cls-3" x="258.96" y="524.3" width="9.85" height="0.31" transform="translate(-113.19 74.45) rotate(-13.25)"/><path class="cls-3" d="M278,521c0,.1.05.2.07.3l325-76.54-.07-.3Z"/><path class="cls-3" d="M269.42,526.17l-9.66,2.28.07.3,9.74-2.29Z"/><path class="cls-3" d="M278.66,524a1.61,1.61,0,0,1,0,.31l325.17-76.56-.07-.3Z"/><path class="cls-3" d="M272.09,528.72l-11.62,2.74.07.3,12.13-2.86A2.79,2.79,0,0,1,272.09,528.72Z"/><path class="cls-3" d="M277.39,527.48a4.47,4.47,0,0,1-.45.42l327.6-77.14-.07-.3Z"/><path class="cls-4" d="M227.6,338.91l-11.81,2.78.07.3,11.37-2.68A4.61,4.61,0,0,1,227.6,338.91Z"/><path class="cls-4" d="M232.5,337.75c.18.06.35.13.51.2l326.84-77-.07-.3Z"/><path class="cls-3" d="M226.13,342.43l-9.63,2.27.07.3,9.58-2.25C226.14,342.64,226.13,342.54,226.13,342.43Z"/><path class="cls-3" d="M235.38,340.25c.05.1.09.19.13.29l325-76.54-.07-.3Z"/><path class="cls-3" d="M227.16,345.37l-9.95,2.34.07.3,10.09-2.37Z"/><path class="cls-3" d="M235.78,343.34a2.09,2.09,0,0,1-.08.34L561.27,267l-.07-.3Z"/><path class="cls-3" d="M209,244.74a5.35,5.35,0,0,1,1.06.07l327.85-77.2-.07-.3Z"/><path class="cls-3" d="M207.17,245.16l-13.37,3.15.07.3,12.39-2.91A5.2,5.2,0,0,1,207.17,245.16Z"/><path class="cls-3" d="M204.33,249l-9.82,2.31.07.3,9.71-2.28C204.3,249.23,204.31,249.12,204.33,249Z"/><path class="cls-3" d="M213.22,246.92l.17.28,325.18-76.58-.07-.3Z"/><path class="cls-3" d="M204.94,252.05l-9.72,2.29.07.3,9.82-2.32C205.05,252.23,205,252.14,204.94,252.05Z"/><path class="cls-3" d="M214,249.91a3.16,3.16,0,0,1,0,.32l325.29-76.59-.07-.31Z"/><path class="cls-4" d="M208.36,254.42l-12.43,2.93.07.3,13.51-3.18A4.91,4.91,0,0,1,208.36,254.42Z"/><path class="cls-4" d="M212,253.56a4.7,4.7,0,0,1-1,.55l329-77.46-.07-.3Z"/><path class="cls-3" d="M212.84,269.26l-13.37,3.15.07.3,12.39-2.92A5.15,5.15,0,0,1,212.84,269.26Z"/><path class="cls-3" d="M214.61,268.84a5.3,5.3,0,0,1,1.06.07l327.87-77.2-.07-.3Z"/><path class="cls-3" d="M210.05,273.1l-9.87,2.32.07.3,9.77-2.3Z"/><path class="cls-3" d="M218.88,271a2.61,2.61,0,0,1,.17.28l325.2-76.58-.07-.3Z"/><rect class="cls-3" x="200.8" y="277.3" width="9.84" height="0.31" transform="translate(-58.12 54.54) rotate(-13.25)"/><path class="cls-3" d="M219.87,274c0,.1,0,.2.07.31l325-76.54-.07-.3Z"/><path class="cls-4" d="M220.59,277c0,.1,0,.2.07.31l325-76.53-.07-.31Z"/><polygon class="cls-4" points="211.2 279.19 201.6 281.44 201.67 281.75 211.27 279.49 211.2 279.19"/><path class="cls-3" d="M221.29,280c0,.1.05.2.07.3l325-76.53-.08-.3Z"/><rect class="cls-3" x="202.21" y="283.32" width="9.87" height="0.31" transform="translate(-59.46 55.03) rotate(-13.25)"/><polygon class="cls-3" points="212.65 285.2 203.02 287.47 203.09 287.77 212.72 285.5 212.65 285.2"/><path class="cls-3" d="M222,283c0,.1.05.2.07.3l325-76.53-.07-.3Z"/><path class="cls-3" d="M213.38,288.21l-9.65,2.27.07.3,9.66-2.27C213.43,288.41,213.4,288.31,213.38,288.21Z"/><path class="cls-3" d="M222.7,286l.06.3,325-76.54-.07-.3Z"/><path class="cls-4" d="M222.23,289.31c-.07.12-.14.25-.22.37L548.5,212.8l-.07-.31Z"/><path class="cls-4" d="M215.27,290.94l-10.83,2.55.07.31,11.12-2.62A2.25,2.25,0,0,1,215.27,290.94Z"/><path class="cls-3" d="M248.79,432.47l-11,2.6.07.3,10.72-2.53C248.64,432.72,248.71,432.59,248.79,432.47Z"/><path class="cls-3" d="M255.28,431a2.85,2.85,0,0,1,.37.23l326.19-76.81-.07-.3Z"/><path class="cls-4" d="M248,435.83l-9.54,2.25.08.3,9.52-2.24Z"/><path class="cls-4" d="M257.47,433.61c0,.1.06.2.08.3l325-76.53-.07-.3Z"/><path class="cls-3" d="M257.44,436.8c0,.12-.09.23-.14.35l326-76.76-.07-.3Z"/><path class="cls-3" d="M249.47,438.67l-10.28,2.42.07.3,10.5-2.47A3.47,3.47,0,0,1,249.47,438.67Z"/><path class="cls-3" d="M239.45,396.52l-10.19,2.4.07.3,10-2.36A3.4,3.4,0,0,1,239.45,396.52Z"/><path class="cls-3" d="M247.69,394.58l.22.27,325.42-76.63-.07-.3Z"/><polygon class="cls-4" points="239.61 399.66 229.97 401.93 230.04 402.24 239.68 399.97 239.61 399.66"/><path class="cls-4" d="M249,397.46c0,.1.05.2.07.31l325-76.54-.07-.3Z"/><rect class="cls-3" x="230.59" y="403.81" width="9.88" height="0.31" transform="translate(-86.33 64.74) rotate(-13.25)"/><path class="cls-3" d="M249.66,400.48c0,.1.05.2.07.3l325-76.53-.07-.3Z"/><rect class="cls-3" x="231.3" y="406.82" width="9.87" height="0.31" transform="translate(-86.99 64.98) rotate(-13.25)"/><path class="cls-3" d="M250.37,403.49c0,.1,0,.2.07.3l325-76.53-.07-.3Z"/><polygon class="cls-3" points="241.69 408.71 232.1 410.97 232.17 411.27 241.76 409.01 241.69 408.71"/><path class="cls-3" d="M251.08,406.5c0,.1,0,.2.07.3l325-76.53-.08-.3Z"/><rect class="cls-4" x="232.71" y="412.85" width="9.84" height="0.31" transform="translate(-88.34 65.46) rotate(-13.25)"/><path class="cls-4" d="M251.8,409.51c0,.13.06.23.07.3l325-76.53-.07-.3Z"/><path class="cls-3" d="M243.84,414.57,233.52,417l.07.31,10.53-2.48Z"/><path class="cls-3" d="M251.75,412.7a3.65,3.65,0,0,1-.14.35l326-76.75-.07-.31Z"/><path class="cls-3" d="M182,149.36l-10.88,2.56.07.3,11.21-2.64Z"/><path class="cls-3" d="M188.75,147.77c-.08.13-.17.25-.26.37L515.17,71.22l-.07-.3Z"/><path class="cls-2" d="M350.24,68.57,44.57,240.64,286.86,671,592.52,499a3.1,3.1,0,0,0,1-4.27l-239.25-425A2.83,2.83,0,0,0,350.24,68.57ZM283.15,634a4.88,4.88,0,1,1,1.86-6.64A4.88,4.88,0,0,1,283.15,634Zm-14.33-15.64L262.2,606.4a4.79,4.79,0,1,1,8.35-4.7l6.7,11.86a4.84,4.84,0,1,1-8.43,4.75Zm-38.27-77.8a4.88,4.88,0,1,1,1.86-6.64A4.87,4.87,0,0,1,230.55,540.51Zm-18.73-23.46-6.63-11.91a4.8,4.8,0,1,1,8.36-4.7l6.7,11.86a4.88,4.88,0,0,1-1.85,6.64A4.81,4.81,0,0,1,211.82,517.05Zm-28-59.6a4.87,4.87,0,1,1,1.86-6.64A4.87,4.87,0,0,1,183.79,457.45Zm-41.2-63.37a4.82,4.82,0,0,1,1.8-6.6,4.88,4.88,0,0,1,6.64,1.86l6.67,11.88a4.8,4.8,0,1,1-8.36,4.71ZM137,374.39a4.87,4.87,0,1,1,1.85-6.63A4.88,4.88,0,0,1,137,374.39ZM85.59,292.82a4.81,4.81,0,0,1,1.8-6.6A4.86,4.86,0,0,1,94,288.08L100.69,300a4.8,4.8,0,1,1-8.36,4.71ZM84.44,281a4.88,4.88,0,1,1,1.85-6.64A4.88,4.88,0,0,1,84.44,281Z"/><rect class="cls-3" x="49.82" y="202.87" width="353.4" height="0.31" transform="translate(-70.46 137.23) rotate(-29.38)"/><rect class="cls-3" x="51.34" y="205.56" width="353.4" height="0.31" transform="translate(-71.59 138.32) rotate(-29.38)"/><rect class="cls-4" x="65.01" y="229.83" width="353.4" height="0.31" transform="translate(-81.74 148.15) rotate(-29.38)"/><rect class="cls-3" x="63.49" y="227.14" width="353.4" height="0.31" transform="translate(-80.61 147.05) rotate(-29.38)"/><polygon class="cls-4" points="401.83 154.23 93.88 327.59 93.72 327.32 401.68 153.96 401.83 154.23"/><rect class="cls-3" x="66.52" y="232.53" width="353.4" height="0.31" transform="translate(-82.87 149.24) rotate(-29.38)"/><rect class="cls-3" x="68.04" y="235.23" width="353.4" height="0.31" transform="translate(-84 150.33) rotate(-29.38)"/><rect class="cls-3" x="69.56" y="237.92" width="353.4" height="0.31" transform="translate(-85.12 151.42) rotate(-29.38)"/><polygon class="cls-4" points="407.9 165.01 99.95 338.38 99.8 338.11 407.75 164.75 407.9 165.01"/><rect class="cls-3" x="72.6" y="243.32" width="353.4" height="0.31" transform="translate(-87.38 153.6) rotate(-29.38)"/><rect class="cls-3" x="74.11" y="246.01" width="353.4" height="0.31" transform="translate(-88.51 154.69) rotate(-29.38)"/><rect class="cls-3" x="75.63" y="248.71" width="353.4" height="0.31" transform="translate(-89.63 155.79) rotate(-29.38)"/><rect class="cls-4" x="83.22" y="262.19" width="353.4" height="0.31" transform="translate(-95.27 161.24) rotate(-29.38)"/><rect class="cls-3" x="78.67" y="254.1" width="353.4" height="0.31" transform="translate(-91.89 157.97) rotate(-29.38)"/><rect class="cls-3" x="80.19" y="256.8" width="353.4" height="0.31" transform="translate(-93.02 159.06) rotate(-29.38)"/><rect class="cls-3" x="81.7" y="259.5" width="353.4" height="0.31" transform="translate(-94.15 160.15) rotate(-29.38)"/><rect class="cls-4" x="89.29" y="272.98" width="353.4" height="0.31" transform="translate(-99.78 165.61) rotate(-29.38)"/><rect class="cls-3" x="84.74" y="264.89" width="353.4" height="0.31" transform="translate(-96.4 162.33) rotate(-29.38)"/><rect class="cls-3" x="86.26" y="267.59" width="353.4" height="0.31" transform="translate(-97.53 163.43) rotate(-29.38)"/><rect class="cls-3" x="87.78" y="270.28" width="353.4" height="0.31" transform="translate(-98.66 164.52) rotate(-29.38)"/><rect class="cls-4" x="95.37" y="283.77" width="353.4" height="0.31" transform="translate(-104.29 169.97) rotate(-29.38)"/><rect class="cls-3" x="90.81" y="275.68" width="353.4" height="0.31" transform="translate(-100.91 166.7) rotate(-29.38)"/><rect class="cls-3" x="92.33" y="278.37" width="353.4" height="0.31" transform="translate(-102.04 167.79) rotate(-29.38)"/><rect class="cls-3" x="93.85" y="281.07" width="353.4" height="0.31" transform="translate(-103.17 168.88) rotate(-29.38)"/><rect class="cls-4" x="107.51" y="305.34" width="353.4" height="0.31" transform="translate(-113.32 178.71) rotate(-29.38)"/><rect class="cls-3" x="102.96" y="297.25" width="353.4" height="0.31" transform="translate(-109.93 175.43) rotate(-29.38)"/><rect class="cls-3" x="104.48" y="299.95" width="353.4" height="0.31" transform="translate(-111.06 176.52) rotate(-29.38)"/><rect class="cls-3" x="105.99" y="302.64" width="353.4" height="0.31" transform="translate(-112.19 177.61) rotate(-29.38)"/><rect class="cls-4" x="125.73" y="337.7" width="353.4" height="0.31" transform="translate(-126.85 191.8) rotate(-29.38)"/><rect class="cls-3" x="121.17" y="329.61" width="353.4" height="0.31" transform="translate(-123.46 188.53) rotate(-29.38)"/><rect class="cls-3" x="122.69" y="332.31" width="353.4" height="0.31" transform="translate(-124.59 189.62) rotate(-29.38)"/><rect class="cls-3" x="124.21" y="335" width="353.4" height="0.31" transform="translate(-125.72 190.71) rotate(-29.38)"/><rect class="cls-4" x="131.8" y="348.49" width="353.4" height="0.31" transform="translate(-131.36 196.17) rotate(-29.38)"/><rect class="cls-3" x="127.25" y="340.4" width="353.4" height="0.31" transform="translate(-127.97 192.9) rotate(-29.38)"/><rect class="cls-3" x="128.76" y="343.09" width="353.4" height="0.31" transform="translate(-129.1 193.99) rotate(-29.38)"/><rect class="cls-3" x="130.28" y="345.79" width="353.4" height="0.31" transform="translate(-130.23 195.08) rotate(-29.38)"/><polygon class="cls-4" points="468.63 272.88 160.67 446.24 160.52 445.97 468.48 272.61 468.63 272.88"/><rect class="cls-3" x="133.32" y="351.18" width="353.4" height="0.31" transform="translate(-132.49 197.26) rotate(-29.38)"/><rect class="cls-3" x="134.84" y="353.88" width="353.4" height="0.31" transform="translate(-133.61 198.35) rotate(-29.38)"/><rect class="cls-3" x="136.35" y="356.58" width="353.4" height="0.31" transform="translate(-134.74 199.44) rotate(-29.38)"/><rect class="cls-3" x="139.39" y="361.97" width="353.4" height="0.31" transform="translate(-137 201.63) rotate(-29.38)"/><rect class="cls-3" x="140.91" y="364.67" width="353.4" height="0.31" transform="translate(-138.12 202.72) rotate(-29.38)"/><rect class="cls-3" x="142.43" y="367.36" width="353.4" height="0.31" transform="translate(-139.25 203.81) rotate(-29.38)"/><rect class="cls-4" x="150.02" y="380.85" width="353.4" height="0.31" transform="translate(-144.89 209.27) rotate(-29.38)"/><rect class="cls-3" x="148.5" y="378.15" width="353.4" height="0.31" transform="translate(-143.76 208.18) rotate(-29.38)"/><rect class="cls-4" x="156.09" y="391.63" width="353.4" height="0.31" transform="translate(-149.4 213.63) rotate(-29.38)"/><rect class="cls-3" x="151.54" y="383.54" width="353.4" height="0.31" transform="translate(-146.02 210.36) rotate(-29.38)"/><polygon class="cls-3" points="483.81 299.85 175.85 473.21 175.7 472.94 483.66 299.58 483.81 299.85"/><rect class="cls-3" x="154.57" y="388.94" width="353.4" height="0.31" transform="translate(-148.27 212.54) rotate(-29.38)"/><rect class="cls-4" x="162.16" y="402.42" width="353.4" height="0.31" transform="translate(-153.91 218) rotate(-29.38)"/><rect class="cls-3" x="157.61" y="394.33" width="353.4" height="0.31" transform="translate(-150.53 214.72) rotate(-29.38)"/><rect class="cls-3" x="159.13" y="397.03" width="353.4" height="0.31" transform="translate(-151.66 215.82) rotate(-29.38)"/><rect class="cls-3" x="160.64" y="399.72" width="353.4" height="0.31" transform="translate(-152.78 216.91) rotate(-29.38)"/><rect class="cls-4" x="168.23" y="413.21" width="353.4" height="0.31" transform="translate(-158.42 222.36) rotate(-29.38)"/><rect class="cls-3" x="163.68" y="405.12" width="353.4" height="0.31" transform="translate(-155.04 219.09) rotate(-29.38)"/><rect class="cls-3" x="165.2" y="407.81" width="353.4" height="0.31" transform="translate(-156.17 220.18) rotate(-29.38)"/><rect class="cls-3" x="166.72" y="410.51" width="353.4" height="0.31" transform="translate(-157.29 221.27) rotate(-29.38)"/><rect class="cls-3" x="169.75" y="415.9" width="353.4" height="0.31" transform="translate(-159.55 223.46) rotate(-29.38)"/><rect class="cls-3" x="171.27" y="418.6" width="353.4" height="0.31" transform="translate(-160.68 224.55) rotate(-29.38)"/><rect class="cls-4" x="186.45" y="445.57" width="353.4" height="0.31" transform="translate(-171.95 235.46) rotate(-29.38)"/><rect class="cls-3" x="183.41" y="440.17" width="353.4" height="0.31" transform="translate(-169.7 233.28) rotate(-29.38)"/><rect class="cls-3" x="184.93" y="442.87" width="353.4" height="0.31" transform="translate(-170.83 234.37) rotate(-29.38)"/><rect class="cls-3" x="187.97" y="448.26" width="353.4" height="0.31" transform="translate(-173.08 236.55) rotate(-29.38)"/><polygon class="cls-3" points="520.24 364.57 212.28 537.93 212.13 537.66 520.09 364.3 520.24 364.57"/><polygon class="cls-4" points="529.35 380.75 221.39 554.11 221.24 553.84 529.2 380.48 529.35 380.75"/><rect class="cls-3" x="195.56" y="461.75" width="353.4" height="0.31" transform="translate(-178.72 242.01) rotate(-29.38)"/><rect class="cls-3" x="197.08" y="464.44" width="353.4" height="0.31" transform="translate(-179.85 243.1) rotate(-29.38)"/><rect class="cls-4" x="204.67" y="477.93" width="353.4" height="0.31" transform="translate(-185.48 248.56) rotate(-29.38)"/><polygon class="cls-3" points="530.87 383.44 222.91 556.81 222.76 556.54 530.72 383.17 530.87 383.44"/><rect class="cls-3" x="201.63" y="472.53" width="353.4" height="0.31" transform="translate(-183.23 246.38) rotate(-29.38)"/><polygon class="cls-3" points="533.9 388.84 225.95 562.2 225.8 561.93 533.75 388.57 533.9 388.84"/><rect class="cls-4" x="210.74" y="488.71" width="353.4" height="0.31" transform="translate(-190 252.93) rotate(-29.38)"/><rect class="cls-3" x="206.19" y="480.62" width="353.4" height="0.31" transform="translate(-186.61 249.65) rotate(-29.38)"/><polygon class="cls-3" points="538.46 396.93 230.5 570.29 230.35 570.02 538.31 396.66 538.46 396.93"/><rect class="cls-3" x="209.22" y="486.02" width="353.4" height="0.31" transform="translate(-188.87 251.83) rotate(-29.38)"/><polygon class="cls-4" points="547.57 413.11 239.61 586.47 239.46 586.2 547.42 412.84 547.57 413.11"/><rect class="cls-3" x="212.26" y="491.41" width="353.4" height="0.31" transform="translate(-191.12 254.02) rotate(-29.38)"/><rect class="cls-3" x="213.78" y="494.11" width="353.4" height="0.31" transform="translate(-192.25 255.11) rotate(-29.38)"/><polygon class="cls-3" points="546.05 410.41 238.09 583.77 237.94 583.5 545.9 410.14 546.05 410.41"/><rect class="cls-4" x="222.88" y="510.29" width="353.4" height="0.31" transform="translate(-199.02 261.66) rotate(-29.38)"/><rect class="cls-3" x="218.33" y="502.2" width="353.4" height="0.31" transform="translate(-195.63 258.38) rotate(-29.38)"/><rect class="cls-3" x="219.85" y="504.89" width="353.4" height="0.31" transform="translate(-196.76 259.47) rotate(-29.38)"/><rect class="cls-3" x="221.37" y="507.59" width="353.4" height="0.31" transform="translate(-197.89 260.57) rotate(-29.38)"/><rect class="cls-3" x="224.4" y="512.98" width="353.4" height="0.31" transform="translate(-200.14 262.75) rotate(-29.38)"/><polygon class="cls-3" points="556.68 429.29 248.72 602.65 248.57 602.38 556.52 429.02 556.68 429.29"/><rect class="cls-3" x="227.44" y="518.38" width="353.4" height="0.31" transform="translate(-202.4 264.93) rotate(-29.38)"/><rect class="cls-4" x="241.1" y="542.65" width="353.4" height="0.31" transform="translate(-212.55 274.75) rotate(-29.38)"/><polygon class="cls-3" points="573.38 458.95 265.42 632.31 265.27 632.04 573.22 458.68 573.38 458.95"/><line class="cls-5" x1="100.92" y1="208.57" x2="343.2" y2="638.95"/><line class="cls-6" x1="113.74" y1="201.7" x2="356.03" y2="632.09"/><line class="cls-6" x1="126.42" y1="194.57" x2="368.7" y2="624.95"/><line class="cls-6" x1="139.09" y1="187.43" x2="381.37" y2="617.82"/><line class="cls-6" x1="151.76" y1="180.3" x2="394.05" y2="610.68"/><line class="cls-6" x1="164.44" y1="173.16" x2="406.72" y2="603.55"/><line class="cls-6" x1="177.11" y1="166.03" x2="419.4" y2="596.41"/><line class="cls-6" x1="189.79" y1="158.89" x2="432.07" y2="589.28"/><line class="cls-6" x1="202.46" y1="151.76" x2="444.74" y2="582.14"/><line class="cls-6" x1="215.14" y1="144.62" x2="457.42" y2="575.01"/><line class="cls-6" x1="227.81" y1="137.49" x2="470.09" y2="567.87"/><line class="cls-6" x1="240.48" y1="130.35" x2="482.77" y2="560.74"/><line class="cls-6" x1="253.16" y1="123.22" x2="495.44" y2="553.6"/><line class="cls-6" x1="265.83" y1="116.08" x2="508.12" y2="546.47"/><line class="cls-6" x1="278.51" y1="108.95" x2="520.79" y2="539.33"/><line class="cls-6" x1="291.18" y1="101.81" x2="533.47" y2="532.2"/><line class="cls-6" x1="303.86" y1="94.68" x2="546.14" y2="525.06"/><line class="cls-6" x1="316.53" y1="87.54" x2="558.81" y2="517.93"/><line class="cls-6" x1="329.2" y1="80.41" x2="571.49" y2="510.79"/><line class="cls-6" x1="341.88" y1="73.27" x2="584.16" y2="503.66"/><path class="cls-4" d="M85,289.61,75.51,295l.15.27L85,290C85,289.86,85,289.74,85,289.61Z"/><path class="cls-4" d="M91.55,285.93l.36.16L383.62,121.87l-.16-.27Z"/><rect class="cls-3" x="76.47" y="295.23" width="9.84" height="0.31" transform="translate(-134.43 77.9) rotate(-29.38)"/><path class="cls-3" d="M94,288.09s.07.13.16.27l291-163.8-.15-.26Z"/><rect class="cls-3" x="77.99" y="297.92" width="9.85" height="0.31" transform="translate(-135.56 79) rotate(-29.38)"/><path class="cls-3" d="M95.53,290.79l.15.27,291-163.8-.15-.27Z"/><path class="cls-3" d="M97.05,293.49l.15.27,291-163.8-.15-.27Z"/><rect class="cls-3" x="79.5" y="300.61" width="9.87" height="0.31" transform="translate(-136.69 80.1) rotate(-29.38)"/><rect class="cls-4" x="81.02" y="303.3" width="9.88" height="0.31" transform="translate(-137.81 81.19) rotate(-29.38)"/><path class="cls-4" d="M98.57,296.18l.15.27,291-163.8-.15-.26Z"/><rect class="cls-3" x="82.54" y="306" width="9.9" height="0.31" transform="translate(-138.94 82.29) rotate(-29.38)"/><path class="cls-3" d="M100.09,298.88q.07.15.15.27l291-163.8-.16-.27Z"/><path class="cls-3" d="M93.56,306.11l-8.94,5,.15.27,9.06-5.1Z"/><path class="cls-3" d="M101.29,301.75c0,.12,0,.23,0,.34l291.4-164-.15-.27Z"/><path class="cls-3" d="M283.21,625.49l.3.19,291.38-164-.15-.27Z"/><path class="cls-3" d="M285.28,627.88c0,.1.08.19.11.29l291-163.83-.15-.27Z"/><path class="cls-4" d="M266.8,599.22a2.64,2.64,0,0,1,.49.08L559.71,434.68l-.15-.27Z"/><path class="cls-3" d="M270,601l.19.24,291-163.81-.15-.27Z"/><path class="cls-3" d="M271.63,603.6l.15.27,291-163.8-.15-.27Z"/><path class="cls-3" d="M273.15,606.3l.15.27,291-163.8-.15-.27Z"/><path class="cls-4" d="M274.66,609l.16.27,291-163.8-.15-.27Z"/><path class="cls-3" d="M276.18,611.69l.15.27,291-163.8-.15-.27Z"/><path class="cls-3" d="M277.63,614.43c0,.1.06.2.09.3l291.1-163.87-.15-.27Z"/><path class="cls-3" d="M277.37,618.13c-.09.18-.2.35-.31.53l293.28-165.1-.15-.27Z"/><path class="cls-4" d="M177.16,450.81l-10.57,5.95.15.27,10.18-5.73A4.44,4.44,0,0,1,177.16,450.81Z"/><path class="cls-4" d="M181.55,448.34a3.31,3.31,0,0,1,.55.05L474.7,283.67l-.15-.27Z"/><path class="cls-3" d="M176.74,454.6l-8.63,4.86.15.27,8.58-4.83C176.8,454.8,176.77,454.7,176.74,454.6Z"/><path class="cls-3" d="M185,449.94l.2.24,291-163.82-.15-.27Z"/><path class="cls-3" d="M178.53,457.14l-8.9,5,.15.27,9-5.08Z"/><path class="cls-3" d="M186.26,452.79c0,.12,0,.23,0,.35L477.74,289.06l-.15-.27Z"/><path class="cls-3" d="M133.09,365.53a5.38,5.38,0,0,1,1-.23L427.64,200.07l-.15-.27Z"/><path class="cls-3" d="M131.51,366.42l-12,6.74.15.27,11.09-6.24A4.88,4.88,0,0,1,131.51,366.42Z"/><path class="cls-3" d="M129.84,370.91l-8.79,4.95.15.27,8.7-4.89C129.87,371.13,129.86,371,129.84,370.91Z"/><path class="cls-3" d="M137.8,366.43l.24.22L429.16,202.77l-.15-.27Z"/><path class="cls-3" d="M131.27,373.66l-8.7,4.9.15.27,8.8-4.95Z"/><path class="cls-3" d="M139.4,369.08l.06.32L430.68,205.46l-.16-.27Z"/><path class="cls-4" d="M135.22,375l-11.13,6.27.15.26,12.1-6.81A5,5,0,0,1,135.22,375Z"/><path class="cls-4" d="M138.49,373.15a4.84,4.84,0,0,1-.82.81l294.52-165.8-.15-.27Z"/><path class="cls-3" d="M143.65,388l-12,6.74.15.27,11.09-6.25A4.75,4.75,0,0,1,143.65,388Z"/><path class="cls-3" d="M145.23,387.11a4.73,4.73,0,0,1,1-.23L439.79,221.64l-.16-.27Z"/><path class="cls-3" d="M142,392.46l-8.84,5,.16.27,8.74-4.92A1.65,1.65,0,0,1,142,392.46Z"/><path class="cls-3" d="M149.93,388l.24.22L441.3,224.34l-.15-.27Z"/><rect class="cls-3" x="134.15" y="397.7" width="9.84" height="0.31" transform="translate(-177.3 119.4) rotate(-29.38)"/><path class="cls-3" d="M151.7,390.57q.08.12.15.27l291-163.8-.15-.27Z"/><path class="cls-4" d="M153.23,393.26l.15.27,291-163.8-.15-.27Z"/><rect class="cls-4" x="135.67" y="400.39" width="9.86" height="0.31" transform="translate(-178.41 120.48) rotate(-29.38)"/><path class="cls-3" d="M154.74,396l.15.27,291-163.8-.15-.27Z"/><rect class="cls-3" x="137.19" y="403.08" width="9.87" height="0.31" transform="translate(-179.54 121.57) rotate(-29.38)"/><rect class="cls-3" x="138.71" y="405.78" width="9.89" height="0.31" transform="translate(-180.66 122.67) rotate(-29.38)"/><path class="cls-3" d="M156.26,398.66l.15.27,291-163.8-.16-.27Z"/><path class="cls-3" d="M149.42,406.06l-8.64,4.86.16.27,8.64-4.87Z"/><path class="cls-3" d="M157.77,401.36c0,.09.09.18.14.27l291-163.81-.15-.27Z"/><path class="cls-4" d="M158.23,404.65c0,.14-.07.28-.11.42L450.41,240.52l-.15-.27Z"/><path class="cls-4" d="M152,408.16l-9.7,5.45.15.27,10-5.6C152.27,408.25,152.13,408.2,152,408.16Z"/><path class="cls-3" d="M223.51,534.8l-9.86,5.56.15.27,9.6-5.41C223.43,535.08,223.47,534.94,223.51,534.8Z"/><path class="cls-3" d="M229.32,531.53l.42.13,292-164.4-.15-.27Z"/><path class="cls-4" d="M223.71,538.25l-8.54,4.8.15.27,8.53-4.8C223.8,538.43,223.75,538.34,223.71,538.25Z"/><path class="cls-4" d="M232.16,533.49a2.33,2.33,0,0,1,.17.26L523.28,370l-.15-.27Z"/><path class="cls-3" d="M233,536.56c0,.12,0,.25,0,.37L524.8,372.66l-.16-.27Z"/><path class="cls-3" d="M225.89,540.57l-9.2,5.18.15.27,9.39-5.29Z"/><path class="cls-3" d="M204.55,502.86,195.43,508l.16.27,9-5.07Z"/><path class="cls-3" d="M211.93,498.71a2.83,2.83,0,0,1,.28.2l291.33-164-.15-.27Z"/><rect class="cls-4" x="196.39" y="508.25" width="9.9" height="0.31" transform="translate(-223.5 164.14) rotate(-29.38)"/><path class="cls-4" d="M213.94,501.13q.08.12.15.27l291-163.8-.15-.27Z"/><rect class="cls-3" x="197.91" y="510.95" width="9.88" height="0.31" transform="translate(-224.65 165.25) rotate(-29.38)"/><path class="cls-3" d="M215.46,503.82c0,.09.1.18.16.27l291-163.79-.15-.27Z"/><rect class="cls-3" x="199.43" y="513.65" width="9.87" height="0.31" transform="translate(-225.77 166.33) rotate(-29.38)"/><path class="cls-3" d="M217,506.52l.15.27L508.1,343l-.15-.27Z"/><rect class="cls-3" x="200.95" y="516.35" width="9.85" height="0.31" transform="translate(-226.9 167.42) rotate(-29.38)"/><path class="cls-3" d="M218.5,509.22l.15.27,291-163.8-.16-.27Z"/><rect class="cls-4" x="202.47" y="519.05" width="9.84" height="0.31" transform="translate(-228.04 168.51) rotate(-29.38)"/><path class="cls-4" d="M220,511.91l.15.27,291-163.79-.15-.27Z"/><path class="cls-3" d="M213.78,519l-9.24,5.2.15.27,9.43-5.31Z"/><path class="cls-3" d="M220.87,515c0,.12,0,.25,0,.38L512.65,351.08l-.15-.27Z"/><path class="cls-3" d="M80.69,281.39,71,286.87l.16.27,10-5.65A3.63,3.63,0,0,1,80.69,281.39Z"/><path class="cls-3" d="M86.75,278c0,.15-.09.29-.14.43L379.06,113.78l-.15-.27Z"/><path class="cls-7" d="M190.72,216a2.1,2.1,0,0,1-2-1.6l-1.25-5.5a4.24,4.24,0,0,1,.59-3L204.7,182l.68.47-16.67,23.83a3.42,3.42,0,0,0-.46,2.36l1.25,5.5a1.28,1.28,0,0,0,1.36.95l5.53-.74a3.49,3.49,0,0,0,2.06-1.26l18.78-26.86a1.08,1.08,0,0,0-.26-1.51l-6.86-4.8a1.09,1.09,0,0,0-1.51.27L194.8,200a3.44,3.44,0,0,0-.46,2.36l.84,3.74a1.26,1.26,0,0,0,1.35.94l3.75-.52a3.49,3.49,0,0,0,2.06-1.26l11.72-16.75.67.47L203,205.69a4.24,4.24,0,0,1-2.61,1.6l-3.76.52a2.08,2.08,0,0,1-2.27-1.57l-.84-3.74a4.3,4.3,0,0,1,.6-3l13.79-19.73a1.92,1.92,0,0,1,2.66-.47l6.86,4.8a1.91,1.91,0,0,1,.47,2.65l-18.79,26.87a4.27,4.27,0,0,1-2.62,1.59l-5.53.74Z"/><path class="cls-8" d="M215.32,188.39l-9.8,14c-1.53,2.18-4.28,4.17-6.13,4.43a3.79,3.79,0,0,1-4.11-2.87c-.41-1.83.5-5.11,2-7.29l10-14.26a4.84,4.84,0,0,1,6.73-1.19l1.39,1a4.85,4.85,0,0,1,1.19,6.73l-15,21.4a12,12,0,0,1-7,4.52,4.8,4.8,0,0,1-5.2-3.64,11.82,11.82,0,0,1,1.81-8.17L206,182"/><path class="cls-7" d="M147.2,277.14a2,2,0,0,1-1.06-.3l-4.79-3a4.26,4.26,0,0,1-1.72-2.54l-5.18-28.61.81-.15,5.18,28.62a3.38,3.38,0,0,0,1.34,2l4.8,3a1.26,1.26,0,0,0,1.62-.3l3.37-4.44a3.48,3.48,0,0,0,.56-2.35L146.3,236.8a1.09,1.09,0,0,0-1.26-.88l-8.24,1.49a1.08,1.08,0,0,0-.87,1.26l4.28,23.7a3.5,3.5,0,0,0,1.35,2l3.25,2a1.23,1.23,0,0,0,1.61-.3l2.28-3a3.46,3.46,0,0,0,.56-2.34l-3.64-20.12.81-.14,3.64,20.11a4.38,4.38,0,0,1-.71,3l-2.28,3a2.08,2.08,0,0,1-2.71.5l-3.25-2a4.3,4.3,0,0,1-1.72-2.54l-4.28-23.69a1.91,1.91,0,0,1,1.54-2.22l8.23-1.49a1.91,1.91,0,0,1,2.22,1.54l5.83,32.26a4.26,4.26,0,0,1-.71,3l-3.37,4.45A2.08,2.08,0,0,1,147.2,277.14Z"/><path class="cls-8" d="M146.34,239.6l3,16.83c.47,2.62-.06,6-1.18,7.47a3.79,3.79,0,0,1-4.93.9c-1.59-1-3.27-4-3.75-6.57l-3.09-17.13a4.85,4.85,0,0,1,3.89-5.62l1.67-.3a4.85,4.85,0,0,1,5.62,3.9l4.64,25.69a11.87,11.87,0,0,1-1.73,8.17,4.82,4.82,0,0,1-6.25,1.13,11.89,11.89,0,0,1-4.52-7l-4.58-25.33"/><path class="cls-7" d="M164.53,214.56a1.89,1.89,0,0,1-1.47-.69l-20.85-25.3a4.34,4.34,0,0,1-.83-3l.77-5.52a2.09,2.09,0,0,1,2.13-1.76l5.64.26a4.27,4.27,0,0,1,2.74,1.38l18.49,22.44-.64.52L152,180.49a3.45,3.45,0,0,0-2.14-1.08l-5.64-.26a1.26,1.26,0,0,0-1.28,1l-.77,5.53a3.54,3.54,0,0,0,.66,2.31l20.84,25.31a1.07,1.07,0,0,0,.74.38,1,1,0,0,0,.79-.24l6.46-5.32a1.09,1.09,0,0,0,.15-1.53l-15.31-18.58a3.5,3.5,0,0,0-2.15-1.08l-3.83-.19a1.24,1.24,0,0,0-1.26,1.05l-.51,3.76a3.48,3.48,0,0,0,.66,2.31l13,15.78-.64.52-13-15.77a4.39,4.39,0,0,1-.84-2.95l.51-3.76a2.08,2.08,0,0,1,2.12-1.76l3.83.19a4.27,4.27,0,0,1,2.74,1.38l15.31,18.58a1.89,1.89,0,0,1-.26,2.68l-6.46,5.33A1.89,1.89,0,0,1,164.53,214.56Z"/><path class="cls-8" d="M163,210.26l-10.88-13.2c-1.69-2.05-2.87-5.24-2.62-7.09a3.78,3.78,0,0,1,3.87-3.19c1.87.1,4.79,1.85,6.48,3.9L171,204.12a4.84,4.84,0,0,1-.65,6.8L169,212a4.85,4.85,0,0,1-6.8-.66l-16.6-20.15a12,12,0,0,1-2.48-8,4.82,4.82,0,0,1,4.91-4,11.84,11.84,0,0,1,7.38,3.93L171.76,203"/><path class="cls-7" d="M179,194.94a1.91,1.91,0,0,1-.73-.15l-7.72-3.24a1.93,1.93,0,0,1-1-2.5l12.72-30.22a4.31,4.31,0,0,1,2.22-2.11l5.25-1.88a2.08,2.08,0,0,1,2.55,1.06l2.39,5.12a4.25,4.25,0,0,1,.05,3.06l-11.27,26.81-.76-.32L194,163.77a3.48,3.48,0,0,0-.05-2.4l-2.38-5.12a1.27,1.27,0,0,0-1.53-.64l-5.25,1.89a3.51,3.51,0,0,0-1.75,1.65l-12.71,30.22a1.09,1.09,0,0,0,.58,1.42l7.72,3.24a1.08,1.08,0,0,0,1.42-.57l9.33-22.2a3.42,3.42,0,0,0,0-2.4l-1.61-3.48a1.25,1.25,0,0,0-1.52-.63L182.61,166a3.55,3.55,0,0,0-1.75,1.67l-7.92,18.84-.76-.32,7.93-18.84a4.29,4.29,0,0,1,2.22-2.12l3.56-1.3a2.09,2.09,0,0,1,2.55,1.06l1.61,3.48a4.28,4.28,0,0,1,0,3.07l-9.34,22.19A1.9,1.9,0,0,1,179,194.94Z"/><path class="cls-8" d="M172.87,186.7l6.63-15.77c1-2.45,3.31-5,5.06-5.61a3.77,3.77,0,0,1,4.62,1.94c.79,1.7.59,5.1-.44,7.54l-6.75,16a4.85,4.85,0,0,1-6.33,2.58l-1.56-.66a4.85,4.85,0,0,1-2.58-6.33l10.12-24.06a11.9,11.9,0,0,1,5.91-5.9,4.81,4.81,0,0,1,5.85,2.46,11.89,11.89,0,0,1-.05,8.37l-10,23.73"/><g class="cls-9"><path class="cls-10" d="M217.68,390.74a9.11,9.11,0,0,1-2,1.19,4.66,4.66,0,0,1-1.5.41,2.53,2.53,0,0,1-1.13-.14.94.94,0,0,1-.63-.82c-.16-.91.29-2.55,0-3.17s-1.1-.67-2.2-.37a11.2,11.2,0,0,1-1.56.33,4.09,4.09,0,0,1-1.2-.13,2.85,2.85,0,0,1-1.9-.89,4,4,0,0,1-.54-2.35,10,10,0,0,1,.95-3.76l.68-.69a12.8,12.8,0,0,1,2.07-.77,6.86,6.86,0,0,1,.84-.21,5.87,5.87,0,0,1,.76-.14,5.42,5.42,0,0,1,1.26,0,2.35,2.35,0,0,1,1,.26c.55.27.73,1,.93,1.63a3.5,3.5,0,0,1,.24,1.1,12.67,12.67,0,0,1-.11,1.55c-.12,1.1.06,1.89.75,2s2.12-.72,3-.86a.78.78,0,0,1,.89.31,2.28,2.28,0,0,1,.41,1,4.82,4.82,0,0,1,.05,1.51,10.54,10.54,0,0,1-.43,2.26Z"/><path class="cls-10" d="M256.17,404.65a8.86,8.86,0,0,1-7.05,2.92,4.08,4.08,0,0,1-2.15-.69c-1.35-.92-2.42-2.78-3.74-3.42a6,6,0,0,0-4.51-.15,18.75,18.75,0,0,1-2.5.5,12.08,12.08,0,0,1-2.34-.11c-.77-.1-1.54-.19-2.29-.35a8.51,8.51,0,0,1-2.13-.78,12.19,12.19,0,0,1-3.52-3.12,12.37,12.37,0,0,1-1.35-2.22,11,11,0,0,1-1-2.79l.47-.85a13.85,13.85,0,0,1,2.8-.75,13,13,0,0,1,2.44-.28,13.29,13.29,0,0,1,2.21.08,8.71,8.71,0,0,1,2,.39,11.77,11.77,0,0,1,3.5,2.05,10.21,10.21,0,0,1,1.68,1.33,22.3,22.3,0,0,1,1.55,1.82,7.38,7.38,0,0,0,1.7,1.58,4.08,4.08,0,0,0,2,.62,5.93,5.93,0,0,0,2.28-.59,13,13,0,0,1,2.29-.91,3.32,3.32,0,0,1,2,.1,7.92,7.92,0,0,1,1.91.87,9.11,9.11,0,0,1,1.87,1.44,11,11,0,0,1,1.85,2.34Z"/><path class="cls-10" d="M327.06,375.7a14.58,14.58,0,0,1-1,4.36,18.32,18.32,0,0,1-2,3.72,22.21,22.21,0,0,1-2.6,3.19,11.43,11.43,0,0,1-3.29,2.43c-2.53,1.23-5.61,1.54-7.95,2.75a21.8,21.8,0,0,0-6.27,5,32.42,32.42,0,0,1-3,2.94,25.17,25.17,0,0,1-3.45,2.29,28.75,28.75,0,0,1-7.52,3.39,27.68,27.68,0,0,1-8.28.77,21.81,21.81,0,0,1-8.4-2.05l-.11-1a44,44,0,0,1,6.93-4.51,60.41,60.41,0,0,1,6.76-3.17,62.14,62.14,0,0,1,7.06-1.94c1.2-.3,2.38-.66,3.64-.89s2.57-.37,3.89-.57a13.27,13.27,0,0,0,7.06-2.94c2-1.66,3.06-4.42,4.57-6.45a12.18,12.18,0,0,1,2.63-2.59,32.07,32.07,0,0,1,3.07-2.12,31.09,31.09,0,0,1,3.44-1.86,22.29,22.29,0,0,1,4.12-1.45Z"/><path class="cls-10" d="M181.73,324.5c-4.23-26.51,8.69-56,32-71.32a77.92,77.92,0,0,1,18.57-8.79,110.18,110.18,0,0,1,19.81-4.23A104.54,104.54,0,0,1,292.11,243a84.59,84.59,0,0,1,9.67,3.38A72.27,72.27,0,0,1,311,251a79.47,79.47,0,0,1,16.29,12.85,80.77,80.77,0,0,1,12.6,16.63l1.3,2.28a20.45,20.45,0,0,1,1.23,2.31l2.18,4.78a22.07,22.07,0,0,1,.94,2.45l.87,2.48c.28.83.59,1.65.85,2.49l.66,2.54.64,2.55.32,1.27.23,1.3c.3,1.72.57,3.45.84,5.18a83,83,0,0,1,.54,10.45v2.61c0,.87-.13,1.73-.19,2.6-.18,1.73-.26,3.47-.52,5.18l-.9,5.12c-.34,1.69-.83,3.36-1.24,5a42.63,42.63,0,0,1-1.54,4.93,48.09,48.09,0,0,1-1.86,4.8c-.71,1.57-1.35,3.15-2.11,4.67L339.66,360a74.18,74.18,0,0,1-12.6,15.74l-.74-.63a110.17,110.17,0,0,0,8.88-17.31,90.27,90.27,0,0,0,5-18.32,81.35,81.35,0,0,0,.9-18.68,91.84,91.84,0,0,0-1-9.22c-.32-1.51-.65-3-.94-4.54l-.23-1.13-.32-1.11-.63-2.23A84.23,84.23,0,0,0,331,285.41L330,283.34l-1.2-2c-.77-1.35-1.65-2.61-2.52-3.9s-1.82-2.51-2.72-3.77-1.94-2.42-3-3.59a87.73,87.73,0,0,0-30.24-22c-1.48-.57-2.94-1.25-4.47-1.74l-2.27-.79-2.32-.66c-1.54-.47-3.11-.79-4.68-1.16s-3.18-.58-4.78-.79a63.78,63.78,0,0,0-37.54,6.46,85.07,85.07,0,0,0-8.23,4.81l-2,1.32c-.65.45-1.27.94-1.9,1.41-1.27.94-2.56,1.82-3.75,2.85a103.8,103.8,0,0,0-13.54,12.88A90.28,90.28,0,0,0,194.18,288a100.12,100.12,0,0,0-11.47,36.48Z"/><path class="cls-10" d="M205.94,381a17.2,17.2,0,0,1-7.85-3.73,21.37,21.37,0,0,1-3-2.89,11.2,11.2,0,0,1-2.16-3.51c-1-2.63-1.06-5.75-2.09-8.21a22,22,0,0,0-4.5-6.73,32.59,32.59,0,0,1-2.67-3.32,26.62,26.62,0,0,1-2-3.66,30.35,30.35,0,0,1-2.72-7.87,29,29,0,0,1,0-8.37,22.74,22.74,0,0,1,2.79-8.25l1,0a43.83,43.83,0,0,1,3.87,7.37,44.83,44.83,0,0,1,3.87,14.33c.22,1.23.44,2.45.58,3.73s.16,2.61.23,4a13.59,13.59,0,0,0,2.36,7.33c1.5,2.11,4.14,3.48,6.06,5.16a12.5,12.5,0,0,1,2.38,2.87,35.82,35.82,0,0,1,1.87,3.26,30.59,30.59,0,0,1,1.57,3.62,22,22,0,0,1,1.12,4.24Z"/></g><polygon class="cls-11" points="435.19 356.25 435.51 355.98 435.23 355.24 435.23 355.24 435.12 355.09 435.12 355.19 435.18 355.19 434.17 351.53 433.27 348.38 433.27 348.38 429.17 334.25 428.84 333.1 428.84 333.1 426.62 325.46 426.62 325.46 424.4 317.84 424.4 317.84 422.18 310.2 422.18 310.2 419.96 302.57 419.96 302.57 417.74 295 417.74 295 415.52 287.42 415.52 287.42 413.3 279.74 413.3 279.74 411.08 272.08 411.08 272.08 408.86 264.44 408.86 264.44 407.28 258.97 404.41 249.05 404.41 249.05 402.19 241.48 402.19 241.48 399.97 233.88 399.97 233.88 398.39 228.31 391.18 203.38 391.18 203.39 388.91 195.76 388.91 195.76 386.67 188.13 386.67 188.13 386.36 187.11 382.21 172.87 382.2 172.87 380.19 165.97 377.76 157.61 377.76 157.61 375.54 149.98 375.54 149.98 373.32 142.35 373.32 142.35 372.83 140.68 368.87 127.09 368.87 127.09 367.27 121.59 364.43 111.83 364.43 111.83 362.21 104.21 362.21 104.21 355.55 81.32 355.55 81.32 353.32 73.69 353.32 73.69 348.9 58.48 348.88 58.43 348.88 58.43 348.32 56.51 348.33 56.51 347.82 54.76 347.82 54.76 347.52 53.7 346.44 50.07 346.44 50.07 345.7 47.59 345.7 47.59 345.18 45.74 345.17 45.7 340.57 29.91 323.64 34.83 329.73 55.73 329.73 55.73 331.91 63.22 334.17 70.99 334.17 70.99 335.94 77.09 338.61 86.25 338.61 86.25 340.83 93.88 340.83 93.88 343.05 101.5 343.05 101.5 345.27 109.14 345.27 109.14 347.5 116.77 347.5 116.77 349.72 124.39 349.72 124.39 351.94 132.02 351.94 132.02 354.16 139.66 354.16 139.66 356.38 147.28 356.38 147.28 358.6 154.91 358.6 154.91 365.26 177.8 365.26 177.8 367.49 185.43 367.49 185.43 369.71 193.06 369.71 193.06 371.93 200.69 371.93 200.69 374.15 208.32 374.15 208.32 376.37 215.95 376.37 215.95 378.59 223.58 378.59 223.58 380.81 231.21 380.81 231.21 383.03 238.84 383.03 238.84 384.14 242.63 387.48 254.09 387.48 254.09 389.4 260.69 391.92 269.36 391.92 269.36 394.14 276.99 394.14 276.99 397.09 287.13 398.58 292.25 398.58 292.25 400.81 299.88 400.81 299.88 403.02 307.5 403.02 307.5 405.25 315.13 405.25 315.13 407.47 322.76 407.47 322.76 414.13 345.65 414.13 345.65 416.35 353.28 416.35 353.28 418.31 360.02 418.31 360.02 418.31 360.02 418.36 360.17 418.42 360.16 418.82 360.7 418.57 360.91 433.88 381 434.17 375.5 434.17 375.5 435.19 356.25"/><rect class="cls-12" x="374.34" y="43.73" width="17.64" height="316.89" transform="translate(-41.24 115.16) rotate(-16.23)"/><rect class="cls-13" x="326.98" y="28.52" width="17.64" height="21.97" transform="translate(2.34 95.44) rotate(-16.23)"/><polygon class="cls-14" points="429.46 329.69 431.69 337.32 416.97 349.88 414.75 342.25 429.46 329.69"/><polygon class="cls-14" points="425.02 314.43 427.25 322.06 412.53 334.62 410.31 326.99 425.02 314.43"/><polygon class="cls-14" points="420.58 299.17 422.8 306.8 408.09 319.36 405.87 311.73 420.58 299.17"/><polygon class="cls-14" points="416.14 283.91 418.36 291.54 403.64 304.1 401.42 296.47 416.14 283.91"/><polygon class="cls-14" points="411.7 268.65 413.92 276.28 399.2 288.84 396.98 281.21 411.7 268.65"/><polygon class="cls-14" points="407.25 253.39 409.48 261.02 394.76 273.58 392.54 265.95 407.25 253.39"/><polygon class="cls-14" points="402.81 238.13 405.03 245.76 390.32 258.32 388.1 250.69 402.81 238.13"/><polygon class="cls-14" points="398.37 222.87 400.59 230.5 385.88 243.06 383.65 235.43 398.37 222.87"/><polygon class="cls-14" points="393.93 207.62 396.15 215.25 381.43 227.8 379.21 220.18 393.93 207.62"/><polygon class="cls-14" points="389.48 192.35 391.7 199.99 376.99 212.55 374.77 204.92 389.48 192.35"/><polygon class="cls-14" points="385.04 177.09 387.26 184.73 372.55 197.29 370.33 189.66 385.04 177.09"/><polygon class="cls-14" points="380.6 161.84 382.82 169.47 368.11 182.03 365.88 174.4 380.6 161.84"/><polygon class="cls-14" points="376.16 146.58 378.38 154.21 363.66 166.77 361.44 159.14 376.16 146.58"/><polygon class="cls-14" points="371.71 131.32 373.93 138.95 359.22 151.51 357 143.88 371.71 131.32"/><polygon class="cls-14" points="367.27 116.06 369.49 123.69 354.78 136.25 352.56 128.62 367.27 116.06"/><polygon class="cls-14" points="362.83 100.8 365.05 108.43 350.33 120.99 348.11 113.36 362.83 100.8"/><polygon class="cls-14" points="358.39 85.54 360.61 93.17 345.89 105.73 343.67 98.1 358.39 85.54"/><polygon class="cls-14" points="353.94 70.28 356.17 77.91 341.45 90.47 339.23 82.84 353.94 70.28"/><polygon class="cls-14" points="349.5 55.02 351.72 62.65 337.01 75.21 334.79 67.58 349.5 55.02"/><g class="cls-15"><polygon class="cls-14" points="433.91 344.95 436.13 352.58 421.41 365.13 419.19 357.51 433.91 344.95"/><polygon class="cls-14" points="345.06 39.77 347.28 47.39 332.57 59.95 330.34 52.32 345.06 39.77"/></g><polyline class="cls-16" points="418.93 356.62 434.5 377.6 435.87 351.69"/><polyline class="cls-17" points="431.19 373.14 434.5 377.6 434.79 372.09"/><rect class="cls-18" x="330.08" y="44.51" width="17.65" height="11.29" transform="translate(-0.51 96.73) rotate(-16.23)"/><rect class="cls-19" x="329.39" y="46.46" width="17.65" height="2.66" transform="matrix(0.96, -0.28, 0.28, 0.96, 0.12, 96.43)"/><rect class="cls-19" x="330.78" y="51.21" width="17.65" height="2.66" transform="matrix(0.96, -0.28, 0.28, 0.96, -1.14, 97.08)"/><polygon class="cls-20" points="415.96 345.37 413.29 346.16 326.46 46.91 329.13 46.13 415.96 345.37"/><rect class="cls-1" x="-507.58" y="78.28" width="633.77" height="475.33"/></svg>