<svg id="prefix__Calque_1" data-name="Calque 1" xmlns="http://www.w3.org/2000/svg" viewBox="0 0 580 600"><defs><style>.prefix__cls-1{opacity:.1}.prefix__cls-2{fill:#cf943a}.prefix__cls-3{fill:#f6f2e7}.prefix__cls-10{fill:#c03e2e}.prefix__cls-11{fill:#fff}.prefix__cls-12,.prefix__cls-17,.prefix__cls-21{fill:none}.prefix__cls-12{stroke:#d6ceae;stroke-width:2px}.prefix__cls-12,.prefix__cls-17,.prefix__cls-21{stroke-miterlimit:10}.prefix__cls-15{fill:#403f41}.prefix__cls-16,.prefix__cls-19{font-size:6.19px;font-family:Lato-Bold,Lato;font-weight:700}.prefix__cls-16,.prefix__cls-18,.prefix__cls-19{fill:#bbb}.prefix__cls-16,.prefix__cls-20{letter-spacing:-.04em}.prefix__cls-17,.prefix__cls-21{stroke:#bbb}.prefix__cls-19{letter-spacing:-.04em}.prefix__cls-21{stroke-linecap:round}.prefix__cls-22{fill:#d3bc98}.prefix__cls-25{fill:#e4d0b2}.prefix__cls-26{fill:#5a3713}.prefix__cls-27{fill:#e9e0cb}.prefix__cls-28{fill:#c0a784}</style></defs><g class="prefix__cls-1"><path class="prefix__cls-2" d="M150.12 247.55a8.59 8.59 0 01-2 1.18 4.25 4.25 0 01-1.5.41 2.4 2.4 0 01-1.13-.13.94.94 0 01-.63-.82c-.16-.91.28-2.55 0-3.17s-1.1-.68-2.2-.37a11.2 11.2 0 01-1.56.33 4.05 4.05 0 01-1.2-.13 2.89 2.89 0 01-1.9-.85 4.08 4.08 0 01-.55-2.35 10.21 10.21 0 01.95-3.76l.69-.69a12.8 12.8 0 012.07-.77 5.42 5.42 0 01.84-.21 6.06 6.06 0 01.75-.14 5.43 5.43 0 011.26 0 2.4 2.4 0 011 .26c.54.27.72 1 .93 1.63a3.73 3.73 0 01.24 1.1 12.67 12.67 0 01-.11 1.55c-.12 1.1.05 1.89.75 2s2.12-.72 3-.86a.78.78 0 01.89.31 2.41 2.41 0 01.41 1 4.82 4.82 0 010 1.51 10.54 10.54 0 01-.43 2.26zM188.61 261.46a8.83 8.83 0 01-7 2.92 4.06 4.06 0 01-2.15-.69c-1.35-.92-2.42-2.78-3.74-3.42a6 6 0 00-4.51-.15 19.07 19.07 0 01-2.5.5 12.08 12.08 0 01-2.34-.11c-.77-.1-1.54-.2-2.29-.35a8.23 8.23 0 01-2.13-.78 12.06 12.06 0 01-3.52-3.12A11.82 11.82 0 01157 254a11 11 0 01-.95-2.79l.47-.85a13.93 13.93 0 012.8-.76 13.78 13.78 0 012.44-.27 13.29 13.29 0 012.21.08 8.82 8.82 0 012 .39 11.77 11.77 0 013.5 2 10.69 10.69 0 011.68 1.32c.53.53 1 1.19 1.55 1.83a7.61 7.61 0 001.7 1.58 4.08 4.08 0 002 .62 5.78 5.78 0 002.28-.6 13.35 13.35 0 012.29-.9 3.21 3.21 0 012 .1 7.81 7.81 0 011.92.87 9.11 9.11 0 011.87 1.44 11 11 0 011.85 2.34zM259.51 232.5a14.65 14.65 0 01-1 4.37 19.68 19.68 0 01-2 3.72 22.91 22.91 0 01-2.6 3.19 11.34 11.34 0 01-3.3 2.43c-2.52 1.23-5.6 1.54-7.94 2.75a21.6 21.6 0 00-6.27 5 32.38 32.38 0 01-3 2.94 24.35 24.35 0 01-3.45 2.3 28.82 28.82 0 01-7.53 3.39 28.25 28.25 0 01-8.27.77 22 22 0 01-8.4-2.05l-.11-1a44.81 44.81 0 016.93-4.52 62.89 62.89 0 016.75-3.16 62.72 62.72 0 017.06-1.94c1.21-.3 2.38-.67 3.64-.89s2.58-.37 3.9-.57a13.2 13.2 0 007.05-2.94c2-1.66 3.07-4.42 4.58-6.45a12 12 0 012.63-2.59 33.92 33.92 0 013.06-2.13 32.15 32.15 0 013.45-1.85 21.72 21.72 0 014.11-1.45z"/><path class="prefix__cls-2" d="M114.18 181.31c-4.24-26.51 8.69-56 31.95-71.32a77.74 77.74 0 0118.57-8.79 110 110 0 0119.81-4.2 104.35 104.35 0 0140.05 2.86 86.5 86.5 0 019.67 3.37 73.67 73.67 0 019.25 4.59 79.74 79.74 0 0116.29 12.85 81.48 81.48 0 0112.6 16.63l1.3 2.28a22.2 22.2 0 011.23 2.31l2.17 4.78a22.13 22.13 0 01.95 2.45l.87 2.48c.28.83.59 1.65.85 2.49l.66 2.54.64 2.55.32 1.27.22 1.29c.31 1.73.58 3.46.84 5.18a83.16 83.16 0 01.55 10.45v2.61c0 .87-.12 1.74-.18 2.61-.18 1.73-.26 3.46-.52 5.18l-.9 5.12c-.34 1.69-.84 3.36-1.25 5a40.72 40.72 0 01-1.53 4.93 50.66 50.66 0 01-1.86 4.8c-.71 1.56-1.35 3.15-2.12 4.67l-2.48 4.48a73.87 73.87 0 01-12.6 15.73l-.75-.62a109.81 109.81 0 008.89-17.31 90.36 90.36 0 005-18.33 81.8 81.8 0 00.9-18.67c-.1-3.1-.62-6.16-1-9.22-.33-1.51-.65-3-.94-4.54l-.23-1.13-.32-1.11-.63-2.23a84.23 84.23 0 00-6.89-17.12l-1.06-2.07-1.19-2c-.77-1.35-1.66-2.61-2.52-3.9s-1.82-2.51-2.72-3.77-1.94-2.42-3-3.59a87.73 87.73 0 00-30.24-22.05c-1.49-.57-2.95-1.25-4.47-1.74l-2.27-.79-2.32-.66c-1.54-.47-3.12-.79-4.69-1.16s-3.17-.58-4.77-.79a63.78 63.78 0 00-37.54 6.46 81.93 81.93 0 00-8.27 4.84l-2 1.32c-.64.45-1.26.94-1.9 1.41-1.26.94-2.56 1.82-3.74 2.85a103.25 103.25 0 00-13.55 12.88 90.23 90.23 0 00-10.7 15.37 100.13 100.13 0 00-11.48 36.48z"/><path class="prefix__cls-2" d="M138.38 237.85a17.11 17.11 0 01-7.84-3.73 21.37 21.37 0 01-3-2.89 11.32 11.32 0 01-2.16-3.51c-1-2.63-1.06-5.76-2.09-8.21a22 22 0 00-4.51-6.73 35.26 35.26 0 01-2.67-3.32 28.31 28.31 0 01-2-3.66 30 30 0 01-2.72-7.87 29 29 0 010-8.37 22.68 22.68 0 012.79-8.25h1a42.74 42.74 0 013.87 7.37 55.78 55.78 0 012.55 7.07 59.58 59.58 0 011.3 7.25c.22 1.23.44 2.45.58 3.73s.16 2.61.23 3.95a13.51 13.51 0 002.36 7.34c1.5 2.11 4.14 3.48 6.06 5.16a12.5 12.5 0 012.38 2.87 35.47 35.47 0 011.87 3.26 30.43 30.43 0 011.57 3.61 22.28 22.28 0 011.12 4.25z"/></g><path class="prefix__cls-3" d="M101.17 227a12.45 12.45 0 014.3-17.09l17.11-10.24a12.47 12.47 0 0117.1 4.3l2.23 3.74a12.47 12.47 0 01-4.29 17.1L120.5 235a12.47 12.47 0 01-17.09-4.3z"/><path d="M141.91 207.67l-2.23-3.74a12.47 12.47 0 00-17.1-4.3l-4.21 2.52a84.64 84.64 0 0014.95 25.19l4.3-2.57a12.47 12.47 0 004.29-17.1z" fill="#313032" opacity=".1"/><circle class="prefix__cls-3" cx="199.79" cy="170.88" r="84.13" transform="rotate(-73.62 199.787 170.881)"/><circle cx="199.79" cy="170.88" r="75.04" transform="rotate(-60 199.797 170.882)" fill="#d1ab82"/><circle cx="199.79" cy="170.88" r="68.5" transform="rotate(-62.47 199.798 170.877)" fill="#d8b58b"/><path opacity=".1" d="M296.94 284.31l-14.6-44.39-6.87 2.26-37.22 12.24 6.9 21 7.69 23.39 44.1-14.5z"/><path transform="rotate(-18.2 269.123 268.121)" fill="#a2d068" d="M245.93 244.77h46.42v46.73h-46.42z"/><path d="M246.69 274.18A22.6 22.6 0 00277 240.94l-37.23 12.24z" fill="#f5d13b"/><path class="prefix__cls-10" transform="rotate(-18.2 266.41 259.875)" d="M247.86 254.79h37.13V265h-37.13z"/><path class="prefix__cls-10" d="M280.76 255.25c1.46 4.43-3.77 10.13-11.67 12.73s-15.49 1.11-16.95-3.32 3.77-10.13 11.67-12.73 15.5-1.11 16.95 3.32z"/><path class="prefix__cls-11" transform="rotate(-18.2 266.613 260.003)" d="M257.5 258.14h18.26v3.71H257.5z"/><path class="prefix__cls-12" d="M251.57 237.2c-2-2-4.11-4.19-6.29-6.63M261.32 246.1s-8.13-2.16-12.78-6.65"/><path d="M489.53 434.59a9.28 9.28 0 00-6.94-11.14l-347.88-80.7a9.29 9.29 0 00-11.14 6.95L94.76 473.9a9.28 9.28 0 006.94 11.1l347.88 80.69a9.28 9.28 0 0011.14-6.94z" opacity=".05" fill="#313032"/><path d="M493.25 432.27a9.3 9.3 0 00-6.95-11.14l-347.88-80.69a9.28 9.28 0 00-11.14 6.94l-28.81 124.2a9.29 9.29 0 007 11.15l347.83 80.69a9.28 9.28 0 0011.14-6.95z" fill="#ddd"/><g class="prefix__cls-1"><path class="prefix__cls-15" d="M485.24 438a3.1 3.1 0 01-3.72 2.32l-15.67-3.64a3.1 3.1 0 01-2.32-3.71l1.54-6.64a3.09 3.09 0 013.71-2.31l15.68 3.63a3.1 3.1 0 012.32 3.72zM459.61 432.1a3.09 3.09 0 01-3.71 2.31l-15.68-3.63a3.1 3.1 0 01-2.31-3.72l1.54-6.63a3.09 3.09 0 013.71-2.32l15.68 3.64a3.09 3.09 0 012.31 3.71z"/><rect class="prefix__cls-15" x="417.41" y="409.18" width="13" height="22.28" rx="3.09" transform="rotate(-76.94 423.895 420.32)"/><rect class="prefix__cls-15" x="391.78" y="403.24" width="13" height="22.28" rx="3.09" transform="rotate(-76.94 398.292 414.378)"/><rect class="prefix__cls-15" x="366.16" y="397.29" width="13" height="22.28" rx="3.09" transform="rotate(-76.94 372.677 408.438)"/><path class="prefix__cls-15" d="M357.12 408.32a3.1 3.1 0 01-3.71 2.32L337.73 407a3.09 3.09 0 01-2.32-3.71l1.54-6.63a3.1 3.1 0 013.72-2.32l15.67 3.66a3.09 3.09 0 012.32 3.71z"/><path class="prefix__cls-15" d="M318 385.41h6.81a3.09 3.09 0 013.09 3.09v16.09a3.09 3.09 0 01-3.09 3.09H318a3.1 3.1 0 01-3.1-3.1V388.5a3.1 3.1 0 013.1-3.09z" transform="rotate(-76.94 321.418 396.544)"/><rect class="prefix__cls-15" x="289.29" y="379.46" width="13" height="22.28" rx="3.09" transform="rotate(-76.94 295.785 390.6)"/><path class="prefix__cls-15" d="M280.25 390.49a3.1 3.1 0 01-3.72 2.32l-15.67-3.64a3.1 3.1 0 01-2.32-3.71l1.54-6.64a3.1 3.1 0 013.72-2.31l15.67 3.64a3.09 3.09 0 012.32 3.71zM254.62 384.55a3.08 3.08 0 01-3.71 2.31l-15.67-3.63a3.1 3.1 0 01-2.32-3.72l1.54-6.63a3.09 3.09 0 013.71-2.31l15.68 3.63a3.1 3.1 0 012.31 3.72z"/><path class="prefix__cls-15" d="M215.51 361.63h6.81a3.09 3.09 0 013.09 3.09v16.09a3.09 3.09 0 01-3.09 3.09h-6.81a3.1 3.1 0 01-3.1-3.1v-16.08a3.1 3.1 0 013.1-3.09z" transform="rotate(-76.94 218.917 372.77)"/><path class="prefix__cls-15" d="M203.38 372.66a3.1 3.1 0 01-3.72 2.32L184 371.34a3.1 3.1 0 01-2.32-3.71l1.54-6.64a3.09 3.09 0 013.71-2.31l15.68 3.63a3.1 3.1 0 012.32 3.72zM177.75 366.72A3.09 3.09 0 01174 369l-15.68-3.63a3.1 3.1 0 01-2.31-3.72l1.54-6.63a3.09 3.09 0 013.71-2.31l15.74 3.66a3.1 3.1 0 012.31 3.72z"/><path class="prefix__cls-15" d="M138.64 343.8h6.81a3.1 3.1 0 013.1 3.1V363a3.09 3.09 0 01-3.09 3.09h-6.81a3.09 3.09 0 01-3.09-3.09v-16.11a3.09 3.09 0 013.09-3.09z" transform="rotate(-76.94 142.043 354.936)"/><path class="prefix__cls-15" d="M145.21 385.11a3.2 3.2 0 01-3.83 2.4l-14.27-3.32a3.19 3.19 0 01-2.4-3.83l3.29-14.27a3.2 3.2 0 013.84-2.39l14.29 3.3a3.19 3.19 0 012.39 3.83zM169.93 390.85a3.19 3.19 0 01-3.83 2.39l-14.27-3.31a3.21 3.21 0 01-2.4-3.84l3.31-14.27a3.2 3.2 0 013.84-2.39l14.27 3.31a3.2 3.2 0 012.39 3.84z"/><rect class="prefix__cls-15" x="175.23" y="376.48" width="21.04" height="21.04" rx="3.2" transform="rotate(-76.94 185.762 387.005)"/><path class="prefix__cls-15" d="M219.06 402.3a3.16 3.16 0 01-3.84 2.33l-14.32-3.32a3.1 3.1 0 01-2.34-3.77l3.32-14.32a3.15 3.15 0 013.78-2.41l14.34 3.33a3.19 3.19 0 012.4 3.83zM243.49 407.91a3.2 3.2 0 01-3.84 2.39l-14.27-3.3a3.2 3.2 0 01-2.39-3.84l3.31-14.27a3.19 3.19 0 013.83-2.39l14.28 3.31a3.2 3.2 0 012.39 3.84zM268.21 413.64a3.2 3.2 0 01-3.84 2.39l-14.27-3.31a3.19 3.19 0 01-2.39-3.83l3.29-14.27a3.19 3.19 0 013.83-2.39l14.27 3.31a3.18 3.18 0 012.4 3.83zM292.91 419.43a3.21 3.21 0 01-3.89 2.32l-14.33-3.32a3.06 3.06 0 01-2.28-3.76l3.33-14.32a3.09 3.09 0 013.71-2.42l14.32 3.32a3.27 3.27 0 012.47 3.86zM317.34 425a3.18 3.18 0 01-3.83 2.39l-14.27-3.31a3.2 3.2 0 01-2.4-3.83l3.32-14.25a3.18 3.18 0 013.83-2.39l14.27 3.31a3.2 3.2 0 012.39 3.84z"/><rect class="prefix__cls-15" x="322.95" y="410.74" width="21.04" height="21.04" rx="3.2" transform="rotate(-76.94 333.468 421.26)"/><path class="prefix__cls-15" d="M366.48 436.44a3.19 3.19 0 01-3.83 2.39l-14.28-3.31a3.2 3.2 0 01-2.39-3.84l3.31-14.27a3.2 3.2 0 013.84-2.39l14.27 3.31a3.2 3.2 0 012.39 3.84zM391.2 442.17a3.2 3.2 0 01-3.84 2.39l-14.27-3.31a3.19 3.19 0 01-2.39-3.83l3.3-14.27a3.21 3.21 0 013.84-2.4l14.27 3.32a3.18 3.18 0 012.39 3.83zM415.92 447.91a3.2 3.2 0 01-3.84 2.39l-14.27-3.3a3.2 3.2 0 01-2.39-3.84l3.31-14.27a3.2 3.2 0 013.84-2.39l14.27 3.31a3.2 3.2 0 012.39 3.84z"/><rect class="prefix__cls-15" x="421.22" y="433.54" width="21.04" height="21.04" rx="3.2" transform="rotate(-76.94 431.779 444.066)"/><path class="prefix__cls-15" d="M479.53 462.66a3.2 3.2 0 01-3.84 2.39L447 458.39a3.2 3.2 0 01-2.39-3.84l3.31-14.27a3.19 3.19 0 013.84-2.39l28.74 6.66a3.21 3.21 0 012.39 3.84zM453.29 482.62a3.21 3.21 0 002.39 3.84l14.32 3.31a3.19 3.19 0 003.83-2.39l3.31-14.27a3.2 3.2 0 00-2.39-3.84L460.44 466a3.2 3.2 0 00-3.84 2.39zM428.57 476.89a3.21 3.21 0 002.4 3.84l14.27 3.27a3.19 3.19 0 003.83-2.39l3.31-14.28a3.19 3.19 0 00-2.39-3.83l-14.27-3.31a3.2 3.2 0 00-3.84 2.39z"/><rect class="prefix__cls-15" x="405.54" y="455.95" width="21.04" height="21.04" rx="3.2" transform="rotate(-76.94 416.061 466.47)"/><path class="prefix__cls-15" d="M379.43 465.54a3.16 3.16 0 002.41 3.79l14.32 3.32a3.09 3.09 0 003.76-2.35l3.33-14.3a3.15 3.15 0 00-2.33-3.83l-14.33-3.32a3.2 3.2 0 00-3.84 2.39zM355 459.83a3.18 3.18 0 002.39 3.83l14.29 3.34a3.21 3.21 0 003.84-2.4l3.31-14.27a3.19 3.19 0 00-2.39-3.83l-14.27-3.31a3.2 3.2 0 00-3.84 2.39zM330.3 454.1a3.19 3.19 0 002.39 3.83l14.31 3.31a3.2 3.2 0 003.84-2.39l3.31-14.27a3.2 3.2 0 00-2.39-3.84l-14.27-3.31a3.2 3.2 0 00-3.84 2.39zM305.57 448.41a3.21 3.21 0 002.47 3.8l14.33 3.33a3 3 0 003.7-2.37l3.32-14.32a3.09 3.09 0 00-2.27-3.81l-14.32-3.32a3.26 3.26 0 00-3.91 2.37zM281.16 442.7a3.19 3.19 0 002.39 3.83l14.28 3.31a3.19 3.19 0 003.83-2.39l3.34-14.27a3.2 3.2 0 00-2.39-3.84l-14.3-3.34a3.21 3.21 0 00-3.84 2.4z"/><rect class="prefix__cls-15" x="257.83" y="421.68" width="21.04" height="21.04" rx="3.2" transform="rotate(-76.94 268.349 432.21)"/><rect class="prefix__cls-15" x="233.41" y="416.02" width="21.04" height="21.04" rx="3.2" transform="rotate(-76.94 243.95 426.547)"/><path class="prefix__cls-15" d="M207.31 425.57a3.19 3.19 0 002.39 3.83l14.3 3.31a3.2 3.2 0 003.84-2.39l3.31-14.27a3.21 3.21 0 00-2.4-3.84l-14.27-3.31a3.19 3.19 0 00-3.83 2.39z"/><rect class="prefix__cls-15" x="183.97" y="404.55" width="21.04" height="21.04" rx="3.2" transform="rotate(-76.94 194.5 415.075)"/><path class="prefix__cls-15" d="M158.17 414.17a3.18 3.18 0 002.39 3.83l14.27 3.31a3.2 3.2 0 003.84-2.39l3.33-14.27a3.18 3.18 0 00-2.39-3.83l-14.27-3.31a3.2 3.2 0 00-3.84 2.39zM119 405.08a3.18 3.18 0 002.39 3.83l28.74 6.67a3.2 3.2 0 003.84-2.39l3.31-14.27a3.2 3.2 0 00-2.39-3.84l-28.74-6.66a3.2 3.2 0 00-3.84 2.39zM431.88 503.71a3.2 3.2 0 002.4 3.83l29.94 6.95a3.2 3.2 0 003.84-2.39l3.31-14.27A3.2 3.2 0 00469 494l-30-6.94a3.2 3.2 0 00-3.84 2.39zM407.47 498a3.2 3.2 0 002.39 3.84l14.27 3.31a3.2 3.2 0 003.87-2.35l3.31-14.27a3.21 3.21 0 00-2.4-3.84l-14.27-3.31a3.19 3.19 0 00-3.83 2.39zM382.74 492.36a3.16 3.16 0 002.41 3.79l14.32 3.32a3.09 3.09 0 003.76-2.35l3.33-14.33a3.14 3.14 0 00-2.33-3.82l-14.33-3.32a3.2 3.2 0 00-3.84 2.39zM358.33 486.65a3.19 3.19 0 002.39 3.83l14.28 3.31a3.2 3.2 0 003.84-2.39l3.31-14.27a3.2 3.2 0 00-2.39-3.84L365.47 470a3.2 3.2 0 00-3.83 2.4zM333.61 480.91a3.2 3.2 0 002.39 3.84l14.27 3.31a3.2 3.2 0 003.84-2.39l3.31-14.27a3.2 3.2 0 00-2.39-3.84l-14.27-3.31a3.2 3.2 0 00-3.84 2.39zM308.88 475.23a3.21 3.21 0 002.47 3.8l14.33 3.32a3 3 0 003.7-2.36l3.32-14.33a3.09 3.09 0 00-2.27-3.81l-14.32-3.32a3.26 3.26 0 00-3.91 2.38zM284.47 469.52a3.19 3.19 0 002.39 3.83l14.28 3.31a3.19 3.19 0 003.83-2.39l3.31-14.27a3.2 3.2 0 00-2.39-3.84l-14.27-3.31a3.2 3.2 0 00-3.84 2.39z"/><rect class="prefix__cls-15" x="261.14" y="448.5" width="21.04" height="21.04" rx="3.2" transform="rotate(-76.94 271.658 459.025)"/><path class="prefix__cls-15" d="M235.34 458.12a3.19 3.19 0 002.39 3.83l14.27 3.31a3.18 3.18 0 003.83-2.39l3.31-14.27a3.2 3.2 0 00-2.39-3.84l-14.27-3.31a3.2 3.2 0 00-3.83 2.4zM210.62 452.38a3.2 3.2 0 002.39 3.84l14.27 3.31a3.2 3.2 0 003.84-2.39l3.31-14.27A3.21 3.21 0 00232 439l-14.27-3.31a3.19 3.19 0 00-3.83 2.39zM185.9 446.65a3.2 3.2 0 002.39 3.84l14.27 3.31a3.21 3.21 0 003.84-2.4l3.31-14.27a3.19 3.19 0 00-2.4-3.83L193 430a3.19 3.19 0 00-3.83 2.39zM161.48 441a3.19 3.19 0 002.39 3.83l14.27 3.31a3.2 3.2 0 003.84-2.39l3.31-14.27a3.2 3.2 0 00-2.39-3.84l-14.28-3.31a3.19 3.19 0 00-3.83 2.39zM113.25 429.8a3.19 3.19 0 002.39 3.83l37.78 8.77a3.2 3.2 0 003.84-2.39l3.31-14.27a3.2 3.2 0 00-2.39-3.84l-37.79-8.77a3.2 3.2 0 00-3.83 2.4zM410.78 524.86a3.2 3.2 0 002.39 3.84l45.32 10.51a3.2 3.2 0 003.84-2.39l3.3-14.27a3.2 3.2 0 00-2.39-3.84l-45.32-10.51a3.19 3.19 0 00-3.83 2.39zM386 519.18a3.17 3.17 0 002.42 3.79l14.32 3.32a3.09 3.09 0 003.76-2.36l3.33-14.32a3.14 3.14 0 00-2.33-3.82l-14.33-3.32a3.2 3.2 0 00-3.84 2.39zM361.64 513.46a3.2 3.2 0 002.36 3.84l14.27 3.31a3.2 3.2 0 003.84-2.39l3.34-14.22a3.2 3.2 0 00-2.39-3.84l-14.28-3.31a3.19 3.19 0 00-3.83 2.39zM336.92 507.73a3.2 3.2 0 002.39 3.84l14.27 3.31a3.21 3.21 0 003.84-2.4l3.31-14.27a3.19 3.19 0 00-2.39-3.83l-14.27-3.31a3.2 3.2 0 00-3.84 2.39zM312.19 502.05a3.21 3.21 0 002.47 3.8l14.34 3.32a3 3 0 003.7-2.37l3.3-14.32a3.09 3.09 0 00-2.27-3.81l-14.32-3.32a3.26 3.26 0 00-3.91 2.37zM287.78 496.33a3.2 3.2 0 002.39 3.84l14.27 3.31a3.2 3.2 0 003.84-2.39l3.31-14.27a3.2 3.2 0 00-2.39-3.82l-14.27-3.31a3.2 3.2 0 00-3.84 2.39z"/><rect class="prefix__cls-15" x="264.45" y="475.32" width="21.04" height="21.04" rx="3.2" transform="rotate(-76.94 274.962 485.835)"/><path class="prefix__cls-15" d="M238.65 484.93a3.2 3.2 0 002.39 3.84l14.27 3.31a3.18 3.18 0 003.83-2.39l3.31-14.27a3.2 3.2 0 00-2.39-3.84l-14.27-3.31a3.18 3.18 0 00-3.83 2.39z"/><rect class="prefix__cls-15" x="215.31" y="463.92" width="21.04" height="21.04" rx="3.2" transform="rotate(-76.94 225.837 474.446)"/><path class="prefix__cls-15" d="M189.21 473.47a3.19 3.19 0 002.39 3.83l14.27 3.31a3.2 3.2 0 003.84-2.39L213 464a3.21 3.21 0 00-2.4-3.84l-14.27-3.31a3.2 3.2 0 00-3.83 2.39z"/><rect class="prefix__cls-15" x="166.17" y="452.52" width="21.04" height="21.04" rx="3.2" transform="rotate(-76.94 176.692 463.042)"/><path class="prefix__cls-15" d="M107.51 454.52a3.19 3.19 0 002.39 3.83l46.83 10.86a3.2 3.2 0 003.84-2.39l3.31-14.27a3.18 3.18 0 00-2.39-3.83l-46.83-10.87a3.21 3.21 0 00-3.84 2.4z"/></g><path class="prefix__cls-11" d="M486 437.58a3.09 3.09 0 01-3.71 2.31l-15.68-3.63a3.1 3.1 0 01-2.31-3.72l1.53-6.63a3.1 3.1 0 013.72-2.31l15.67 3.63a3.1 3.1 0 012.32 3.72zM460.36 431.63a3.1 3.1 0 01-3.72 2.32L441 430.31a3.09 3.09 0 01-2.32-3.71l1.54-6.63a3.1 3.1 0 013.71-2.32l15.68 3.64a3.09 3.09 0 012.31 3.71zM434.73 425.69A3.09 3.09 0 01431 428l-15.68-3.63a3.1 3.1 0 01-2.31-3.72l1.54-6.63a3.08 3.08 0 013.71-2.31l15.74 3.63a3.1 3.1 0 012.31 3.72zM409.11 419.75a3.1 3.1 0 01-3.72 2.31l-15.67-3.63a3.1 3.1 0 01-2.32-3.72l1.54-6.63a3.1 3.1 0 013.72-2.31l15.67 3.63a3.1 3.1 0 012.32 3.71z"/><path class="prefix__cls-11" d="M370 396.83h6.81a3.09 3.09 0 013.09 3.09V416a3.09 3.09 0 01-3.09 3.09H370a3.09 3.09 0 01-3.1-3.09v-16.08a3.1 3.1 0 013.1-3.1z" transform="rotate(-76.94 373.419 407.97)"/><rect class="prefix__cls-11" x="341.28" y="390.89" width="13" height="22.28" rx="3.09" transform="rotate(-76.94 347.787 402.026)"/><path class="prefix__cls-11" d="M332.24 401.92a3.1 3.1 0 01-3.72 2.31l-15.67-3.64a3.09 3.09 0 01-2.32-3.71l1.54-6.63a3.1 3.1 0 013.72-2.32l15.67 3.64a3.1 3.1 0 012.32 3.71zM306.61 396a3.09 3.09 0 01-3.71 2.32l-15.68-3.64a3.09 3.09 0 01-2.31-3.71l1.54-6.63a3.09 3.09 0 013.71-2.32l15.68 3.64a3.08 3.08 0 012.31 3.71z"/><path class="prefix__cls-11" d="M267.5 373.05h6.81a3.09 3.09 0 013.09 3.09v16.09a3.09 3.09 0 01-3.09 3.09h-6.81a3.1 3.1 0 01-3.1-3.1v-16.07a3.09 3.09 0 013.09-3.09z" transform="rotate(-76.94 270.919 384.196)"/><path class="prefix__cls-11" d="M255.37 384.08a3.1 3.1 0 01-3.72 2.32L236 382.76a3.09 3.09 0 01-2.32-3.71l1.54-6.63a3.1 3.1 0 013.71-2.32l15.68 3.64a3.1 3.1 0 012.32 3.71z"/><rect class="prefix__cls-11" x="213.16" y="361.17" width="13" height="22.28" rx="3.09" transform="rotate(-76.94 219.672 372.312)"/><path class="prefix__cls-11" d="M204.12 372.2a3.09 3.09 0 01-3.71 2.31l-15.68-3.63a3.11 3.11 0 01-2.32-3.72l1.54-6.63a3.1 3.1 0 013.72-2.31l15.67 3.63a3.1 3.1 0 012.32 3.72zM178.5 366.25a3.1 3.1 0 01-3.72 2.32l-15.67-3.64a3.09 3.09 0 01-2.32-3.71l1.54-6.63a3.1 3.1 0 013.71-2.32l15.68 3.64a3.09 3.09 0 012.31 3.71zM152.87 360.31a3.09 3.09 0 01-3.71 2.32L133.48 359a3.09 3.09 0 01-2.31-3.71l1.54-6.64a3.08 3.08 0 013.71-2.31l15.67 3.66a3.1 3.1 0 012.32 3.72zM146 384.65a3.2 3.2 0 01-3.84 2.39l-14.27-3.31a3.19 3.19 0 01-2.39-3.83l3.31-14.28a3.19 3.19 0 013.83-2.39l14.27 3.31a3.21 3.21 0 012.4 3.84z"/><rect class="prefix__cls-11" x="151.56" y="370.35" width="21.04" height="21.04" rx="3.2" transform="rotate(-76.94 162.093 380.877)"/><rect class="prefix__cls-11" x="175.98" y="376.01" width="21.04" height="21.04" rx="3.2" transform="rotate(-76.94 186.51 386.542)"/><path class="prefix__cls-11" d="M219.8 401.83a3.16 3.16 0 01-3.83 2.34l-14.33-3.32a3.1 3.1 0 01-2.34-3.77l3.32-14.32a3.15 3.15 0 013.78-2.41l14.32 3.32a3.21 3.21 0 012.4 3.84zM244.23 407.45a3.2 3.2 0 01-3.84 2.39l-14.27-3.31a3.2 3.2 0 01-2.39-3.84l3.27-14.27a3.2 3.2 0 013.84-2.39l14.27 3.31a3.19 3.19 0 012.39 3.83zM269 413.18a3.2 3.2 0 01-3.84 2.39l-14.27-3.31a3.19 3.19 0 01-2.39-3.83l3.31-14.28a3.2 3.2 0 013.84-2.39l14.27 3.31a3.2 3.2 0 012.39 3.84z"/><rect class="prefix__cls-11" x="274.55" y="398.88" width="21.04" height="21.04" rx="3.2" transform="rotate(-76.94 285.073 409.404)"/><path class="prefix__cls-11" d="M293.66 419a3.22 3.22 0 01-3.9 2.32L275.44 418a3 3 0 01-2.28-3.76l3.32-14.32a3.09 3.09 0 013.71-2.42l14.33 3.32a3.25 3.25 0 012.46 3.85z"/><rect class="prefix__cls-11" x="298.97" y="404.54" width="21.04" height="21.04" rx="3.2" transform="rotate(-76.94 309.5 415.069)"/><rect class="prefix__cls-11" x="323.69" y="410.28" width="21.04" height="21.04" rx="3.2" transform="rotate(-76.94 334.222 420.802)"/><path class="prefix__cls-11" d="M367.22 436a3.19 3.19 0 01-3.83 2.39l-14.27-3.31a3.21 3.21 0 01-2.4-3.84L350 417a3.2 3.2 0 013.84-2.39l14.27 3.31a3.19 3.19 0 012.39 3.83z"/><rect class="prefix__cls-11" x="372.83" y="421.67" width="21.04" height="21.04" rx="3.2" transform="rotate(-76.94 383.365 432.195)"/><rect class="prefix__cls-11" x="397.55" y="427.41" width="21.04" height="21.04" rx="3.2" transform="rotate(-76.94 408.075 437.93)"/><path class="prefix__cls-11" d="M441.08 453.11a3.2 3.2 0 01-3.84 2.39L423 452.19a3.2 3.2 0 01-2.39-3.84l3.31-14.27a3.2 3.2 0 013.84-2.39L442 435a3.2 3.2 0 012.39 3.84zM480.27 462.2a3.2 3.2 0 01-3.84 2.39l-28.74-6.67a3.19 3.19 0 01-2.39-3.83l3.31-14.27a3.2 3.2 0 013.84-2.4l28.74 6.67a3.2 3.2 0 012.39 3.84z"/><rect class="prefix__cls-11" x="455.42" y="466.88" width="21.04" height="21.04" rx="3.2" transform="rotate(-76.94 465.947 477.405)"/><rect class="prefix__cls-11" x="430.7" y="461.15" width="21.04" height="21.04" rx="3.2" transform="rotate(-76.94 441.237 471.67)"/><path class="prefix__cls-11" d="M404.9 470.76a3.2 3.2 0 002.39 3.84l14.27 3.31a3.2 3.2 0 003.84-2.39l3.31-14.27a3.2 3.2 0 00-2.39-3.84l-14.27-3.31a3.2 3.2 0 00-3.84 2.39zM380.17 465.08a3.16 3.16 0 002.41 3.79l14.32 3.32a3.1 3.1 0 003.77-2.35l3.33-14.33a3.14 3.14 0 00-2.33-3.82l-14.32-3.32a3.21 3.21 0 00-3.85 2.39zM355.76 459.37a3.19 3.19 0 002.39 3.83l14.27 3.31a3.2 3.2 0 003.84-2.39l3.31-14.27a3.2 3.2 0 00-2.39-3.84l-14.27-3.31a3.21 3.21 0 00-3.84 2.39zM331 453.63a3.2 3.2 0 002.39 3.84l14.28 3.31a3.19 3.19 0 003.83-2.39l3.31-14.27a3.2 3.2 0 00-2.39-3.84L338.19 437a3.2 3.2 0 00-3.84 2.39zM306.31 448a3.22 3.22 0 002.48 3.8l14.32 3.32a3 3 0 003.7-2.36l3.32-14.33a3.09 3.09 0 00-2.27-3.81l-14.32-3.32a3.26 3.26 0 00-3.91 2.38zM281.91 442.23a3.2 3.2 0 002.39 3.84l14.27 3.31a3.18 3.18 0 003.83-2.38l3.31-14.27a3.2 3.2 0 00-2.39-3.84l-14.27-3.31a3.19 3.19 0 00-3.83 2.39zM257.19 436.5a3.2 3.2 0 002.39 3.84l14.27 3.31a3.21 3.21 0 003.84-2.39L281 427a3.19 3.19 0 00-2.4-3.83l-14.27-3.31a3.19 3.19 0 00-3.83 2.39zM232.77 430.84a3.19 3.19 0 002.39 3.83l14.27 3.33a3.2 3.2 0 003.84-2.39l3.31-14.27a3.2 3.2 0 00-2.39-3.84l-14.28-3.31a3.21 3.21 0 00-3.83 2.4zM208.05 425.1a3.2 3.2 0 002.39 3.84l14.27 3.31a3.2 3.2 0 003.84-2.39l3.31-14.27a3.2 3.2 0 00-2.39-3.84l-14.27-3.31a3.2 3.2 0 00-3.84 2.39z"/><rect class="prefix__cls-11" x="184.71" y="404.09" width="21.04" height="21.04" rx="3.2" transform="rotate(-76.94 195.23 414.609)"/><path class="prefix__cls-11" d="M158.91 413.71a3.19 3.19 0 002.39 3.83l14.28 3.31a3.19 3.19 0 003.83-2.39l3.31-14.27a3.2 3.2 0 00-2.39-3.84L166.06 397a3.2 3.2 0 00-3.84 2.39zM119.72 404.62a3.19 3.19 0 002.39 3.83l28.75 6.67a3.19 3.19 0 003.83-2.39l3.31-14.28a3.19 3.19 0 00-2.39-3.83L126.87 388a3.2 3.2 0 00-3.84 2.39zM432.63 503.24a3.2 3.2 0 002.39 3.84L465 514a3.19 3.19 0 003.84-2.39l3.31-14.28a3.19 3.19 0 00-2.39-3.83l-30-6.95a3.19 3.19 0 00-3.83 2.39zM408.21 497.58a3.2 3.2 0 002.39 3.84l14.27 3.31a3.2 3.2 0 003.84-2.39l3.29-14.28a3.19 3.19 0 00-2.39-3.83l-14.27-3.31a3.2 3.2 0 00-3.84 2.39zM383.48 491.9a3.16 3.16 0 002.41 3.79l14.32 3.31a3.11 3.11 0 003.77-2.36l3.32-14.32a3.14 3.14 0 00-2.33-3.82l-14.32-3.32a3.21 3.21 0 00-3.85 2.39zM359.07 486.18a3.2 3.2 0 002.39 3.84l14.28 3.31a3.19 3.19 0 003.83-2.39l3.31-14.27a3.2 3.2 0 00-2.39-3.84l-14.27-3.31a3.2 3.2 0 00-3.84 2.39zM334.35 480.45a3.2 3.2 0 002.39 3.84L351 487.6a3.21 3.21 0 003.83-2.4l3.31-14.27a3.19 3.19 0 00-2.39-3.83l-14.27-3.31a3.2 3.2 0 00-3.84 2.39zM309.62 474.77a3.22 3.22 0 002.48 3.8l14.32 3.32a3 3 0 003.7-2.37l3.32-14.32a3.09 3.09 0 00-2.27-3.81l-14.32-3.32a3.26 3.26 0 00-3.91 2.37z"/><rect class="prefix__cls-11" x="286.6" y="453.77" width="21.04" height="21.04" rx="3.2" transform="rotate(-76.94 297.117 464.296)"/><path class="prefix__cls-11" d="M260.5 463.32a3.19 3.19 0 002.39 3.83l14.27 3.31a3.2 3.2 0 003.84-2.39l3.31-14.27a3.2 3.2 0 00-2.4-3.83l-14.27-3.32a3.2 3.2 0 00-3.83 2.4z"/><rect class="prefix__cls-11" x="237.46" y="442.37" width="21.04" height="21.04" rx="3.2" transform="rotate(-76.94 247.972 452.892)"/><path class="prefix__cls-11" d="M211.36 451.92a3.2 3.2 0 002.39 3.84l14.25 3.31a3.21 3.21 0 003.84-2.4l3.31-14.27a3.19 3.19 0 00-2.39-3.83l-14.27-3.31a3.2 3.2 0 00-3.84 2.39zM186.64 446.19A3.19 3.19 0 00189 450l14.27 3.31a3.2 3.2 0 003.84-2.39l3.31-14.27a3.2 3.2 0 00-2.39-3.84l-14.27-3.31a3.2 3.2 0 00-3.84 2.39zM162.22 440.52a3.2 3.2 0 002.39 3.84l14.27 3.31a3.2 3.2 0 003.84-2.39L186 431a3.2 3.2 0 00-2.39-3.84l-14.27-3.31a3.2 3.2 0 00-3.84 2.39zM114 429.33a3.2 3.2 0 002.39 3.84l37.79 8.77a3.2 3.2 0 003.83-2.4l3.31-14.27a3.18 3.18 0 00-2.39-3.83l-37.79-8.77a3.19 3.19 0 00-3.83 2.39zM411.52 524.4a3.18 3.18 0 002.39 3.83l45.32 10.52a3.2 3.2 0 003.84-2.39l3.31-14.28a3.19 3.19 0 00-2.39-3.83l-45.33-10.52a3.21 3.21 0 00-3.83 2.4zM386.79 518.72a3.15 3.15 0 002.41 3.78l14.32 3.33a3.12 3.12 0 003.77-2.36l3.32-14.32a3.14 3.14 0 00-2.33-3.82L394 502a3.21 3.21 0 00-3.85 2.39z"/><rect class="prefix__cls-11" x="363.76" y="497.72" width="21.04" height="21.04" rx="3.2" transform="rotate(-76.94 374.31 508.253)"/><rect class="prefix__cls-11" x="339.05" y="491.99" width="21.04" height="21.04" rx="3.2" transform="rotate(-76.94 349.575 502.51)"/><path class="prefix__cls-11" d="M312.93 501.58a3.23 3.23 0 002.48 3.81l14.32 3.32a3 3 0 003.7-2.37l3.32-14.34a3.09 3.09 0 00-2.27-3.81l-14.32-3.32a3.26 3.26 0 00-3.91 2.37zM288.53 495.87a3.18 3.18 0 002.39 3.83l14.27 3.3a3.2 3.2 0 003.83-2.4l3.31-14.27a3.19 3.19 0 00-2.39-3.83l-14.27-3.31a3.18 3.18 0 00-3.83 2.39zM263.81 490.14a3.19 3.19 0 002.39 3.86l14.27 3.31a3.18 3.18 0 003.83-2.39l3.31-14.27a3.2 3.2 0 00-2.39-3.84L271 473.47a3.19 3.19 0 00-3.83 2.39zM239.39 484.47a3.2 3.2 0 002.39 3.84l14.27 3.31a3.2 3.2 0 003.84-2.39L263.2 475a3.19 3.19 0 00-2.39-3.83l-14.28-3.31a3.19 3.19 0 00-3.83 2.39zM214.67 478.74a3.19 3.19 0 002.39 3.83l14.27 3.31a3.2 3.2 0 003.84-2.39l3.31-14.27a3.2 3.2 0 00-2.39-3.84l-14.27-3.31a3.21 3.21 0 00-3.84 2.4zM190 473a3.2 3.2 0 002.39 3.84l14.27 3.31a3.2 3.2 0 003.84-2.39l3.31-14.27a3.2 3.2 0 00-2.39-3.84l-14.27-3.31a3.2 3.2 0 00-3.84 2.39zM165.53 467.34a3.2 3.2 0 002.39 3.84l14.27 3.31a3.21 3.21 0 003.84-2.4l3.31-14.27A3.19 3.19 0 00187 454l-14.27-3.31a3.2 3.2 0 00-3.84 2.39zM108.26 454.05a3.2 3.2 0 002.39 3.84l46.83 10.86a3.19 3.19 0 003.83-2.39l3.31-14.27a3.2 3.2 0 00-2.39-3.84l-46.83-10.86a3.18 3.18 0 00-3.83 2.39z"/><text class="prefix__cls-16" transform="matrix(.97 .23 -.23 .97 138.27 355.61)">esc</text><path class="prefix__cls-17" d="M169.59 360.7a1.21 1.21 0 11-.9-1.45 1.21 1.21 0 01.9 1.45zM168.9 358.31l.14-.6M167.78 363.13l.14-.6M170.52 360.91l.61.14M165.7 359.79l.6.14M169.56 362.26l.33.52M166.94 358.06l.33.52M166.57 361.57l-.52.32M170.78 358.95l-.53.32M195.22 366.64a1.21 1.21 0 11-2.35-.54 1.21 1.21 0 012.35.54zM194.53 364.25l.28-1.2M193.27 369.68l.28-1.21M196.15 366.85l1.2.28M190.72 365.59l1.21.28M195.18 368.2l.66 1.05M192.24 363.48l.65 1.05M192.2 367.51l-1.05.66M196.93 364.56l-1.05.66"/><path class="prefix__cls-17" transform="rotate(-76.94 217.699 371.217)" d="M216.76 369.36h1.86v3.71h-1.86z"/><path class="prefix__cls-17" transform="rotate(-76.92 222.439 372)" d="M220.58 370.91h3.71v2.17h-3.71z"/><path class="prefix__cls-17" transform="rotate(-76.95 218.12 374.172)" d="M217.5 372.78h1.24v2.78h-1.24z"/><path class="prefix__cls-17" transform="rotate(-76.92 242.579 376.19)" d="M241.5 375.27h2.17v1.86h-2.17z"/><path class="prefix__cls-17" transform="rotate(-76.95 245.611 376.896)" d="M244.52 375.97h2.17v1.86h-2.17z"/><path class="prefix__cls-17" transform="rotate(-76.93 248.585 377.581)" d="M247.53 376.67h2.17v1.86h-2.17z"/><path class="prefix__cls-17" transform="rotate(-76.92 247.933 380.618)" d="M246.83 379.68H249v1.86h-2.17z"/><path class="prefix__cls-17" transform="rotate(-76.95 244.885 379.901)" d="M243.82 378.98h2.17v1.86h-2.17z"/><path class="prefix__cls-17" transform="rotate(-76.95 241.877 379.205)" d="M240.8 378.28h2.17v1.86h-2.17z"/><path class="prefix__cls-18" d="M322.62 394.25l-2.96 1.46 2.01 2.22.95-3.68z"/><path class="prefix__cls-18" d="M325.03 394.81l-2.96 1.46 2.01 2.22.95-3.68zM372.93 409.82l2.97-1.45-2.02-2.23-.95 3.68z"/><path class="prefix__cls-18" d="M370.52 409.26l2.96-1.45-2.01-2.23-.95 3.68zM344.89 403.32l2.97-1.46-2.01-2.22-.96 3.68z"/><path class="prefix__cls-18" transform="rotate(-76.95 348.26 402.138)" d="M346.37 401.67h3.71v.93h-3.71z"/><path class="prefix__cls-18" transform="rotate(-76.93 349.718 402.479)" d="M347.88 402.02h3.71v.93h-3.71z"/><text class="prefix__cls-19" transform="matrix(.97 .23 -.23 .97 136.08 373.21)">#<tspan x="-.75" y="7.43">@</tspan></text><text class="prefix__cls-19" transform="matrix(.97 .23 -.23 .97 160.73 378.93)">1<tspan class="prefix__cls-20"><tspan x="-.42" y="7.43">&amp;</tspan></tspan></text><text class="prefix__cls-19" transform="matrix(.97 .23 -.23 .97 185.13 384.59)">2<tspan class="prefix__cls-20"><tspan x=".14" y="7.43">é</tspan></tspan></text><text class="prefix__cls-19" transform="matrix(.97 .23 -.23 .97 209.98 390.35)">3<tspan x=".58" y="7.43">“</tspan></text><text class="prefix__cls-19" transform="matrix(.97 .23 -.23 .97 234.38 396.01)">4<tspan x="1.1" y="7.43">‘</tspan></text><text class="prefix__cls-19" transform="matrix(.97 .23 -.23 .97 259.05 401.74)">5<tspan class="prefix__cls-20"><tspan x=".87" y="7.43">(</tspan></tspan></text><text class="prefix__cls-19" transform="matrix(.97 .23 -.23 .97 283.77 407.47)">6<tspan class="prefix__cls-20"><tspan x=".23" y="7.43">§</tspan></tspan></text><text class="prefix__cls-19" transform="matrix(.97 .23 -.23 .97 308.19 413.13)">7<tspan class="prefix__cls-20"><tspan x=".14" y="7.43">è</tspan></tspan></text><path class="prefix__cls-21" d="M122.53 403.47l7.24 1.67M131.07 402.27l-1.4 6.03M127.93 401.78l1.96 3.15M126.71 407.05l3.15-1.96"/><text class="prefix__cls-19" transform="matrix(.97 .23 -.23 .97 168.23 410.53)">A</text><text class="prefix__cls-16" transform="matrix(.97 .23 -.23 .97 192.93 416.26)">Z</text><text class="prefix__cls-16" transform="matrix(.97 .23 -.23 .97 217.86 422.04)">E</text><path class="prefix__cls-18" d="M120.9 416.09a.67.67 0 01-.8.5.67.67 0 11.3-1.31.66.66 0 01.5.81z"/><path class="prefix__cls-17" d="M122.01 424.86l-1.5-.35-.55 2.35-2.11-.49.55-2.35-1.51-.34 3.23-2.28 1.89 3.46z"/><path class="prefix__cls-22" d="M463.46 275.88a64.91 64.91 0 00-42.33-50.43q-2.79-1-5.61-1.71a51.64 51.64 0 00-5-2.05 53.76 53.76 0 00-63.92 22.71 53.73 53.73 0 00-11.92 19.29 54.29 54.29 0 00-3 14.1A22.79 22.79 0 01342.45 295a22.81 22.81 0 0114.68 31.82 22.83 22.83 0 019.45 20.18 54.7 54.7 0 008.52 2.19 54.55 54.55 0 008.46 3.85 53.76 53.76 0 0062.33-20.25 53.75 53.75 0 0017.57-56.9z"/><path d="M459.66 279.61a64.94 64.94 0 00-42.33-50.44c-1.86-.66-4.25.25-6.13-.23a52.21 52.21 0 00-5.06-1.8c-24.43-8.68-44.95 1.58-57.89 22.91-5.15 5.35-14.68 9.93-17.33 17.37a54.2 54.2 0 00-3 14.1 22.79 22.79 0 0110.7 17.17 22.81 22.81 0 0114.68 31.82 22.79 22.79 0 017.1 8.32c1.91 3.82 4.41 6.41 4.11 10.38 2.82 1 3.91 3.21 6.76 3.7 2.66 1.5 5.52-1 8.5.06 23.47 8.34 46.81.26 60.25-19.38 7.38-6 15.3-11.14 18.72-20.76a53.51 53.51 0 00.92-33.22z" opacity=".15" fill="#403f41"/><path class="prefix__cls-22" d="M460 277.13a64.93 64.93 0 00-42.33-50.43c-1.86-.66-4.25.25-6.13-.24-1.61-.75-3.35-1.19-5.06-1.8-24.48-8.66-44.98 1.59-57.92 22.92-5.15 5.34-14.68 9.92-17.33 17.37a54.13 54.13 0 00-3 14.09A22.79 22.79 0 01339 296.21 22.81 22.81 0 01353.64 328a22.83 22.83 0 017.1 8.33c1.91 3.82 4.41 6.41 4.11 10.38 2.82 1 3.91 3.2 6.76 3.69 2.66 1.5 5.52-1 8.49.06 23.48 8.34 46.82.26 60.26-19.37 7.38-6 15.3-11.14 18.72-20.76a53.55 53.55 0 00.92-33.2z"/><path d="M463.46 275.88a64.91 64.91 0 00-42.33-50.43c-1.86-.66-4.25.24-6.13-.24-1.61-.76-3.35-1.19-5.06-1.8-24.43-8.68-44.95 1.58-57.89 22.92-5.15 5.34-14.68 9.92-17.33 17.36a54.29 54.29 0 00-3 14.1A22.79 22.79 0 01342.45 295a22.81 22.81 0 0114.68 31.82 22.74 22.74 0 017.1 8.33c1.91 3.81 4.41 6.4 4.11 10.37 2.82 1 3.91 3.21 6.76 3.7 2.66 1.5 5.52-1 8.5.06 23.47 8.34 46.81.26 60.25-19.37 7.38-6 15.3-11.14 18.72-20.76a53.55 53.55 0 00.89-33.27z" fill="#ddc9a5"/><ellipse class="prefix__cls-25" cx="419.45" cy="255.06" rx="12.23" ry="9.35"/><path class="prefix__cls-25" d="M423 259.41c0 4.8-5.44 8.69-12.15 8.69s-12.16-3.89-12.16-8.69 5.45-8.69 12.16-8.69 12.15 3.89 12.15 8.69z"/><path class="prefix__cls-25" d="M425.9 250.32a9.34 9.34 0 11-9.34-9.08 9.22 9.22 0 019.34 9.08zM436.42 329.56c-3.82 3.48-10.6 2.25-15.15-2.74s-5.15-11.86-1.34-15.34 10.6-2.25 15.15 2.74 5.15 11.86 1.34 15.34z"/><path class="prefix__cls-25" d="M427.37 326.09c-3.55 3.23-10.09 1.83-14.61-3.13s-5.31-11.6-1.77-14.83 10.09-1.84 14.61 3.12 5.32 11.6 1.77 14.84z"/><path class="prefix__cls-25" d="M436 322.09a9.34 9.34 0 11.42-13 9.21 9.21 0 01-.42 13zM394.55 281.9c0 4.56-4.7 8.26-10.49 8.26s-10.5-3.7-10.5-8.26 4.7-8.27 10.5-8.27 10.49 3.7 10.49 8.27zM376.91 251.57c0 4.56-4.7 8.26-10.49 8.26s-10.5-3.7-10.5-8.26 4.7-8.27 10.5-8.27 10.49 3.7 10.49 8.27zM464.18 284.68c0 4.57-4.7 8.27-10.5 8.27s-10.49-3.7-10.49-8.27 4.7-8.26 10.49-8.26 10.5 3.7 10.5 8.26z"/><path class="prefix__cls-25" d="M389.28 290.06c0 4.56-4.69 8.26-10.49 8.26s-10.49-3.7-10.49-8.26 4.7-8.27 10.49-8.27 10.49 3.7 10.49 8.27z"/><path class="prefix__cls-26" d="M390.57 237.3c1.65 2.58 3.16 6.31.29 7.37s-4.46-.31-7.45 1.1-4.53-6-2.32-6.33 7.91-4.65 9.48-2.14z"/><path class="prefix__cls-27" d="M408.55 311.94c-1.53 2.65-4.13 5.72-6.4 3.67s-1.8-4.09-4.44-6.09 3.2-6.78 4.54-5 7.75 4.84 6.3 7.42z"/><path class="prefix__cls-26" d="M427.4 272.75c.89 5.79-.67 5.4-6 7.66s-7.85 2.22-9.08-1.34-3.58-13.3 2.51-12.91 12.17 4.12 12.57 6.59z"/><path class="prefix__cls-27" d="M362.1 278.08c.89 5.78-.67 5.4-6 7.65s-7.89 2.27-9.1-1.33-3.58-13.3 2.51-12.92 12.21 4.13 12.59 6.6z"/><path class="prefix__cls-26" d="M369 301.43c-4.15-1.2-6.62 1-5.4 4.07s4.53 3 7.3 4.61 4.85.37 6.31-3.75-8.21-4.93-8.21-4.93zM419.41 335c1 3.31 3.61 8.54 7.37 5s11.12-9.09 6-12.24-11.47-3.95-11.79-1.88-2.48 6.21-1.58 9.12z"/><path class="prefix__cls-27" d="M404.51 351.46c3.46 0 9.21-1 6.86-5.65s-5.56-13.24-10-9.23-7 9.88-5.15 10.77 5.23 4.15 8.29 4.11z"/><path class="prefix__cls-26" d="M451.82 297.55c-3.5 2.83-2.51 9.4-.34 9.14s4.2 1 6-3-5.66-6.14-5.66-6.14z"/><path class="prefix__cls-27" d="M381.61 275.38c-3.5 2.83-2.51 9.4-.34 9.14s4.2 1 6-3-5.66-6.14-5.66-6.14zM443.09 262.88c-3.5 2.83-2.51 9.41-.34 9.14s4.2 1 6-3-5.66-6.14-5.66-6.14z"/><path class="prefix__cls-26" d="M368.37 331.37c-3.24.93-2.31 4.17 2.22 6.61s8-.48 10.48-2.1.48-3-3.43-4.88-9.27.37-9.27.37z"/><path class="prefix__cls-27" d="M429.65 295.57c-3.26-.83-4.09 2.43-1.42 6.83s7.15 3.63 10.1 3.49 1.93-2.36-.49-5.95-8.19-4.37-8.19-4.37zM416.9 239.92c-3.23-.95-4.18 2.28-1.65 6.76s7 3.89 10 3.84 2-2.29-.28-6-8.07-4.6-8.07-4.6z"/><path class="prefix__cls-28" d="M459.21 315.6a32.57 32.57 0 00-5.9-2.6 28.79 28.79 0 00-6.26-1.29 21 21 0 00-6.28.31l-1.53.33-1.48.51c-.24.09-.49.16-.73.26l-.7.34-1.41.68-.24.11h-.26a57.15 57.15 0 00-8.28-.18 41 41 0 00-8.14 1.16 18.92 18.92 0 00-7.18 3.4 10.54 10.54 0 00-2.49 2.92l-1 1.86c-.38.64-.77 1.27-1.2 1.87-3.52 4.76-8.38 7.9-12.87 11.22a47.74 47.74 0 00-6.39 5.36 10.78 10.78 0 00-3.3 7.4 8.6 8.6 0 01.56-4.19 14.06 14.06 0 012.19-3.69 40.33 40.33 0 016.16-5.89c2.19-1.79 4.43-3.48 6.52-5.31a32.64 32.64 0 005.61-6 20 20 0 001-1.71l.45-.89.51-1a12.42 12.42 0 012.92-3.48 19.49 19.49 0 017.95-3.79 48 48 0 0117.13-.72l-.5.09 1.55-.68.77-.33c.26-.1.54-.17.81-.26l1.61-.48 1.65-.29a21.8 21.8 0 016.65 0 28 28 0 016.33 1.8 27.27 27.27 0 015.77 3.16z"/><path class="prefix__cls-28" d="M405.39 324.73c-.81-1.45-1.7-2.85-2.62-4.23a42.69 42.69 0 00-3-3.93 23.31 23.31 0 00-3.44-3.44 10.73 10.73 0 00-4.06-2.18l-.44-.09-.13-.49a35.8 35.8 0 00-6.57-13.26 18.46 18.46 0 00-5.59-4.57 14.68 14.68 0 00-6.94-1.62 104.18 104.18 0 00-15.15 1.13 149.59 149.59 0 00-15 2.91 96.88 96.88 0 0114.8-4.21c2.52-.52 5.07-.89 7.63-1.22s5.14-.45 7.73-.51a16.52 16.52 0 017.85 1.75 19.4 19.4 0 016.19 5.1 29.65 29.65 0 014.1 6.73 35.79 35.79 0 012.47 7.45l-.56-.59a11.56 11.56 0 014.53 2.69 24.27 24.27 0 013.35 3.83 44.86 44.86 0 014.85 8.75zM402.9 223.53a75.55 75.55 0 014.22 8.08 95.42 95.42 0 017.66 26.31l-.78-.83a55.84 55.84 0 0114.66 5.31 27 27 0 016.4 4.68 15.46 15.46 0 012.45 3.26c.68 1.26 1.05 2.41 1.61 3.54a54.8 54.8 0 003.71 6.58 50.23 50.23 0 013.94 6.69 12.9 12.9 0 01.89 7.76 25 25 0 01-2.73 7.21 27.94 27.94 0 002.11-7.3 12.5 12.5 0 00-1.29-7.2 57.3 57.3 0 00-4.14-6.34 49.77 49.77 0 01-4.05-6.65c-.6-1.15-1.07-2.43-1.63-3.4a13.6 13.6 0 00-2.21-2.83 27 27 0 00-6-4.29 50.34 50.34 0 00-6.89-3 62.09 62.09 0 00-7.23-2.11l-.67-.15-.1-.68c-.42-3-.86-5.94-1.51-8.87s-1.36-5.87-2.2-8.76-1.78-5.76-2.81-8.6-2.15-5.65-3.41-8.41zM337.31 259.2c1.73-.46 3.49-.83 5.25-1.17s3.52-.66 5.3-.9a98.68 98.68 0 0110.74-.93 60.72 60.72 0 0110.84.61 25.32 25.32 0 0110.42 3.7h-1c2.21-1.22 4.46-2.3 6.73-3.38s4.59-2 6.92-3a56.27 56.27 0 017.2-2.28 22.47 22.47 0 013.75-.56 8.05 8.05 0 011.9.09 3.36 3.36 0 011.7.8 4.93 4.93 0 00-3.56-.45 23.36 23.36 0 00-3.57.91c-2.33.81-4.63 1.74-6.88 2.78s-4.48 2.13-6.69 3.24-4.4 2.31-6.56 3.5l-.52.28-.5-.33a25.09 25.09 0 00-9.63-3.37 69.43 69.43 0 00-10.52-.83c-3.54-.05-7.09.09-10.64.31s-7.12.56-10.68.98z"/><g opacity=".15"><path class="prefix__cls-15" d="M333.19 306.52a1.1 1.1 0 10-2.12-.15 1 1 0 00-.31.45 1.7 1.7 0 003.05 1.08 1.09 1.09 0 00-.62-1.38zM325 298.91a1.11 1.11 0 00-.54 0 1 1 0 00-.44-.31 1.11 1.11 0 00-.54 0 1.25 1.25 0 00-.44-.31 1.11 1.11 0 00-1.39.63 1.09 1.09 0 00-.73 2.05 2.22 2.22 0 104.44-.13 1 1 0 00.31-.45 1.1 1.1 0 00-.67-1.48zM338.18 314.93a1.1 1.1 0 10.67 1.4 1.1 1.1 0 00-.67-1.4z"/></g><path class="prefix__cls-22" d="M333.14 306.93a1.1 1.1 0 11-.67-1.4 1.1 1.1 0 01.67 1.4z"/><path class="prefix__cls-22" d="M333.49 306a1.09 1.09 0 01-1.4.66 1.1 1.1 0 01-.67-1.4 1.09 1.09 0 011.4-.66 1.1 1.1 0 01.67 1.4z"/><path class="prefix__cls-22" d="M334.12 307.28a1.1 1.1 0 11-.66-1.4 1.09 1.09 0 01.66 1.4zM325.67 300.68a1.09 1.09 0 01-1.4.66 1.1 1.1 0 01-.67-1.4 1.09 1.09 0 011.4-.66 1.1 1.1 0 01.67 1.4z"/><path class="prefix__cls-22" d="M326 299.69a1.1 1.1 0 11-.67-1.4 1.1 1.1 0 01.67 1.4z"/><path class="prefix__cls-22" d="M325 299.34a1.09 1.09 0 11-.66-1.4 1.09 1.09 0 01.66 1.4z"/><path class="prefix__cls-22" d="M323.7 300a1.1 1.1 0 11-.66-1.4 1.1 1.1 0 01.66 1.4z"/><path class="prefix__cls-22" d="M324.05 299a1.09 1.09 0 01-1.4.66 1.1 1.1 0 111.4-.66z"/><path class="prefix__cls-22" d="M322.72 299.63a1.1 1.1 0 11-.67-1.4 1.1 1.1 0 01.67 1.4z"/><path class="prefix__cls-22" d="M323.35 301a1.1 1.1 0 11-.66-1.4 1.09 1.09 0 01.66 1.4z"/><path class="prefix__cls-22" d="M324.34 301.31a1.11 1.11 0 01-1.41.67 1.1 1.1 0 111.41-.67zM339.16 315.71a1.1 1.1 0 11-.67-1.4 1.1 1.1 0 01.67 1.4z"/><path class="prefix__cls-22" d="M338.17 315.36a1.09 1.09 0 11-.66-1.4 1.09 1.09 0 01.66 1.4z"/><path class="prefix__cls-22" d="M338.35 314.87a1.1 1.1 0 11-.67-1.4 1.1 1.1 0 01.67 1.4z"/><path class="prefix__cls-25" d="M357.87 268.1a3.09 3.09 0 012-1.63 3.48 3.48 0 012.53.28 3.31 3.31 0 011.72 2.19 2.63 2.63 0 01-.76 2.53 11.75 11.75 0 00-1.93-.9 5.78 5.78 0 01-.9-.28 7.47 7.47 0 01-1-.7c-.42-.35-.93-.79-1.66-1.49zM352.17 263.93a3.06 3.06 0 011-2.34 3.5 3.5 0 012.39-.89 3.34 3.34 0 012.52 1.18 2.64 2.64 0 01.46 2.61 11.35 11.35 0 00-2.12.06 5.52 5.52 0 01-.94.15 6.74 6.74 0 01-1.18-.19c-.51-.12-1.16-.28-2.13-.58zM364.62 265.9a3.1 3.1 0 011.77-1.84 3.45 3.45 0 012.55 0 3.32 3.32 0 012 2 2.64 2.64 0 01-.47 2.61 10.82 10.82 0 00-2-.67 5.46 5.46 0 01-.93-.18 7 7 0 01-1-.59c-.54-.34-1.11-.71-1.92-1.33zM355.21 298.92a3.09 3.09 0 01.24-2.55 3.5 3.5 0 012-1.59 3.34 3.34 0 012.76.33 2.6 2.6 0 011.26 2.33 10.47 10.47 0 00-2 .73 4.79 4.79 0 01-.84.43 6.4 6.4 0 01-1.18.19c-.56.06-1.22.11-2.24.13zM369 299.38a3.08 3.08 0 011.48-2.09 3.5 3.5 0 012.51-.4 3.31 3.31 0 012.23 1.65 2.62 2.62 0 01-.06 2.65 10 10 0 00-2.09-.35 6.29 6.29 0 01-.95 0 7.33 7.33 0 01-1.11-.42c-.56-.27-1.16-.55-2.01-1.04zM369 319.19a3.08 3.08 0 01.54-2.5 3.46 3.46 0 012.17-1.34 3.28 3.28 0 012.7.66 2.64 2.64 0 011 2.46 11.26 11.26 0 00-2.07.48 4.63 4.63 0 01-.89.33 6.51 6.51 0 01-1.19.05c-.61-.01-1.26-.04-2.26-.14zM378.79 316.2a3.12 3.12 0 012.35-1 3.52 3.52 0 012.35 1 3.31 3.31 0 011 2.58 2.62 2.62 0 01-1.39 2.22 10.24 10.24 0 00-1.6-1.39 5.58 5.58 0 01-.79-.53 6.92 6.92 0 01-.73-.94c-.31-.5-.68-1.06-1.19-1.94zM373.43 322.92a3.1 3.1 0 01.6-2.49 3.41 3.41 0 012.18-1.29 3.32 3.32 0 012.69.7 2.64 2.64 0 01.92 2.49 10.8 10.8 0 00-2.08.44 5.65 5.65 0 01-.89.31 6.2 6.2 0 01-1.19 0c-.55 0-1.22-.08-2.23-.16z"/><path fill="none" d="M92.42 78.28h633.77v475.33H92.42z"/></svg>