<svg xmlns="http://www.w3.org/2000/svg" id="Calque_1" x="0" y="0" version="1.1" viewBox="0 0 580 600" xml:space="preserve"><style>.st0{fill:#d3bc98}.st3{fill:#e4d0b2}.st4{fill:#5a3713}.st5{fill:#e9e0cb}.st6{fill:#c0a784}.st8{fill:#403f41}.st12{fill:#fff}.st13{fill:#bbb}.st14{font-family:&apos;ArialMT&apos;}.st15{font-size:7.3799px}.st16{fill:none;stroke:#bbb;stroke-miterlimit:10}.st18,.st19{stroke-width:1}.st18{fill:none;stroke:#bbb;stroke-miterlimit:10.0004}.st19{stroke-miterlimit:10.0005}.st19,.st20,.st22{fill:none;stroke:#bbb}.st20{stroke-width:1;stroke-miterlimit:9.9996}.st22{stroke-linecap:round;stroke-miterlimit:10}</style><path d="M437.1 295.8a64.82 64.82 0 00-47.9-52.1c-1.6-.8-3.3-1.5-5-2-24-8.5-50.7 1-63.9 22.7-5.3 5.5-9.4 12.1-11.9 19.3-1.6 4.5-2.6 9.3-3 14.1 6.1 3.7 10.1 10.1 10.8 17.2a22.75 22.75 0 0116.1 27.9c-.4 1.3-.8 2.6-1.4 3.9 6.4 4.6 10 12.3 9.4 20.2 2.8 1 5.6 1.7 8.5 2.2 2.7 1.5 5.5 2.8 8.5 3.9 23 8.2 48.5-.2 62.3-20.2a54.38 54.38 0 0017.5-57.1z" class="st0"/><path fill="#403f41" d="M433.3 299.5a64.67 64.67 0 00-42.3-50.4c-1.9-.7-4.2.2-6.1-.2-1.7-.7-3.3-1.3-5.1-1.8-24.4-8.7-45 1.6-57.9 22.9-5.1 5.4-14.7 9.9-17.3 17.4-1.6 4.5-2.6 9.3-3 14.1 6.1 3.7 10 10.1 10.7 17.2a22.75 22.75 0 0116.1 27.9c-.4 1.3-.8 2.6-1.4 3.9 3 2.2 5.4 5 7.1 8.3 1.9 3.8 4.4 6.4 4.1 10.4 2.8 1 3.9 3.2 6.8 3.7 2.7 1.5 5.5-1 8.5.1 23.5 8.3 46.8.3 60.2-19.4 7.4-6 15.3-11.1 18.7-20.8 3.8-10.8 4.1-22.4.9-33.3z" opacity=".15"/><path d="M433.6 297a64.82 64.82 0 00-42.3-50.4c-1.9-.7-4.2.2-6.1-.2-1.6-.8-3.4-1.2-5.1-1.8-24.5-8.7-45 1.6-57.9 22.9-5.1 5.3-14.7 9.9-17.3 17.4-1.6 4.5-2.6 9.3-3 14.1 6.1 3.7 10.1 10.1 10.8 17.2a22.75 22.75 0 0116 28c-.4 1.3-.8 2.6-1.4 3.8 3 2.2 5.4 5 7.1 8.3 1.9 3.8 4.4 6.4 4.1 10.4 2.8 1 3.9 3.2 6.8 3.7 2.7 1.5 5.5-1 8.5.1 23.5 8.3 46.8.3 60.3-19.4 7.4-6 15.3-11.1 18.7-20.8 3.7-10.8 4-22.4.8-33.3z" class="st0"/><path fill="#ddc9a5" d="M437.1 295.8a64.82 64.82 0 00-42.3-50.4c-1.9-.7-4.2.2-6.1-.2-1.6-.8-3.4-1.2-5.1-1.8-24.4-8.7-45 1.6-57.9 22.9-5.1 5.3-14.7 9.9-17.3 17.4-1.6 4.5-2.6 9.3-3 14.1 6.1 3.7 10 10.1 10.7 17.2a22.75 22.75 0 0116.1 27.9c-.4 1.3-.8 2.6-1.4 3.9 3 2.2 5.4 5 7.1 8.3 1.9 3.8 4.4 6.4 4.1 10.4 2.8 1 3.9 3.2 6.8 3.7 2.7 1.5 5.5-1 8.5.1 23.5 8.3 46.8.3 60.2-19.4 7.4-6 15.3-11.1 18.7-20.8 3.8-10.8 4.1-22.4.9-33.3z"/><ellipse cx="393.1" cy="275" class="st3" rx="12.2" ry="9.4"/><path d="M396.6 279.3c0 4.8-5.4 8.7-12.1 8.7s-12.2-3.9-12.2-8.7 5.5-8.7 12.2-8.7 12.1 3.9 12.1 8.7z" class="st3"/><path d="M399.5 270.2c.1 5.2-3.9 9.5-9.1 9.6s-9.5-3.9-9.6-9.1 3.9-9.5 9.1-9.6c.1 0 .2 0 .3 0 5 0 9.2 4 9.3 9.1zM410 349.5c-3.8 3.5-10.6 2.2-15.1-2.7s-5.1-11.9-1.3-15.3 10.6-2.2 15.1 2.7 5.1 11.8 1.3 15.3z" class="st3"/><path d="M401 346c-3.5 3.2-10.1 1.8-14.6-3.1s-5.3-11.6-1.8-14.8 10.1-1.8 14.6 3.1 5.3 11.6 1.8 14.8z" class="st3"/><path d="M409.6 342a9.33 9.33 0 11-13-13.4c3.7-3.6 9.6-3.5 13.2.2.1.1.1.1.2.2 3.5 3.7 3.3 9.5-.4 13zM368.1 301.8c0 4.6-4.7 8.3-10.5 8.3s-10.5-3.7-10.5-8.3 4.7-8.3 10.5-8.3 10.5 3.7 10.5 8.3zM350.5 271.5c0 4.6-4.7 8.3-10.5 8.3s-10.5-3.7-10.5-8.3c0-4.6 4.7-8.3 10.5-8.3s10.5 3.7 10.5 8.3zM437.8 304.6c0 4.6-4.7 8.3-10.5 8.3s-10.5-3.7-10.5-8.3 4.7-8.3 10.5-8.3 10.5 3.7 10.5 8.3z" class="st3"/><path d="M362.9 310c0 4.6-4.7 8.3-10.5 8.3s-10.5-3.7-10.5-8.3 4.7-8.3 10.5-8.3 10.5 3.7 10.5 8.3z" class="st3"/><path d="M364.2 257.2c1.6 2.6 3.2 6.3.3 7.4s-4.5-.3-7.5 1.1-4.5-6-2.3-6.3 7.9-4.7 9.5-2.2z" class="st4"/><path d="M382.1 331.8c-1.5 2.6-4.1 5.7-6.4 3.7s-1.8-4.1-4.4-6.1 3.2-6.8 4.5-5 7.8 4.9 6.3 7.4z" class="st5"/><path d="M401 292.7c.9 5.8-.7 5.4-6 7.7s-7.9 2.2-9.1-1.3-3.6-13.3 2.5-12.9 12.2 4 12.6 6.5z" class="st4"/><path d="M335.7 298c.9 5.8-.7 5.4-6 7.6s-7.9 2.3-9.1-1.3-3.6-13.3 2.5-12.9 12.2 4.1 12.6 6.6z" class="st5"/><path d="M342.6 321.3c-4.1-1.2-6.6 1-5.4 4.1s4.5 3 7.3 4.6 4.9.4 6.3-3.8-8.2-4.9-8.2-4.9zM393 354.9c1 3.3 3.6 8.5 7.4 5s11.1-9.1 6-12.2-11.5-4-11.8-1.9-2.5 6.2-1.6 9.1z" class="st4"/><path d="M378.1 371.4c3.5 0 9.2-1 6.9-5.6s-5.6-13.2-10-9.2-7 9.9-5.1 10.8 5.2 4 8.2 4z" class="st5"/><path d="M425.4 317.4c-3.5 2.8-2.5 9.4-.3 9.1s4.2 1 6-3-5.7-6.1-5.7-6.1z" class="st4"/><path d="M355.2 295.3c-3.5 2.8-2.5 9.4-.3 9.1s4.2 1 6-3-5.7-6.1-5.7-6.1zM416.7 282.8c-3.5 2.8-2.5 9.4-.3 9.1s4.2 1 6-3-5.7-6.1-5.7-6.1z" class="st5"/><path d="M342 351.3c-3.2.9-2.3 4.2 2.2 6.6s8-.5 10.5-2.1.5-3-3.4-4.9-9.3.4-9.3.4z" class="st4"/><path d="M403.2 315.5c-3.3-.8-4.1 2.4-1.4 6.8s7.1 3.6 10.1 3.5 1.9-2.4-.5-6-8.2-4.3-8.2-4.3zM390.5 259.8c-3.2-.9-4.2 2.3-1.6 6.8s7 3.9 10 3.8 2-2.3-.3-6-8.1-4.6-8.1-4.6z" class="st5"/><path d="M432.8 335.5c-1.9-1.1-3.9-1.9-5.9-2.6s-4.1-1.1-6.3-1.3c-2.1-.2-4.2-.1-6.3.3l-1.5.3-1.5.5c-.2.1-.5.2-.7.3l-.7.3-1.4.7-.2.1h-.3c-2.8-.3-5.5-.3-8.3-.2-2.7.1-5.5.5-8.1 1.2-2.6.6-5.1 1.8-7.2 3.4-1 .8-1.8 1.8-2.5 2.9l-1 1.9c-.4.6-.8 1.3-1.2 1.9-3.5 4.8-8.4 7.9-12.9 11.2-2.3 1.6-4.4 3.4-6.4 5.4-2 1.9-3.2 4.6-3.3 7.4-.2-1.4 0-2.9.6-4.2.5-1.3 1.3-2.6 2.2-3.7 1.8-2.2 3.9-4.1 6.2-5.9 2.2-1.8 4.4-3.5 6.5-5.3s4-3.8 5.6-6c.4-.6.7-1.1 1-1.7l.5-.9.5-1c.8-1.3 1.7-2.5 2.9-3.5 2.3-1.9 5-3.1 8-3.8 5.6-1.3 11.4-1.5 17.1-.7l-.5.1 1.5-.7.8-.3c.3-.1.5-.2.8-.3l1.6-.5 1.6-.3c2.2-.3 4.4-.3 6.6 0s4.3 1 6.3 1.8c2.2.9 4.1 1.9 5.9 3.2z" class="st6"/><path d="M379 344.6c-.8-1.5-1.7-2.9-2.6-4.2-.9-1.4-1.9-2.7-3-3.9-1-1.3-2.2-2.4-3.4-3.4-1.2-1-2.6-1.8-4.1-2.2l-.4-.1-.1-.5a36.1 36.1 0 00-6.6-13.3c-1.5-1.9-3.4-3.4-5.6-4.6-2.1-1.1-4.5-1.7-6.9-1.6-5.1 0-10.1.4-15.1 1.1s-10.1 1.7-15 2.9a95.87 95.87 0 0122.4-5.4c2.5-.3 5.1-.5 7.7-.5 2.7-.1 5.4.5 7.9 1.8 2.4 1.3 4.5 3 6.2 5.1s3 4.3 4.1 6.7c1.1 2.4 1.9 4.9 2.5 7.5l-.6-.6c1.7.5 3.2 1.5 4.5 2.7 1.2 1.2 2.4 2.4 3.4 3.8 1.8 2.7 3.4 5.6 4.7 8.7zM376.5 243.4c1.6 2.6 3 5.3 4.2 8.1 3.8 8.4 6.4 17.2 7.7 26.3l-.8-.8c5.1 1.1 10 2.9 14.7 5.3 2.4 1.2 4.5 2.8 6.4 4.7 1 1 1.8 2.1 2.5 3.3.7 1.3 1 2.4 1.6 3.5 1.1 2.3 2.3 4.5 3.7 6.6 1.5 2.1 2.8 4.4 3.9 6.7 1.1 2.4 1.4 5.1.9 7.8-.5 2.5-1.5 5-2.7 7.2 1-2.3 1.7-4.8 2.1-7.3.3-2.5-.2-5-1.3-7.2a52.3 52.3 0 00-4.1-6.3c-1.5-2.1-2.9-4.3-4-6.6-.6-1.1-1.1-2.4-1.6-3.4-.6-1-1.4-2-2.2-2.8-1.8-1.7-3.8-3.1-6-4.3-2.2-1.2-4.5-2.2-6.9-3s-4.8-1.6-7.2-2.1l-.7-.1-.1-.7c-.4-3-.9-5.9-1.5-8.9s-1.4-5.9-2.2-8.8c-.8-2.9-1.8-5.8-2.8-8.6-1.2-3-2.3-5.8-3.6-8.6zM310.9 279.1c1.7-.5 3.5-.8 5.2-1.2s3.5-.7 5.3-.9c3.6-.5 7.1-.8 10.7-.9s7.3.1 10.8.6c3.7.5 7.3 1.7 10.4 3.7h-1c2.2-1.2 4.5-2.3 6.7-3.4s4.6-2 6.9-3c2.3-.9 4.8-1.7 7.2-2.3 1.2-.3 2.5-.5 3.8-.6.6 0 1.3 0 1.9.1s1.2.4 1.7.8c-1.1-.6-2.4-.8-3.6-.4-1.2.2-2.4.5-3.6.9-2.3.8-4.6 1.7-6.9 2.8s-4.5 2.1-6.7 3.2-4.4 2.3-6.6 3.5l-.5.3-.5-.3a25.1 25.1 0 00-9.6-3.4c-3.5-.5-7-.8-10.5-.8s-7.1.1-10.6.3-6.9.6-10.5 1z" class="st6"/><g opacity=".15"><path d="M306.8 326.4c.2-.6-.1-1.2-.7-1.4s-1.2.1-1.4.7c-.1.2-.1.4 0 .6-.1.1-.3.3-.3.5 0 .9.7 1.7 1.7 1.7.5 0 1.1-.2 1.4-.7.1-.6-.2-1.2-.7-1.4zM298.6 318.8c-.2 0-.4 0-.5 0-.1-.1-.3-.2-.4-.3-.2 0-.4 0-.5 0-.1-.1-.3-.2-.4-.3-.6-.2-1.2.1-1.4.6-.6-.2-1.2.2-1.4.7-.2.5.1 1.1.6 1.3 0 1.2 1.1 2.2 2.3 2.2s2.2-1.1 2.2-2.3c.1-.1.3-.3.3-.5.1-.5-.1-1.1-.8-1.4.1 0 0 0 0 0zM311.8 334.8c-.6-.2-1.2.1-1.4.7-.2.6.1 1.2.7 1.4.6.2 1.2-.1 1.4-.7.2-.5-.1-1.2-.7-1.4z" class="st8"/></g><path d="M306.7 326.8c-.2.6-.8.9-1.4.7-.6-.2-.9-.8-.7-1.4.2-.6.8-.9 1.4-.7.6.2.9.9.7 1.4z" class="st0"/><path d="M307.1 325.9c-.2.6-.8.9-1.4.7-.6-.2-.9-.8-.7-1.4.2-.6.8-.9 1.4-.7.6.2.9.8.7 1.4z" class="st0"/><path d="M307.7 327.2c-.2.6-.8.9-1.4.7-.6-.2-.9-.8-.7-1.4.2-.6.8-.9 1.4-.7.6.2.9.8.7 1.4zM299.3 320.6c-.2.6-.8.9-1.4.7-.6-.2-.9-.8-.7-1.4.2-.6.8-.9 1.4-.7.6.2.9.8.7 1.4z" class="st0"/><path d="M299.6 319.6c-.2.6-.8.9-1.4.7-.6-.2-.9-.8-.7-1.4.2-.6.8-.9 1.4-.7.6.2.9.8.7 1.4z" class="st0"/><path d="M298.6 319.2c-.2.6-.8.9-1.4.7-.6-.2-.9-.8-.7-1.4.2-.6.8-.9 1.4-.7.6.2.9.9.7 1.4z" class="st0"/><path d="M297.3 319.9c-.2.6-.8.9-1.4.7-.6-.2-.9-.8-.7-1.4.2-.6.8-.9 1.4-.7.6.2.9.8.7 1.4z" class="st0"/><path d="M297.6 318.9c-.2.6-.8.9-1.4.7-.6-.2-.9-.8-.7-1.4.2-.6.8-.9 1.4-.7.7.2 1 .8.7 1.4.1 0 .1 0 0 0z" class="st0"/><path d="M296.3 319.5c-.2.6-.8.9-1.4.7-.6-.2-.9-.8-.7-1.4.2-.6.8-.9 1.4-.7.6.2.9.9.7 1.4z" class="st0"/><path d="M297 320.9c-.2.6-.8.9-1.4.7-.6-.2-.9-.8-.7-1.4.2-.6.8-.9 1.4-.7.6.2.9.8.7 1.4z" class="st0"/><path d="M297.9 321.2c-.2.6-.8.9-1.4.7-.6-.2-.9-.8-.7-1.4s.8-.9 1.4-.7c.6.2.9.8.7 1.4zM312.8 335.6c-.2.6-.8.9-1.4.7-.6-.2-.9-.8-.7-1.4.2-.6.8-.9 1.4-.7.6.2.9.8.7 1.4z" class="st0"/><path d="M311.8 335.3c-.2.6-.8.9-1.4.7-.6-.2-.9-.8-.7-1.4.2-.6.8-.9 1.4-.7.6.2.9.8.7 1.4z" class="st0"/><path d="M312 334.8c-.2.6-.8.9-1.4.7-.6-.2-.9-.8-.7-1.4.2-.6.8-.9 1.4-.7.6.2.9.8.7 1.4z" class="st0"/><path d="M331.5 288c.4-.8 1.1-1.4 2-1.6.8-.2 1.8-.1 2.5.3.9.4 1.5 1.2 1.7 2.2.2.9-.1 1.9-.8 2.5-.6-.4-1.3-.7-1.9-.9-.3-.1-.6-.2-.9-.3-.4-.2-.7-.4-1-.7-.4-.4-.9-.8-1.6-1.5zM325.8 283.8c0-.9.3-1.7 1-2.3.7-.6 1.5-.9 2.4-.9 1 0 1.9.4 2.5 1.2.6.7.8 1.7.5 2.6-.7 0-1.4 0-2.1.1-.3.1-.6.1-.9.1-.4 0-.8-.1-1.2-.2-.6-.1-1.3-.3-2.2-.6zM338.2 285.8c.3-.8.9-1.5 1.8-1.8.8-.3 1.7-.3 2.5 0 .9.3 1.7 1.1 2 2s.1 1.9-.5 2.6c-.6-.3-1.3-.5-2-.7-.3 0-.6-.1-.9-.2-.3-.2-.7-.4-1-.6-.5-.3-1.1-.7-1.9-1.3zM328.8 318.8c-.3-.8-.2-1.8.2-2.5a3.54 3.54 0 014.8-1.3c.8.5 1.3 1.4 1.3 2.3-.7.2-1.4.4-2 .7a3 3 0 01-.8.4c-.4.1-.8.2-1.2.2-.6.2-1.3.2-2.3.2zM342.6 319.3c.2-.9.7-1.6 1.5-2.1.8-.4 1.7-.6 2.5-.4.9.2 1.8.8 2.2 1.6.5.8.4 1.8-.1 2.6-.7-.2-1.4-.3-2.1-.4-.3 0-.6 0-1 0-.4-.1-.8-.3-1.1-.4-.4-.2-1-.4-1.9-.9zM342.6 339.1a3.12 3.12 0 012.7-3.8c1-.2 1.9.1 2.7.7.8.6 1.1 1.5 1 2.5-.7.1-1.4.3-2.1.5-.3.1-.6.3-.9.3-.4.1-.8.1-1.2 0-.6-.1-1.2-.1-2.2-.2zM352.4 336.1c.6-.7 1.5-1 2.4-1s1.7.4 2.4 1c.7.7 1.1 1.6 1 2.6 0 .9-.6 1.8-1.4 2.2-.5-.5-1-1-1.6-1.4-.3-.2-.5-.3-.8-.5-.3-.3-.5-.6-.7-.9-.4-.6-.8-1.1-1.3-2zM347 342.8c-.2-.9.1-1.8.6-2.5s1.3-1.2 2.2-1.3c1-.2 1.9.1 2.7.7.7.6 1.1 1.6.9 2.5-.7.1-1.4.2-2.1.4-.3.1-.6.2-.9.3-.4 0-.8 0-1.2 0-.5.1-1.2 0-2.2-.1z" class="st3"/><g><path fill="#313032" d="M28.4 314.8c2.2 5.7 8.6 8.6 14.3 6.4l397.9-151.7c5.7-2.2 8.6-8.6 6.4-14.3L392.8 13.1c-2.2-5.7-8.6-8.6-14.3-6.4L-19.4 158.4c-5.7 2.2-8.6 8.6-6.4 14.3l54.2 142.1z" opacity=".05"/><path fill="#ddd" d="M26.3 319.6c2.2 5.7 8.6 8.6 14.3 6.4l397.9-151.7c5.7-2.2 8.6-8.6 6.4-14.3L390.7 17.8c-2.2-5.7-8.6-8.6-14.3-6.4L-21.5 163.1c-5.7 2.2-8.6 8.6-6.4 14.3l54.2 142.2z"/><g opacity=".1"><path d="M30.3 308.5c-.7-1.9.2-4 2.1-4.8l18-6.9c1.9-.7 4 .2 4.8 2.1l2.9 7.6c.7 1.9-.2 4-2.1 4.8l-18 6.9c-1.9.7-4-.2-4.8-2.1l-2.9-7.6zM59.6 297.4c-.7-1.9.2-4 2.1-4.8l17.9-6.8c1.9-.7 4 .2 4.8 2.1l2.9 7.6c.7 1.9-.2 4-2.1 4.8l-18 6.9c-1.9.7-4-.2-4.8-2.1l-2.8-7.7zM89 286.2c-.7-1.9.2-4 2.1-4.8l18-6.9c1.9-.7 4 .2 4.8 2.1l2.9 7.6c.7 1.9-.2 4-2.1 4.8l-18 6.9c-1.9.7-4-.2-4.8-2.1l-2.9-7.6zM118.3 275c-.7-1.9.2-4 2.1-4.8l18-6.9c1.9-.7 4 .2 4.8 2.1l2.8 7.7c.7 1.9-.2 4-2.1 4.8l-17.9 6.8c-1.9.7-4-.2-4.8-2.1l-2.9-7.6zM147.6 263.9c-.7-1.9.2-4 2.1-4.8l18-6.9c1.9-.7 4 .2 4.8 2.1l2.9 7.6c.7 1.9-.2 4-2.1 4.8l-18 6.9c-1.9.7-4-.2-4.8-2.1l-2.9-7.6zM176.8 252.6c-.7-1.9.2-4 2.1-4.8l18-6.9c1.9-.7 4 .2 4.8 2.1l2.9 7.6c.7 1.9-.2 4-2.1 4.8l-18 6.9c-1.9.7-4-.2-4.8-2.1l-2.9-7.6zM206.2 241.4c-.7-1.9.2-4 2.1-4.8l18-6.9c1.9-.7 4 .2 4.8 2.1l2.9 7.6c.7 1.9-.2 4-2.1 4.8l-18 6.9c-1.9.7-4-.2-4.8-2.1l-2.9-7.6zM235.5 230.3c-.7-1.9.2-4 2.1-4.8l18-6.9c1.9-.7 4 .2 4.8 2.1l2.9 7.6c.7 1.9-.2 4-2.1 4.8l-18 6.9c-1.9.7-4-.2-4.8-2.1l-2.9-7.6zM264.8 219.1c-.7-1.9.2-4 2.1-4.8l18-6.9c1.9-.7 4 .2 4.8 2.1l2.9 7.6c.7 1.9-.2 4-2.1 4.8l-18 6.9c-1.9.7-4-.2-4.8-2.1l-2.9-7.6zM294.1 208c-.7-1.9.2-4 2.1-4.8l18-6.9c1.9-.7 4 .2 4.8 2.1l2.9 7.6c.7 1.9-.2 4-2.1 4.8l-18 6.9c-1.9.7-4-.2-4.8-2.1l-2.9-7.6zM323.4 196.8c-.7-1.9.2-4 2.1-4.8l18-6.9c1.9-.7 4 .2 4.8 2.1l2.9 7.6c.7 1.9-.2 4-2.1 4.8l-18 6.9c-1.9.7-4-.2-4.8-2.1l-2.9-7.6zM352.7 185.6c-.7-1.9.2-4 2.1-4.8l18-6.9c1.9-.7 4 .2 4.8 2.1l2.9 7.6c.7 1.9-.2 4-2.1 4.8l-18 6.9c-1.9.7-4-.2-4.8-2.1l-2.9-7.6zM382 174.5c-.7-1.9.2-4 2.1-4.8l18-6.9c1.9-.7 4 .2 4.8 2.1l2.9 7.6c.7 1.9-.2 4-2.1 4.8l-18 6.9c-1.9.7-4-.2-4.8-2.1l-2.9-7.6zM411.3 163.3c-.7-1.9.2-4 2.1-4.8l18-6.9c1.9-.7 4 .2 4.8 2.1l2.9 7.6c.7 1.9-.2 4-2.1 4.8l-18 6.9c-1.9.7-4-.2-4.8-2.1l-2.9-7.6zM402 134.5c-.8-1.9.2-4.2 2.2-4.9l16.4-6.2c1.9-.8 4.2.2 4.9 2.2l6.1 16.3c.8 1.9-.2 4.2-2.2 4.9L413 153c-1.9.8-4.2-.2-4.9-2.2l-6.1-16.3zM373.7 145.4c-.8-1.9.2-4.2 2.2-4.9l16.4-6.2c1.9-.8 4.2.2 4.9 2.2l6.3 16.3c.8 1.9-.2 4.2-2.2 4.9l-16.4 6.2c-1.9.8-4.2-.2-4.9-2.2l-6.3-16.3zM345.8 156c-.8-1.9.2-4.2 2.2-4.9l16.4-6.2c1.9-.8 4.2.2 4.9 2.2l6.2 16.4c.8 1.9-.2 4.2-2.2 4.9l-16.4 6.2c-1.9.8-4.2-.2-4.9-2.2l-6.2-16.4zM317.5 166.7c-.8-1.9.3-4.1 2.2-4.9l16.4-6.2c1.9-.8 4 .2 4.8 2.1l6.2 16.4c.8 1.9-.2 4.2-2.1 4.9l-16.4 6.2c-1.9.8-4.2-.2-4.9-2.2l-6.2-16.3zM289.6 177.4c-.8-1.9.2-4.2 2.2-4.9l16.4-6.2c1.9-.8 4.2.2 4.9 2.2l6.2 16.4c.8 1.9-.2 4.2-2.2 4.9l-16.4 6.2c-1.9.8-4.2-.2-4.9-2.2l-6.2-16.4zM261.3 188.2c-.8-1.9.2-4.2 2.2-4.9l16.3-6.3c1.9-.8 4.2.2 4.9 2.2l6.2 16.4c.8 1.9-.2 4.2-2.2 4.9l-16.3 6.3c-1.9.8-4.2-.2-4.9-2.2l-6.2-16.4zM233 199c-.8-1.9.3-4.2 2.3-4.9l16.4-6.2c1.9-.8 4 .2 4.8 2.2l6.2 16.4c.8 1.9-.1 4.1-2.1 4.9l-16.4 6.2c-1.9.8-4.2-.2-5-2.2L233 199zM205.1 209.7c-.8-1.9.2-4.2 2.2-4.9l16.4-6.2c1.9-.8 4.2.2 4.9 2.2l6.2 16.4c.8 1.9-.2 4.2-2.2 4.9l-16.4 6.2c-1.9.8-4.2-.2-4.9-2.2l-6.2-16.4zM176.8 220.4c-.8-1.9.2-4.2 2.2-4.9l16.4-6.2c1.9-.8 4.2.2 4.9 2.2l6.3 16.3c.8 1.9-.2 4.2-2.2 4.9L188 239c-1.9.8-4.2-.2-4.9-2.2l-6.3-16.4zM148.9 231c-.8-1.9.2-4.2 2.2-4.9l16.4-6.2c1.9-.8 4.2.2 4.9 2.2l6.2 16.4c.8 1.9-.2 4.2-2.2 4.9l-16.4 6.2c-1.9.8-4.2-.2-4.9-2.2l-6.2-16.4zM120.6 241.9c-.8-1.9.2-4.2 2.2-4.9l16.3-6.3c1.9-.8 4.2.2 4.9 2.2l6.3 16.3c.8 1.9-.2 4.2-2.2 4.9l-16.3 6.3c-1.9.8-4.2-.2-4.9-2.2l-6.3-16.3zM92.4 252.7c-.8-1.9.2-4.2 2.2-4.9l16.4-6.2c1.9-.8 4.2.2 4.9 2.2L122 260c.8 1.9-.2 4.2-2.2 4.9l-16.3 6.3c-1.9.8-4.2-.2-4.9-2.2l-6.2-16.3zM64.5 263.3c-.8-1.9.2-4.2 2.2-4.9l16.3-6.3c1.9-.8 4.2.2 4.9 2.2l6.2 16.4c.8 1.9-.2 4.2-2.2 4.9l-16.3 6.3c-1.9.8-4.2-.2-4.9-2.2l-6.2-16.4zM19.6 280.4c-.8-1.9.2-4.2 2.2-4.9l33-12.6c1.9-.8 4.2.2 4.9 2.2l6.2 16.4c.8 1.9-.2 4.2-2.2 4.9l-32.9 12.5c-1.9.8-4.2-.2-4.9-2.2l-6.3-16.3zM32.3 243.1c-.8-1.9-3-3-4.9-2.2l-16.3 6.3c-1.9.8-3 3-2.2 4.9l6.2 16.4c.8 1.9 3 3 4.9 2.2l16.3-6.3c1.9-.8 3-3 2.2-4.9l-6.2-16.4zM60.6 232.4c-.8-1.9-3-3-4.9-2.2l-16.4 6.2c-1.9.8-3 3-2.2 4.9l6.3 16.3c.7 2 2.9 2.9 4.9 2.2l16.4-6.2c1.9-.8 3-3 2.2-4.9l-6.3-16.3zM88.5 221.8c-.8-1.9-3-3-4.9-2.2l-16.4 6.2c-1.9.8-3 3-2.2 4.9l6.2 16.4c.8 1.9 3 3 4.9 2.2l16.4-6.2c1.9-.8 3-3 2.2-4.9l-6.2-16.4zM116.7 210.9c-.8-1.9-2.9-2.8-4.9-2.1L95.4 215c-1.9.8-2.9 2.9-2.1 4.8l6.2 16.4a3.9 3.9 0 004.9 2.2l16.4-6.2c1.9-.8 3-3 2.2-4.9l-6.3-16.4zM144.7 200.3c-.8-1.9-3-3-4.9-2.2l-16.4 6.2c-1.9.8-3 3-2.2 4.9l6.2 16.4c.8 1.9 3 3 4.9 2.2l16.4-6.2c1.9-.8 3-3 2.2-4.9l-6.2-16.4zM172.9 189.5c-.8-1.9-3-3-4.9-2.2l-16.4 6.2c-1.9.8-3 3-2.2 4.9l6.3 16.3c.8 1.9 3 3 4.9 2.2l16.4-6.2c1.9-.8 3-3 2.2-4.9l-6.3-16.3zM201.2 178.7c-.8-1.9-3-2.9-4.9-2.1l-16.4 6.2c-1.9.8-2.8 2.8-2.1 4.9l6.2 16.4c.8 1.9 2.8 3 4.8 2.2l16.4-6.2c1.9-.8 3-3 2.3-5l-6.3-16.4zM229.2 168.1c-.8-1.9-3-3-4.9-2.2l-16.4 6.2c-1.9.8-3 3-2.2 4.9l6.3 16.3c.8 1.9 3 3 4.9 2.2l16.4-6.2c1.9-.8 3-3 2.2-4.9l-6.3-16.3zM257.4 157.3c-.8-1.9-3-3-4.9-2.2l-16.4 6.2c-1.9.8-3 3-2.2 4.9l6.2 16.4c.8 1.9 3 3 4.9 2.2l16.4-6.2c1.9-.8 3-3 2.2-4.9l-6.2-16.4zM285.3 146.7c-.8-1.9-3-3-4.9-2.2l-16.4 6.2c-1.9.8-3 3-2.2 4.9L268 172c.8 1.9 3 3 4.9 2.2l16.4-6.2c1.9-.8 3-3 2.2-4.9l-6.2-16.4zM313.6 135.9c-.8-1.9-3-3-4.9-2.2l-16.3 6.3c-1.9.8-3 3-2.2 4.9l6.2 16.4c.8 1.9 3 3 4.9 2.2l16.4-6.2c1.9-.8 3-3 2.2-4.9l-6.3-16.5zM341.9 125.1c-.8-1.9-3-3-4.9-2.2l-16.4 6.2c-1.9.8-3 3-2.2 4.9l6.2 16.4c.8 1.9 3 3 4.9 2.2l16.4-6.2c1.9-.8 3-3 2.2-4.9l-6.2-16.4zM369.8 114.4c-.8-1.9-3-3-4.9-2.2l-16.4 6.2c-1.9.8-3 3-2.2 4.9l6.3 16.3c.8 1.9 3 3 4.9 2.2l16.4-6.2c1.9-.8 3-3 2.2-4.9l-6.3-16.3zM414.6 97.4c-.8-1.9-3-3-4.9-2.2l-32.8 12.5c-1.9.8-3 3-2.2 4.9l6.1 16.3c.8 1.9 3 3 4.9 2.2l32.8-12.5c1.9-.8 3-3 2.2-4.9l-6.1-16.3z" class="st8"/><g><path d="M39.4 208.1c-.8-1.9-3-3-4.9-2.2l-34.2 13c-1.9.8-3 3-2.2 4.9l6.2 16.4c.8 1.9 3 3 4.9 2.2l34.3-13.1c1.9-.8 3-3 2.2-4.9l-6.3-16.3zM67.3 197.4c-.8-1.9-3-3-4.9-2.2l-16.3 6.3c-1.9.8-3 3-2.2 4.9l6.2 16.2c.8 1.9 3 3 4.9 2.2l16.3-6.1c2-.7 3-3 2.3-5l-6.3-16.3zM95.6 186.6c-.8-1.9-2.9-2.8-4.9-2.1l-16.4 6.2c-1.9.8-2.9 2.9-2.1 4.8l6.3 16.4a3.9 3.9 0 004.9 2.2l16.4-6.2c1.9-.8 3-3 2.2-4.9l-6.4-16.4zM123.6 176c-.8-1.9-3-3-4.9-2.2l-16.4 6.2c-1.9.8-3 3-2.2 4.9l6.2 16.4c.8 1.9 3 3 4.9 2.2l16.4-6.2c1.9-.8 3-3 2.2-4.9l-6.2-16.4zM151.8 165.2c-.8-1.9-3-3-4.9-2.2l-16.4 6.2c-1.9.8-3 3-2.2 4.9l6.3 16.3c.8 1.9 3 3 4.9 2.2l16.4-6.2c1.9-.8 3-3 2.2-4.9l-6.3-16.3zM180.1 154.3c-.8-1.9-3-2.9-4.9-2.1l-16.4 6.2c-1.9.8-2.8 2.8-2.1 4.9l6.2 16.4c.8 1.9 2.8 3 4.8 2.2l16.4-6.2c1.9-.8 3-3 2.3-5l-6.3-16.4zM208 143.7c-.8-1.9-3-3-4.9-2.2l-16.3 6.3c-1.9.8-3 3-2.2 4.9l6.2 16.4c.8 1.9 3 3 4.9 2.2L212 165c1.9-.8 3-3 2.2-4.9l-6.2-16.4zM236.3 133c-.8-1.9-3-3-4.9-2.2L215 137c-1.9.8-3 3-2.2 4.9l6.2 16.4c.8 1.9 3 3 4.9 2.2l16.4-6.2c1.9-.8 3-3 2.2-4.9l-6.2-16.4zM264.2 122.4c-.8-1.9-3-3-4.9-2.2l-16.3 6.1c-1.9.8-3 3-2.2 4.9l6.2 16.4c.8 1.9 3 3 4.9 2.2l16.4-6.2c1.9-.8 3-3 2.2-4.9l-6.3-16.3zM292.5 111.6c-.8-1.9-3-3-4.9-2.2l-16.4 6.2c-1.9.8-3 3-2.2 4.9l6.2 16.4c.8 1.9 3 3 4.9 2.2l16.3-6.3c1.9-.8 3-3 2.2-4.9l-6.1-16.3zM320.7 100.8c-.8-1.9-3-3-4.9-2.2l-16.3 6.3c-1.9.8-3 3-2.2 4.9l6.2 16.4c.8 1.9 3 3 4.9 2.2l16.4-6.2c1.9-.8 3-3 2.2-4.9l-6.3-16.5zM348.7 90.1c-.8-1.9-3-3-4.9-2.2l-16.4 6.2c-1.9.8-3 3-2.2 4.9l6.2 16.4c.8 1.9 3 3 4.9 2.2l16.4-6.2c1.9-.8 3-3 2.2-4.9l-6.2-16.4zM403.8 69.1c-.8-1.9-3-3-4.9-2.2l-43.2 16.5c-1.9.8-3 3-2.2 4.9l6.3 16.3c.8 1.9 3 3 4.9 2.2l43.2-16.5c1.9-.8 3-3 2.2-4.9l-6.3-16.3z" class="st8"/></g><g><path d="M46.2 173.1c-.8-1.9-3-3-4.9-2.2l-51.9 19.8c-1.9.8-3 3-2.2 4.9l6.2 16.4c.8 1.9 3 3 4.9 2.2l51.9-19.8c1.9-.8 3-3 2.2-4.9l-6.2-16.4zM74.5 162.3c-.8-1.9-2.9-2.8-4.9-2.1l-16.3 6.1c-1.9.8-2.9 2.9-2.1 4.8l6.2 16.5a3.9 3.9 0 004.9 2.2l16.4-6.2c1.9-.8 3-3 2.2-4.9l-6.4-16.4zM102.4 151.6c-.8-1.9-3-3-4.9-2.2l-16.4 6.2c-1.9.8-3 3-2.2 4.9l6.2 16.4c.8 1.9 3 3 4.9 2.2l16.4-6.2c1.9-.8 3-3 2.2-4.9l-6.2-16.4zM130.7 140.8c-.8-1.9-3-3-4.9-2.2l-16.4 6.2c-1.9.8-3 3-2.2 4.9l6.2 16.4c.8 1.9 3 3 4.9 2.2l16.4-6.2c1.9-.8 3-3 2.2-4.9l-6.2-16.4zM158.9 130c-.8-1.9-3-2.9-4.9-2.1l-16.4 6.2c-1.9.8-2.8 2.8-2.1 4.9l6.2 16.4c.8 1.9 2.8 3 4.8 2.2l16.4-6.2c1.9-.8 3-3 2.3-5l-6.3-16.4zM186.9 119.4c-.8-1.9-3-3-4.9-2.2l-16.4 6.2c-1.9.8-3 3-2.2 4.9l6.2 16.4c.8 1.9 3 3 4.9 2.2l16.4-6.2c1.9-.8 3-3 2.2-4.9l-6.2-16.4zM215.1 108.6c-.8-1.9-3-3-4.9-2.2l-16.4 6.2c-1.9.8-3 3-2.2 4.9l6.2 16.4c.8 1.9 3 3 4.9 2.2l16.3-6.3c1.9-.8 3-3 2.2-4.9l-6.1-16.3zM243.1 97.9c-.8-1.9-3-3-4.9-2.2l-16.4 6.2c-1.9.8-3 3-2.2 4.9l6.3 16.3c.8 1.9 3 3 4.9 2.2l16.4-6.2c1.9-.8 3-3 2.2-4.9l-6.3-16.3zM271.4 87.3c-.8-1.9-3-3-4.9-2.2l-16.4 6.2c-1.9.8-3 3-2.2 4.9l6.2 16.4c.8 1.9 3 3 4.9 2.2l16.3-6.3c1.9-.8 3-3 2.2-4.9l-6.1-16.3zM299.6 76.5c-.8-1.9-3-3-4.9-2.2l-16.4 6.2c-1.9.8-3 3-2.2 4.9l6.3 16.3c.8 1.9 3 3 4.9 2.2l16.4-6.2c1.9-.8 3-3 2.2-4.9l-6.3-16.3zM327.6 65.8c-.8-1.9-3-3-4.9-2.2l-16.4 6.2c-1.9.8-3 3-2.2 4.9l6.2 16.4c.8 1.9 3 3 4.9 2.2l16.4-6.2c1.9-.8 3-3 2.2-4.9l-6.2-16.4zM393.1 40.8c-.8-1.9-3-3-4.9-2.2L334.6 59c-1.9.8-3 3-2.2 4.9l6.1 16.3c.8 1.9 3 3 4.9 2.2L397.1 62c1.9-.8 3-3 2.2-4.9l-6.2-16.3z" class="st8"/></g></g><path d="M29.9 309.5c-.7-1.9.2-4 2.1-4.8l18-6.9c1.9-.7 4 .2 4.8 2.1l2.9 7.6c.7 1.9-.2 4-2.1 4.8l-18 6.9c-1.9.7-4-.2-4.8-2.1l-2.9-7.6zM59.3 298.3c-.7-1.9.2-4 2.1-4.8l17.8-6.8c1.9-.7 4 .2 4.8 2.1l2.9 7.6c.7 1.9-.2 4-2.1 4.8l-18 6.9c-1.9.7-4-.2-4.8-2.1l-2.7-7.7zM88.5 287.1c-.7-1.9.2-4 2.1-4.8l18-6.9c1.9-.7 4 .2 4.8 2.1l2.9 7.6c.7 1.9-.2 4-2.1 4.8l-18 6.9c-1.9.7-4-.2-4.8-2.1l-2.9-7.6zM117.8 276c-.7-1.9.2-4 2.1-4.8l18-6.9c1.9-.7 4 .2 4.8 2.1l2.9 7.6c.7 1.9-.2 4-2.1 4.8l-18 6.9c-1.9.7-4-.2-4.8-2.1l-2.9-7.6zM147.1 264.8c-.7-1.9.2-4 2.1-4.8l17.9-6.8c1.9-.7 4 .2 4.8 2.1l2.9 7.6c.7 1.9-.2 4-2.1 4.8l-18 6.9c-1.9.7-4-.2-4.8-2.1l-2.8-7.7zM176.5 253.6c-.7-1.9.2-4 2.1-4.8l18-6.9c1.9-.7 4 .2 4.8 2.1l2.9 7.6c.7 1.9-.2 4-2.1 4.8l-18 6.9c-1.9.7-4-.2-4.8-2.1l-2.9-7.6zM205.8 242.5c-.7-1.9.2-4 2.1-4.8l18-6.9c1.9-.7 4 .2 4.8 2.1l2.9 7.6c.7 1.9-.2 4-2.1 4.8l-18 6.9c-1.9.7-4-.2-4.8-2.1l-2.9-7.6zM235.1 231.3c-.7-1.9.2-4 2.1-4.8l18-6.9c1.9-.7 4 .2 4.8 2.1l2.9 7.6c.7 1.9-.2 4-2.1 4.8l-18 6.9c-1.9.7-4-.2-4.8-2.1l-2.9-7.6zM264.3 220c-.7-1.9.2-4 2.1-4.8l18-6.9c1.9-.7 4 .2 4.8 2.1l2.9 7.6c.7 1.9-.2 4-2.1 4.8l-18 6.9c-1.9.7-4-.2-4.8-2.1l-2.9-7.6zM293.6 208.9c-.7-1.9.2-4 2.1-4.8l18-6.9c1.9-.7 4 .2 4.8 2.1l2.9 7.6c.7 1.9-.2 4-2.1 4.8l-18 6.9c-1.9.7-4-.2-4.8-2.1l-2.9-7.6zM323 197.7c-.7-1.9.2-4 2.1-4.8l18-6.9c1.9-.7 4 .2 4.8 2.1l2.9 7.6c.7 1.9-.2 4-2.1 4.8l-18 6.9c-1.9.7-4-.2-4.8-2.1l-2.9-7.6zM352.3 186.6c-.7-1.9.2-4 2.1-4.8l18-6.9c1.9-.7 4 .2 4.8 2.1l2.9 7.6c.7 1.9-.2 4-2.1 4.8l-18 6.9c-1.9.7-4-.2-4.8-2.1l-2.9-7.6zM381.6 175.4c-.7-1.9.2-4 2.1-4.8l18-6.9c1.9-.7 4 .2 4.8 2.1l2.9 7.6c.7 1.9-.2 4-2.1 4.8l-18 6.9c-1.9.7-4-.2-4.8-2.1l-2.9-7.6zM410.9 164.2c-.7-1.9.2-4 2.1-4.8l18-6.9c1.9-.7 4 .2 4.8 2.1l2.9 7.6c.7 1.9-.2 4-2.1 4.8l-18 6.9c-1.9.7-4-.2-4.8-2.1l-2.9-7.6zM401.6 135.6c-.8-1.9.2-4.2 2.2-4.9l16.4-6.2c1.9-.8 4.2.2 4.9 2.2l6.2 16.4c.8 1.9-.2 4.2-2.2 4.9l-16.4 6.2c-1.9.8-4.2-.2-4.9-2.2l-6.2-16.4zM373.3 146.3c-.8-1.9.2-4.2 2.2-4.9l16.3-6.3c1.9-.8 4.2.2 4.9 2.2l6.2 16.4c.8 1.9-.2 4.2-2.2 4.9l-16.3 6.3c-1.9.8-4.2-.2-4.9-2.2l-6.2-16.4zM345.3 156.9c-.8-1.9.2-4.2 2.2-4.9l16.4-6.2c1.9-.8 4.2.2 4.9 2.2l6.2 16.4c.8 1.9-.2 4.2-2.2 4.9l-16.4 6.2c-1.9.8-4.2-.2-4.9-2.2l-6.2-16.4zM317 167.7c-.8-1.9.3-4.1 2.2-4.9l16.4-6.2c1.9-.8 4 .2 4.8 2.1l6.2 16.4c.8 1.9-.2 4.2-2.1 4.9l-16.4 6.2c-1.9.8-4.2-.2-4.9-2.2l-6.2-16.3zM289.1 178.4c-.8-1.9.2-4.2 2.2-4.9l16.4-6.2c1.9-.8 4.2.2 4.9 2.2l6.3 16.3c.8 1.9-.2 4.2-2.2 4.9l-16.4 6.2c-1.9.8-4.2-.2-4.9-2.2l-6.3-16.3zM260.9 189.1c-.8-1.9.2-4.2 2.2-4.9l16.4-6.2c1.9-.8 4.2.2 4.9 2.2l6.1 16.3c.8 1.9-.2 4.2-2.2 4.9l-16.4 6.2c-1.9.8-4.2-.2-4.9-2.2l-6.1-16.3zM232.6 199.9c-.8-1.9.2-4.2 2.2-4.9l16.4-6.2c1.9-.8 4.2.2 4.9 2.2l6.2 16.4c.8 1.9-.2 4.2-2.2 4.9l-16.4 6.2c-1.9.8-4.2-.2-4.9-2.2l-6.2-16.4z" class="st12"/><path d="M232.6 199.9c-.8-1.9.3-4.2 2.3-4.9l16.4-6.2c1.9-.8 4 .2 4.8 2.2l6.2 16.4c.8 1.9-.1 4.1-2.1 4.9l-16.4 6.2c-1.9.8-4.2-.2-5-2.2l-6.2-16.4zM204.6 210.6c-.8-1.9.2-4.2 2.2-4.9l16.4-6.2c1.9-.8 4.2.2 4.9 2.2l6.3 16.3c.8 1.9-.2 4.2-2.2 4.9l-16.4 6.2c-1.9.8-4.2-.2-4.9-2.2l-6.3-16.3zM176.4 221.4c-.8-1.9.2-4.2 2.2-4.9l16.4-6.2c1.9-.8 4.2.2 4.9 2.2l6.2 16.4c.8 1.9-.2 4.2-2.2 4.9l-16.3 6.1c-1.9.8-4.2-.2-4.9-2.2l-6.3-16.3zM148.5 232.1c-.8-1.9.2-4.2 2.2-4.9L167 221c1.9-.8 4.2.2 4.9 2.2l6.2 16.4c.8 1.9-.2 4.2-2.2 4.9l-16.3 6.1c-1.9.8-4.2-.2-4.9-2.2l-6.2-16.3zM120.2 242.8c-.8-1.9.2-4.2 2.2-4.9l16.3-6.3c1.9-.8 4.2.2 4.9 2.2l6.2 16.4c.8 1.9-.2 4.2-2.2 4.9l-16.3 6.3c-1.9.8-4.2-.2-4.9-2.2l-6.2-16.4zM91.9 253.6c-.8-1.9.2-4.2 2.2-4.9l16.4-6.2c1.9-.8 4.2.2 4.9 2.2l6.3 16.3c.8 1.9-.2 4.2-2.2 4.9l-16.4 6.2c-1.9.8-4.2-.2-4.9-2.2l-6.3-16.3zM64 264.2c-.8-1.9.2-4.2 2.2-4.9l16.4-6.2c1.9-.8 4.2.2 4.9 2.2l6.3 16.3c.8 1.9-.2 4.2-2.2 4.9l-16.4 6.2c-1.9.8-4.2-.2-4.9-2.2L64 264.2zM19.2 281.3c-.8-1.9.2-4.2 2.2-4.9l32.8-12.5c1.9-.8 4.2.2 4.9 2.2l6.3 16.3c.8 1.9-.2 4.2-2.2 4.9l-32.8 12.5c-1.9.8-4.2-.2-4.9-2.2l-6.3-16.3zM31.8 244.1c-.7-2-3-3-4.9-2.2l-16.4 6.2c-1.9.8-3 3-2.2 4.9l6.2 16.4c.8 1.9 3 3 4.9 2.2l16.4-6.2c1.9-.8 3-3 2.2-4.9l-6.2-16.4zM60.1 233.3c-.8-1.9-3-3-4.9-2.2l-16.4 6.2c-1.9.8-3 3-2.2 4.9l6.2 16.4c.8 1.9 3 3 5 2.3l16.4-6.2c1.9-.8 3-3 2.2-4.9l-6.3-16.5zM88 222.6c-.8-1.9-3-3-4.9-2.2l-16.4 6.2c-1.9.8-2.9 3-2.1 4.9l6.1 16.3c.8 1.9 3 3 4.9 2.2l16.4-6.2c1.9-.8 3-3 2.2-4.9L88 222.6zM116.3 211.8c-.8-1.9-2.9-2.8-4.9-2.1L95 215.9c-1.9.8-2.9 2.9-2.1 4.8l6.3 16.4a3.9 3.9 0 004.9 2.2l16.4-6.2c1.9-.8 3-3 2.2-4.9l-6.4-16.4zM144.3 201.3c-.8-1.9-3-3-4.9-2.2l-16.4 6.2c-1.9.8-3 3-2.2 4.9l6.3 16.3c.8 1.9 3 3 4.9 2.2l16.4-6.2c1.9-.8 3-3 2.2-4.9l-6.3-16.3zM172.5 190.5c-.8-1.9-3-3-4.9-2.2l-16.4 6.2c-1.9.8-3 3-2.2 4.9l6.2 16.4c.8 1.9 3 3 4.9 2.2l16.3-6.3c1.9-.8 3-3 2.2-4.9l-6.1-16.3zM200.8 179.7c-.8-1.9-3-2.9-4.9-2.1l-16.4 6.2c-1.9.8-2.8 2.8-2.1 4.9l6.2 16.4c.8 1.9 2.8 3 4.8 2.2l16.4-6.2c1.9-.8 3-3 2.3-5l-6.3-16.4zM228.7 169.1c-.8-1.9-3-3-4.9-2.2l-16.2 6.2c-1.9.8-3 3-2.2 4.9l6.3 16.3c.8 1.9 3 3 4.9 2.2l16.4-6.2c1.9-.8 3-3 2.2-4.9l-6.5-16.3zM257 158.3c-.8-1.9-3-3-4.9-2.2l-16.3 6.3c-1.9.8-3 3-2.2 4.9l6.2 16.4c.8 1.9 3 3 4.9 2.2l16.4-6.2c1.9-.8 3-3 2.2-4.9l-6.3-16.5zM284.9 147.6c-.8-1.9-3-3-4.9-2.2l-16.4 6.2c-1.9.8-3 3-2.2 4.9l6.2 16.4c.8 1.9 3 3 4.9 2.2l16.4-6.2c1.9-.8 3-3 2.2-4.9l-6.2-16.4zM313.2 136.8c-.8-1.9-3-3-4.9-2.2l-16.4 6.2c-1.9.8-3 3-2.2 4.9l6.2 16.4c.8 1.9 3 3 4.9 2.2l16.3-6.3c1.9-.8 3-3 2.2-4.9l-6.1-16.3zM341.4 126.1c-.8-1.9-3-3-4.9-2.2l-16.4 6.2c-1.9.8-3 3-2.2 4.9l6.2 16.4c.8 1.9 3 3 4.9 2.2l16.4-6.2c1.9-.8 3-3 2.2-4.9l-6.2-16.4zM369.3 115.4c-.8-1.9-3-3-4.9-2.2l-16.4 6.2c-1.9.8-3 3-2.2 4.9l6.2 16.4c.8 1.9 3 3 4.9 2.2l16.4-6.2c1.9-.8 3-3 2.2-4.9l-6.2-16.4zM414.3 98.3c-.8-1.9-3-3-4.9-2.2l-32.8 12.5c-1.9.8-3 3-2.2 4.9l6.2 16.4c.8 1.9 3 3 4.9 2.2l32.8-12.5c1.9-.8 3-3 2.2-4.9l-6.2-16.4zM39 209c-.8-1.9-3-3-4.9-2.2l-34.3 13c-1.9.8-3 3-2.2 4.9l6.2 16.4c.8 1.9 3 3 4.9 2.2l34.2-13c1.9-.8 3-3 2.2-4.9L39 209zM66.9 198.3c-.8-1.9-3-3-4.9-2.2l-16.4 6.2c-1.9.8-3 3-2.2 4.9l6.2 16.4c.8 1.9 3 3 4.9 2.2l16.4-6.2c1.9-.8 3-3 2.2-4.9l-6.2-16.4zM95.2 187.5c-.8-1.9-2.9-2.8-4.9-2.1l-16.4 6.2c-1.9.8-2.9 2.9-2.1 4.8l6.2 16.4a3.9 3.9 0 004.9 2.2l16.4-6.2c1.9-.8 3-3 2.2-4.9l-6.3-16.4zM123.1 176.9c-.8-1.9-3-3-4.9-2.2l-16.3 6.3c-1.9.8-3 3-2.2 4.9l6.2 16.2c.8 1.9 3 3 4.9 2.2l16.4-6.2c1.9-.8 3-3 2.2-4.9l-6.3-16.3zM151.4 166.2c-.8-1.9-3-3-4.9-2.2l-16.4 6.2c-1.9.8-3 3-2.2 4.9l6.2 16.4c.8 1.9 3 3 4.9 2.2l16.4-6.2c1.9-.8 3-3 2.2-4.9l-6.2-16.4zM179.6 155.3c-.8-1.9-3-2.9-4.9-2.1l-16.4 6.2c-1.9.8-2.8 2.8-2.1 4.9l6.2 16.4c.8 1.9 2.8 3 4.8 2.2l16.4-6.2c1.9-.8 3-3 2.3-5l-6.3-16.4zM207.6 144.7c-.8-1.9-3-3-4.9-2.2l-16.4 6.2c-1.9.8-3 3-2.2 4.9l6.2 16.4c.8 1.9 3 3 4.9 2.2l16.4-6.2c1.9-.8 3-3 2.2-4.9l-6.2-16.4zM235.8 134c-.8-1.9-3-3-4.9-2.2l-16.4 6.2c-1.9.8-3 3-2.2 4.9l6.3 16.3c.8 1.9 3 3 4.9 2.2l16.4-6.2c1.9-.8 3-3 2.2-4.9l-6.3-16.3zM263.7 123.3c-.8-1.9-3-3-4.9-2.2l-16.4 6.2c-1.9.8-3 3-2.2 4.9l6.2 16.4c.8 1.9 3 3 4.9 2.2l16.4-6.2c1.9-.8 3-3 2.2-4.9l-6.2-16.4zM292.1 112.5c-.8-1.9-3-3-4.9-2.2l-16.4 6.2c-1.9.8-3 3-2.2 4.9l6.2 16.4c.8 1.9 3 3 4.9 2.2l16.4-6.2c1.9-.8 3-3 2.2-4.9l-6.2-16.4zM320.4 101.7c-.8-1.9-3-3-4.9-2.2l-16.4 6.2c-1.9.8-3 3-2.2 4.9l6.2 16.4c.8 1.9 3 3 4.9 2.2l16.4-6.2c1.9-.8 3-3 2.2-4.9l-6.2-16.4zM348.2 91.1c-.8-1.9-3-3-4.9-2.2L327 95.1c-1.9.8-3 3-2.2 4.9l6.3 16.3c.8 1.9 3 3 4.9 2.2l16.4-6.2c1.9-.8 3-3 2.2-4.9l-6.4-16.3zM403.4 70.1c-.8-1.9-3-3-4.9-2.2l-43.2 16.5c-1.9.8-3 3-2.2 4.9l6.2 16.4c.8 1.9 3 3 4.9 2.2l43.2-16.5c1.9-.8 3-3 2.2-4.9l-6.2-16.4zM45.8 174c-.8-1.9-3-3-4.9-2.2L-11 191.6c-1.9.8-3 3-2.2 4.9l6.1 16.3c.8 1.9 3 3 4.9 2.2l51.9-19.8c1.9-.8 3-3 2.2-4.9L45.8 174zM74 163.2c-.8-1.9-2.9-2.8-4.9-2.1l-16.3 6.3c-1.9.8-2.9 2.9-2.1 4.8l6.2 16.4a3.9 3.9 0 004.9 2.2l16.4-6.2c1.9-.8 3-3 2.2-4.9L74 163.2zM102 152.6c-.8-1.9-3-3-4.9-2.2l-16.3 6.1c-1.9.8-3 3-2.2 4.9l6.2 16.4c.8 1.9 3 3 4.9 2.2l16.4-6.2c1.9-.8 3-3 2.2-4.9l-6.3-16.3zM130.2 141.8c-.8-1.9-3-3-4.9-2.2l-16.4 6.2c-1.9.8-3 3-2.2 4.9L113 167c.8 1.9 3 3 4.9 2.2l16.4-6.2c1.9-.8 3-3 2.2-4.9l-6.3-16.3zM158.5 131c-.8-1.9-3-2.9-4.9-2.1l-16.4 6.2c-1.9.8-2.8 2.8-2.1 4.8l6.2 16.4c.8 1.9 2.8 3 4.8 2.2l16.5-6.2c1.9-.8 3-3 2.3-5l-6.4-16.3zM186.5 120.4c-.8-1.9-3-3-4.9-2.2l-16.4 6.2c-1.9.8-3 3-2.2 4.9l6.2 16.4c.8 1.9 3 3 4.9 2.2l16.4-6.2c1.9-.8 3-3 2.2-4.9l-6.2-16.4zM214.7 109.7c-.8-1.9-3-3-4.9-2.2l-16.4 6.2c-1.9.8-3 3-2.2 4.9l6.2 16.4c.8 1.9 3 3 4.9 2.2l16.4-6.2c1.9-.8 3-3 2.2-4.9l-6.2-16.4zM242.6 99c-.8-1.9-3-3-4.9-2.2l-16.4 6.2c-1.9.8-3 3-2.2 4.9l6.2 16.4c.8 1.9 3 3 4.9 2.2l16.4-6.2c1.9-.8 3-3 2.2-4.9L242.6 99zM270.9 88.2c-.8-1.9-3-3-4.9-2.2l-16.3 6.3c-1.9.8-3 3-2.2 4.9l6.1 16.3c.8 1.9 3 3 4.9 2.2l16.4-6.2c1.9-.8 3-3 2.2-4.9l-6.2-16.4zM299.3 77.4c-.8-1.9-3-3-4.9-2.2L278 81.4c-1.9.8-3 3-2.2 4.9l6.2 16.4c.8 1.9 3 3 4.9 2.2l16.4-6.2c1.9-.8 3-3 2.2-4.9l-6.2-16.4zM327.1 66.8c-.8-1.9-3-3-4.9-2.2l-16.4 6.2c-1.9.8-3 3-2.2 4.9l6.2 16.4c.8 1.9 3 3 4.9 2.2l16.4-6.2c1.9-.8 3-3 2.2-4.9l-6.2-16.4zM392.6 41.8c-.8-1.9-3-3-4.9-2.2L334.1 60c-1.9.8-3 3-2.2 4.9l6.3 16.3c.8 1.9 3 3 4.9 2.2L396.7 63c1.9-.8 3-3 2.2-4.9l-6.3-16.3z" class="st12"/><text class="st13 st14 st15" transform="scale(-1) rotate(-20.873 -646.419 1082.491)">esc</text><path d="M394.2 174.9c-.2-.7.1-1.6.8-1.8.7-.2 1.6.1 1.8.8.2.7-.1 1.6-.8 1.8-.8.4-1.6 0-1.8-.8zM396.4 176.8l.2.8M394.2 171.3l.3.8M393 175.4l-.6.3M398.6 173.3l-.7.2M393.1 173.4l-.7-.3M398.5 175.8l-.7-.3" class="st16"/><g><path d="M396.5 172l.3-.6M394.1 177.5l.3-.7" class="st16"/></g><g><path d="M364.8 186.1c-.2-.7.1-1.6.8-1.8.7-.2 1.6.1 1.8.8.2.7-.1 1.6-.8 1.8-.7.3-1.6 0-1.8-.8zM367 188l.6 1.4M364.7 181.8l.6 1.4M363.7 186.5l-1.4.5M369.9 184.2l-1.3.5" class="st16"/><g><path d="M363.8 184.5l-1.4-.5M369.9 187.3l-1.4-.6" class="st16"/></g><g><path d="M367.2 183.2l.6-1.3M364.4 189.3l.7-1.3" class="st16"/></g></g><g><path fill="none" stroke="#bbb" stroke-miterlimit="10" d="M337.3 195.5h4.4v2.2h-4.4z" transform="rotate(-20.873 339.545 196.575)"/><path d="M333 196.7h2.6v4.4H333z" class="st18" transform="rotate(-20.852 334.292 198.91)"/><path d="M335.5 193.2h3.3v1.5h-3.3z" class="st19" transform="rotate(-20.88 337.18 193.928)"/></g><g><path d="M310.5 206.9h2.2v2.6h-2.2z" class="st20" transform="rotate(-20.852 311.571 208.248)"/><path d="M307 208.2h2.2v2.6H307z" class="st19" transform="rotate(-20.88 308.174 209.569)"/><path fill="none" stroke="#bbb" stroke-miterlimit="10" d="M303.5 209.5h2.2v2.6h-2.2z" transform="rotate(-20.86 304.58 210.785)"/><path d="M302.2 206h2.2v2.6h-2.2z" class="st18" transform="rotate(-20.852 303.285 207.329)"/><path d="M305.7 204.8h2.2v2.6h-2.2z" class="st20" transform="rotate(-20.88 306.757 206.11)"/><path d="M309.1 203.5h2.2v2.6h-2.2z" class="st20" transform="rotate(-20.88 310.212 204.766)"/></g><g><path d="M220.3 243.7l2-3.5-3.5-.9z" class="st13"/><path d="M217.7 244.7l1.9-3.4-3.5-.9z" class="st13"/></g><g><path d="M160.2 261.7l-2 3.4 3.5.9z" class="st13"/><path d="M163 260.6l-2 3.5 3.5.8z" class="st13"/></g><g><path d="M192.3 249.5l-1.9 3.4 3.4.9z" class="st13"/><path d="M189.3 250.7h1.1v4.4h-1.1z" class="st13" transform="rotate(-20.885 189.839 252.867)"/><path d="M187.5 251.3h1.1v4.4h-1.1z" class="st13" transform="rotate(-20.86 188.07 253.5)"/></g><text class="st13 st14 st15" transform="scale(-1) rotate(-20.873 -590.39 1066.197)">#</text><text class="st13 st14 st15" transform="scale(-1) rotate(-20.873 -565.783 1064.201)">@</text><text class="st13 st14 st15" transform="scale(-1) rotate(-20.873 -605.44 984.467)">1</text><text class="st13 st14 st15" transform="scale(-1) rotate(-20.873 -581.135 980.831)">&amp;</text><text class="st13 st14 st15" transform="scale(-1) rotate(-20.873 -620.38 903.387)">2</text><text class="st13 st14 st15" transform="scale(-1) rotate(-20.873 -596.214 898.936)">é</text><text class="st13 st14 st15" transform="scale(-1) rotate(-20.873 -635.583 820.84)">3</text><text class="st13 st14 st15" transform="scale(-1) rotate(-20.873 -611.723 814.748)">“</text><text class="st13 st14 st15" transform="scale(-1) rotate(-20.873 -650.511 739.746)">4</text><text class="st13 st14 st15" transform="scale(-1) rotate(-20.873 -626.91 732.313)">‘</text><text class="st13 st14 st15" transform="scale(-1) rotate(-20.873 -665.607 657.783)">5</text><text class="st13 st14 st15" transform="scale(-1) rotate(-20.873 -641.853 651.162)">(</text><text class="st13 st14 st15" transform="scale(-1) rotate(-20.873 -680.734 575.643)">6</text><text class="st13 st14 st15" transform="scale(-1) rotate(-20.873 -656.58 571.196)">§</text><text class="st13 st14 st15" transform="scale(-1) rotate(-20.873 -695.679 494.508)">7</text><text class="st13 st14 st15" transform="scale(-1) rotate(-20.873 -671.522 490.06)">è</text><g><path d="M412.2 101.4l-8.3 3.1M404.5 108.2l-2.6-6.9M407.9 106.6l-4-1.9M405.7 100.5l-1.8 4.1" class="st22"/></g><text class="st13 st14 st15" transform="scale(-1) rotate(-20.873 -519.957 920.059)">A</text><text class="st13 st14 st15" transform="scale(-1) rotate(-20.873 -535.009 838.328)">Z</text><text class="st13 st14 st15" transform="scale(-1) rotate(-20.873 -550.298 755.326)">E</text><path d="M405.4 87.7c-.2-.5.1-.9.4-1 .5-.2.9.1 1 .4.2.5-.1.9-.4 1-.4.3-.8.1-1-.4z" class="st13"/><path d="M398.5 79.8l1.7-.7-1-2.6 2.4-1 1 2.7 1.7-.7-1.7 4.5z" class="st16"/></g></svg>