<svg id="prefix__Calque_1" data-name="Calque 1" xmlns="http://www.w3.org/2000/svg" viewBox="0 0 580 600"><defs><clipPath id="prefix__clip-path"><path transform="rotate(-48.49 153.714 -48.355)" fill="none" d="M-4.73-57.17h316.9v17.6H-4.73z"/></clipPath><style>.prefix__cls-28,.prefix__cls-5,.prefix__cls-6,.prefix__cls-8{fill:none}.prefix__cls-2{fill:#fff}.prefix__cls-3{fill:#c9def2}.prefix__cls-4{fill:#aecbed}.prefix__cls-5{stroke:#d57482}.prefix__cls-28,.prefix__cls-5,.prefix__cls-6,.prefix__cls-8{stroke-miterlimit:10}.prefix__cls-6{stroke:#aecbed}.prefix__cls-7{fill:#403f41;opacity:.1;isolation:isolate}.prefix__cls-8{stroke:#686868;stroke-width:2.66px}.prefix__cls-10{fill:#cf943a}.prefix__cls-12{fill:#f6f2e7}.prefix__cls-14{fill:#a9dde2}.prefix__cls-17{fill:#ededed}.prefix__cls-27{fill:#c03e2e}.prefix__cls-28{stroke:#d6ceae;stroke-width:2px}</style></defs><path class="prefix__cls-2" d="M-62.8-49.8L187.4 196l346.1-352.3-250.2-245.9a3.15 3.15 0 00-4.4.3L-62.9-54a2.84 2.84 0 00-.2 4c.1.1.2.1.3.2zm561.7-92.7a5 5 0 01.1 6.9 5 5 0 01-6.9.1 5 5 0 01-.1-6.9 4.89 4.89 0 016.9-.1zm-11 18.1l-9.6 9.7a4.86 4.86 0 01-6.8.3 4.86 4.86 0 01-.3-6.8l.2-.2 9.5-9.7a4.89 4.89 0 016.9-.1 4.77 4.77 0 01.1 6.8zM423.7-66a4.89 4.89 0 01.1 6.9 4.89 4.89 0 01-6.9.1 4.89 4.89 0 01-.1-6.9 4.8 4.8 0 016.9-.1zm-17.3 24.5l-9.6 9.7a4.86 4.86 0 01-6.8.3 4.86 4.86 0 01-.3-6.8l.2-.2 9.6-9.7a5 5 0 016.9-.1 4.68 4.68 0 010 6.8zM357 2a5 5 0 01.1 6.9 5 5 0 01-6.9.1 5 5 0 01-.1-6.9A4.8 4.8 0 01357 2zm-49.4 57.2a4.86 4.86 0 01-6.8.2l-.1-.1a5 5 0 01-.1-6.9l9.6-9.7a4.81 4.81 0 117.1 6.5l-.2.2zM290.2 70a4.88 4.88 0 11-6.9.1 4.89 4.89 0 016.9-.1zm-64.1 72.1a4.77 4.77 0 01-6.8.1 5 5 0 01-.1-6.9l9.6-9.7a4.86 4.86 0 016.8-.3 4.77 4.77 0 01.3 6.8l-.2.2zm-11.1 4.4a4.88 4.88 0 11-6.9.1 4.8 4.8 0 016.9-.1z"/><path class="prefix__cls-3" d="M-25.3-92.3l252.1 247.7-.2.2L-25.5-92.1l.2-.2z"/><path class="prefix__cls-3" transform="rotate(-45.51 102.807 29.412)" d="M102.66-147.28h.3v353.39h-.3z"/><path class="prefix__cls-4" d="M-3.6-114.4l252.1 247.7-.2.2L-3.8-114.1l.2-.3z"/><path class="prefix__cls-3" d="M-5.8-112.2l252.1 247.7-.2.2L-6-111.9l.2-.3z"/><path class="prefix__cls-4" transform="rotate(-45.51 131.006 .714)" d="M130.86-175.98h.3v353.39h-.3z"/><path class="prefix__cls-3" d="M-1.4-116.6l252.1 247.7-.2.2L-1.6-116.4l.2-.2zM.8-118.8l252.1 247.7-.3.2L.5-118.6l.3-.2zM2.9-121L255 126.7l-.2.2L2.7-120.8l.2-.2z"/><path class="prefix__cls-4" d="M13.8-132l252.1 247.6-.3.3L13.5-131.8l.3-.2z"/><path class="prefix__cls-3" transform="rotate(-45.51 133.129 -1.438)" d="M132.98-178.14h.3v353.39h-.3z"/><path class="prefix__cls-3" transform="rotate(-45.51 135.315 -3.675)" d="M135.18-180.37h.3v353.39h-.3z"/><path class="prefix__cls-3" d="M11.6-129.8l252.1 247.6-.2.3L11.4-129.6l.2-.2z"/><path class="prefix__cls-4" d="M22.4-140.9l252.1 247.7-.2.2L22.2-140.6l.2-.3z"/><path class="prefix__cls-3" transform="rotate(-45.51 141.834 -10.263)" d="M141.7-186.96h.3v353.39h-.3z"/><path class="prefix__cls-3" d="M18.1-136.4l252.1 247.6-.2.2L17.9-136.2l.2-.2z"/><path class="prefix__cls-3" transform="rotate(-45.51 146.225 -14.715)" d="M146.09-191.42h.3v353.39h-.3z"/><path class="prefix__cls-4" transform="rotate(-45.51 157.065 -25.686)" d="M156.93-202.39h.3V151h-.3z"/><path class="prefix__cls-3" transform="rotate(-45.51 150.557 -19.094)" d="M150.42-195.8h.3v353.39h-.3z"/><path class="prefix__cls-3" transform="rotate(-45.51 152.75 -21.314)" d="M152.61-198.01h.3v353.39h-.3z"/><path class="prefix__cls-3" d="M28.9-147.5L281 100.2l-.2.2L28.7-147.3l.2-.2z"/><path class="prefix__cls-4" d="M39.8-158.5L291.9 89.1l-.2.3L39.6-158.3l.2-.2z"/><path class="prefix__cls-3" transform="rotate(-45.51 159.263 -27.918)" d="M159.13-204.62h.3v353.39h-.3z"/><path class="prefix__cls-3" d="M35.4-154.1L287.6 93.6l-.3.2L35.2-153.9l.2-.2zM37.6-156.3L289.7 91.4l-.2.2L37.4-156.1l.2-.2z"/><path class="prefix__cls-4" transform="rotate(-45.51 183.06 -52.169)" d="M182.93-228.87h.3v353.39h-.3z"/><path class="prefix__cls-3" transform="rotate(-45.51 176.564 -45.572)" d="M176.42-222.27h.3v353.39h-.3z"/><path class="prefix__cls-3" transform="rotate(-45.51 178.756 -47.792)" d="M178.62-224.5h.3v353.39h-.3z"/><path class="prefix__cls-3" d="M55-174L307.1 73.7l-.3.2-252-247.6.2-.3z"/><path class="prefix__cls-4" d="M83.2-202.7L335.3 45l-.3.2L82.9-202.4l.3-.3z"/><path class="prefix__cls-3" transform="rotate(-45.51 202.553 -72.042)" d="M202.42-248.75h.3v353.39h-.3z"/><path class="prefix__cls-3" transform="rotate(-45.51 204.751 -74.274)" d="M204.61-250.98h.3v353.39h-.3z"/><path class="prefix__cls-3" d="M81-200.5L333.1 47.2l-.2.2L80.8-200.2l.2-.3z"/><path class="prefix__cls-4" transform="rotate(-45.51 217.715 -87.537)" d="M217.58-264.24h.3V89.15h-.3z"/><path class="prefix__cls-3" d="M85.3-204.9L337.4 42.8l-.2.2L85.1-204.7l.2-.2zM87.5-207.1L339.6 40.6l-.2.2L87.3-206.9l.2-.2zM89.7-209.3L341.8 38.4l-.2.2L89.5-209.1l.2-.2z"/><path class="prefix__cls-4" d="M100.5-220.3L352.6 27.3l-.2.3-252.1-247.7.2-.2z"/><path class="prefix__cls-3" transform="rotate(-45.51 219.908 -89.757)" d="M219.77-266.47h.3V86.92h-.3z"/><path class="prefix__cls-3" transform="rotate(-45.51 222.106 -91.989)" d="M221.97-268.7h.3V84.69h-.3z"/><path class="prefix__cls-3" d="M98.4-218.1l252 247.6-.2.3L98.1-217.9l.3-.2z"/><path class="prefix__cls-3" transform="rotate(-45.51 228.619 -98.593)" d="M228.49-275.3h.3V78.09h-.3z"/><path class="prefix__cls-3" d="M104.9-224.7L357 22.9l-.3.2-252.1-247.6.3-.2z"/><path class="prefix__cls-3" transform="rotate(-45.51 232.95 -102.972)" d="M232.81-279.67h.3V73.72h-.3z"/><path class="prefix__cls-4" transform="rotate(-45.51 243.779 -113.948)" d="M243.65-290.66h.3V62.73h-.3z"/><path class="prefix__cls-3" d="M115.7-235.8L367.8 11.9l-.2.2-252.1-247.7.2-.2z"/><path class="prefix__cls-4" d="M126.5-246.8L378.6.8l-.2.3-252.1-247.7.2-.2z"/><path class="prefix__cls-3" d="M120-240.2L372.1 7.5l-.2.2L119.8-240l.2-.2zM122.2-242.4L374.3 5.3l-.2.2L122-242.2l.2-.2zM124.4-244.6L376.5 3.1l-.3.2-252.1-247.7.3-.2z"/><path class="prefix__cls-5" d="M140.9 150.8L487-201.5"/><path class="prefix__cls-6" d="M130.7 140.4L476.9-212M120.4 130.2l346.1-352.3M110 120l346.1-352.3M99.6 109.8l346.1-352.3M89.2 99.6l346.2-352.3M78.9 89.4L425-262.9M68.5 79.2l346.1-352.3M58.1 69l346.1-352.3M47.7 58.8l346.2-352.3M37.4 48.6l346.1-352.3M27 38.4l346.1-352.3M16.6 28.2l346.1-352.3M6.2 18.1l346.2-352.4M-4.1 7.9L342-344.5"/><path class="prefix__cls-4" d="M223.2 143.5l7.8 7.6.2-.2-7.6-7.5zM217.8 138.3a.6.6 0 01.1-.4L-20.9-96.7l-.2.2z"/><path class="prefix__cls-3" transform="rotate(-45.51 229.693 145.39)" d="M229.57 140.49h.3v9.8h-.3z"/><path class="prefix__cls-3" d="M219.2 135.3l.2-.2-238.2-234-.2.2zM228.3 139.9l7 6.9.2-.3-7-6.9-.2.3zM221.4 133.1c.1-.1.2-.1.2-.2l-238.2-234-.2.2zM223.5 130.9c.1-.1.2-.1.2-.2l-238.2-234-.2.2zM230.4 137.6l7.1 7 .2-.3-7.1-6.9-.2.2z"/><path class="prefix__cls-4" transform="rotate(-45.51 236.115 138.804)" d="M235.99 133.86h.3v9.9h-.3z"/><path class="prefix__cls-4" d="M225.7 128.7l.2-.2-238.2-234-.2.2z"/><path class="prefix__cls-3" transform="rotate(-45.51 238.312 136.572)" d="M238.19 131.63h.3v9.9h-.3z"/><path class="prefix__cls-3" d="M227.9 126.5l.2-.2-238.2-234-.2.2zM236.6 130.7l7.3 7.2.2-.2-7.4-7.3zM230.3 124.5c.1 0 .2-.1.3-.1L-7.9-110l-.2.2z"/><path class="prefix__cls-4" d="M352.4 10.2l8.7 8.5.2-.2-8.3-8.2a1.27 1.27 0 01-.6-.1zM348.8 6.7a4.33 4.33 0 00-.1-.5L109.2-229.1l-.2.2z"/><path class="prefix__cls-3" d="M356.2 9.6l7.1 6.9.2-.2-7-6.9a.77.77 0 00-.3.2zM349.4 2.9c.1-.1.1-.2.2-.3l-238.2-234-.2.2zM358.1 7.1l7.3 7.2.2-.2-7.4-7.3zM351.8.9c.1 0 .2-.1.3-.1L113.5-233.6l-.2.2zM282.7 76.2a4.05 4.05 0 01-.5-.9l-240.3-236-.2.2zM284 77.5l9.8 9.6.2-.2-9-8.9a4.67 4.67 0 01-1-.5zM288.8 77.9L296 85l.2-.2-7.1-7a.37.37 0 00-.3.1zM282.3 71.5l.1-.3L44.1-162.9l-.2.2zM291.1 75.7l7.1 7 .2-.2-7.2-7.1c0 .2-.1.2-.1.3zM284.4 69.2c.1-.1.2-.1.3-.2L46.3-165.1l-.2.2z"/><path class="prefix__cls-4" d="M291.2 71.6l9.1 8.9.2-.2-9.9-9.7a2.07 2.07 0 01.6 1zM288.6 69a2.07 2.07 0 011 .6l-241.1-237-.2.2z"/><path class="prefix__cls-3" d="M301.4 59.9l9.8 9.6.2-.2-9.1-8.9c-.3-.2-.6-.3-.9-.5zM300.1 58.6a4.05 4.05 0 01-.5-.9L59.3-178.4l-.2.2zM306.1 60.2l7.2 7.1.2-.2-7.2-7zM299.6 53.8c0-.1.1-.2.1-.3L61.5-180.6l-.2.2z"/><path class="prefix__cls-3" transform="rotate(-45.51 312.087 61.512)" d="M311.97 56.61h.3v9.8h-.3z"/><path class="prefix__cls-3" d="M301.7 51.4c.1-.1.2-.1.2-.2l-238.2-234-.2.2z"/><path class="prefix__cls-4" d="M303.8 49.2c.1-.1.2-.1.2-.2L65.8-185l-.2.2zM310.7 56l7 6.9.2-.2-7-7-.2.3z"/><path class="prefix__cls-3" d="M306 47l.2-.2L68-187.2l-.2.2z"/><path class="prefix__cls-3" transform="rotate(-45.51 316.45 57.16)" d="M316.33 52.21h.3v9.9h-.3z"/><path class="prefix__cls-3" d="M315 51.5l7 7 .3-.3-7.1-6.9-.2.2zM308.1 44.8l.2-.2-238.2-234-.2.2zM317.1 49.3l7.1 6.9.2-.2-7.1-7c0 .2-.1.2-.2.3zM310.3 42.6l.2-.2-238.2-234-.2.2z"/><path class="prefix__cls-4" d="M313.3 41.2h.4l-239.2-235-.2.2zM318.4 46.3l7.9 7.8.2-.2-8.2-8c.2.1.1.2.1.4z"/><path class="prefix__cls-3" d="M216.5 150l8 7.8.2-.2-8.2-8.1zM211.5 145.1h.5L-27.4-90.1l-.2.2z"/><path class="prefix__cls-2" d="M58.3 50.8L367 217.5l234.6-434.6L293-383.8a3.11 3.11 0 00-4.1 1.4L57.2 46.8a2.88 2.88 0 00.9 3.9.35.35 0 01.2.1zm514-245.1a4.83 4.83 0 012 6.6 4.83 4.83 0 01-6.6 2 4.83 4.83 0 01-2-6.6 5 5 0 016.6-2zm-5.6 20.5l-6.6 12a4.79 4.79 0 01-6.5 1.9 4.79 4.79 0 01-1.9-6.5l6.5-12a4.81 4.81 0 016.5-2.1 4.81 4.81 0 012.1 6.5.35.35 0 01-.1.2zm-45.3 73.9a4.83 4.83 0 012 6.6 4.83 4.83 0 01-6.6 2 4.83 4.83 0 01-2-6.6 4.89 4.89 0 016.6-2zm-9.9 28.4l-6.5 12a4.73 4.73 0 01-6.4 2.2 4.73 4.73 0 01-2.2-6.4c.1-.1.1-.3.2-.4l6.5-12a4.83 4.83 0 016.6-2 4.94 4.94 0 011.8 6.6zM476.1-16a4.92 4.92 0 012 6.6 4.92 4.92 0 01-6.6 2 4.92 4.92 0 01-2-6.6 4.83 4.83 0 016.6-2zm-31.6 68.6a4.72 4.72 0 01-6.5 2 4.92 4.92 0 01-2-6.6l6.5-12a4.76 4.76 0 018.5 4.3c0 .1-.1.2-.1.3zm-13.7 15.3a4.88 4.88 0 11-6.6 2 4.83 4.83 0 016.6-2zm-41.6 87a4.69 4.69 0 01-6.5 2 4.92 4.92 0 01-2-6.6l6.5-12a4.76 4.76 0 118.5 4.3c0 .1-.1.2-.1.3zm-9.3 7.3a4.88 4.88 0 11-6.6 2 4.81 4.81 0 016.6-2z"/><path class="prefix__cls-3" transform="rotate(-61.64 238.086 83.676)" d="M237.94-93.02h.3v353.4h-.3z"/><path class="prefix__cls-3" transform="rotate(-61.64 239.497 80.892)" d="M239.34-95.81h.3v353.4h-.3z"/><path class="prefix__cls-4" transform="rotate(-61.64 252.728 56.41)" d="M252.57-120.29h.3v353.4h-.3z"/><path class="prefix__cls-3" transform="rotate(-61.64 251.304 59.197)" d="M251.15-117.51h.3v353.4h-.3z"/><path class="prefix__cls-4" d="M103.2-38.5l311 167.8-.1.3-311-167.9.1-.2z"/><path class="prefix__cls-3" transform="rotate(-61.64 254.23 53.681)" d="M254.07-123.02h.3v353.4h-.3z"/><path class="prefix__cls-3" transform="rotate(-61.64 255.738 50.944)" d="M255.58-125.76h.3v353.4h-.3z"/><path class="prefix__cls-3" transform="rotate(-61.64 257.188 48.286)" d="M257.03-128.42h.3v353.4h-.3z"/><path class="prefix__cls-4" d="M109.1-49.4l311 167.9-.1.2L109-49.2l.1-.2z"/><path class="prefix__cls-3" transform="rotate(-61.64 260.111 42.758)" d="M259.95-133.94h.3v353.4h-.3z"/><path class="prefix__cls-3" transform="rotate(-61.64 261.559 40.121)" d="M261.4-136.58h.3v353.4h-.3z"/><path class="prefix__cls-3" transform="rotate(-61.64 263.072 37.376)" d="M262.92-139.33h.3v353.4h-.3z"/><path class="prefix__cls-4" transform="rotate(-61.64 270.405 23.807)" d="M270.25-152.89h.3v353.4h-.3z"/><path class="prefix__cls-3" transform="rotate(-61.64 265.94 31.94)" d="M265.79-144.76h.3v353.4h-.3z"/><path class="prefix__cls-3" transform="rotate(-61.64 267.448 29.202)" d="M267.29-147.5h.3v353.4h-.3z"/><path class="prefix__cls-3" transform="rotate(-61.64 268.95 26.474)" d="M268.8-150.23h.3v353.4h-.3z"/><path class="prefix__cls-4" transform="rotate(-61.64 276.298 12.902)" d="M276.14-163.8h.3v353.4h-.3z"/><path class="prefix__cls-3" transform="rotate(-61.64 271.816 21.024)" d="M271.67-155.68h.3v353.4h-.3z"/><path class="prefix__cls-3" transform="rotate(-61.64 273.332 18.292)" d="M273.18-158.41h.3v353.4h-.3z"/><path class="prefix__cls-3" transform="rotate(-61.64 274.832 15.55)" d="M274.68-161.15h.3v353.4h-.3z"/><path class="prefix__cls-4" transform="rotate(-61.64 282.17 1.973)" d="M282.02-174.72h.3v353.4h-.3z"/><path class="prefix__cls-3" transform="rotate(-61.64 277.713 10.11)" d="M277.56-166.59h.3v353.4h-.3z"/><path class="prefix__cls-3" transform="rotate(-61.64 279.208 7.377)" d="M279.05-169.33h.3v353.4h-.3z"/><path class="prefix__cls-3" transform="rotate(-61.64 280.666 4.724)" d="M280.51-171.98h.3v353.4h-.3z"/><path class="prefix__cls-4" transform="rotate(-61.64 293.941 -19.834)" d="M293.78-196.53h.3v353.4h-.3z"/><path class="prefix__cls-3" transform="rotate(-61.64 289.562 -11.674)" d="M289.4-188.37h.3v353.4h-.3z"/><path class="prefix__cls-3" transform="rotate(-61.64 290.93 -14.369)" d="M290.77-191.07h.3v353.4h-.3z"/><path class="prefix__cls-3" transform="rotate(-61.64 292.425 -17.102)" d="M292.27-193.8h.3v353.4h-.3z"/><path class="prefix__cls-4" transform="rotate(-61.64 311.527 -52.492)" d="M311.38-229.19h.3v353.4h-.3z"/><path class="prefix__cls-3" transform="rotate(-61.64 307.164 -44.321)" d="M307.01-221.02h.3v353.4h-.3z"/><path class="prefix__cls-3" transform="rotate(-61.64 308.672 -47.058)" d="M308.51-223.76h.3v353.4h-.3z"/><path class="prefix__cls-3" transform="rotate(-61.64 310.019 -49.755)" d="M309.87-226.45h.3v353.4h-.3z"/><path class="prefix__cls-4" transform="rotate(-61.64 317.424 -63.405)" d="M317.27-240.1h.3v353.4h-.3z"/><path class="prefix__cls-3" transform="rotate(-61.64 313.053 -55.24)" d="M312.9-231.94h.3v353.4h-.3z"/><path class="prefix__cls-3" transform="rotate(-61.64 314.542 -57.965)" d="M314.39-234.67h.3v353.4h-.3z"/><path class="prefix__cls-3" transform="rotate(-61.64 315.916 -60.668)" d="M315.76-237.36h.3v353.4h-.3z"/><path class="prefix__cls-4" d="M167.9-158.4l311 167.9-.1.3-311-167.9.1-.3z"/><path class="prefix__cls-3" transform="rotate(-61.64 318.91 -66.144)" d="M318.76-242.84h.3v353.4h-.3z"/><path class="prefix__cls-3" transform="rotate(-61.64 320.382 -68.8)" d="M320.22-245.5h.3v353.4h-.3z"/><path class="prefix__cls-3" transform="rotate(-61.64 321.884 -71.529)" d="M321.73-248.23h.3v353.4h-.3z"/><path class="prefix__cls-3" transform="rotate(-61.64 324.753 -76.965)" d="M324.6-253.66h.3v353.4h-.3z"/><path class="prefix__cls-3" transform="rotate(-61.64 326.266 -79.71)" d="M326.11-256.41h.3v353.4h-.3z"/><path class="prefix__cls-3" transform="rotate(-61.64 327.765 -82.453)" d="M327.61-259.15h.3v353.4h-.3z"/><path class="prefix__cls-5" d="M309.8 186.9l234.6-434.6"/><path class="prefix__cls-6" d="M297.2 179.7l234.6-434.6M284.4 172.8L519-261.8M271.6 165.9l234.6-434.6M258.8 159l234.6-434.6M246 152.1l234.6-434.6M233.2 145.2l234.6-434.6M220.4 138.3L455-296.3M207.6 131.4l234.6-434.6M194.8 124.5l234.6-434.6M182 117.5L416.6-317M169.2 110.6L403.8-324M156.4 103.7L391-330.9M143.6 96.8l234.6-434.6M130.8 89.9l234.6-434.6M118 83l234.6-434.6M105.2 76.1l234.6-434.6M92.4 69.2L327-365.4M79.6 62.3l234.6-434.6M66.8 55.4l234.6-434.6"/><path class="prefix__cls-4" d="M386.8 157.1l9.6 5.1.1-.3-9.4-5.1q-.1.3-.3.3zM380.2 153.6l-.1-.4L85.6-5.9l-.1.3z"/><path class="prefix__cls-3" transform="rotate(-61.64 393.638 157.044)" d="M393.48 152.15h.3v9.8h-.3z"/><path class="prefix__cls-3" d="M380.7 150.3a.44.44 0 00.1-.3L87.1-8.6l-.1.3z"/><path class="prefix__cls-3" transform="rotate(-61.64 395.007 154.35)" d="M394.85 149.45h.3v9.8h-.3z"/><path class="prefix__cls-3" d="M382.2 147.6l.1-.3L88.5-11.3l-.1.3zM383.7 144.9l.1-.3L90-14.1l-.1.3z"/><path class="prefix__cls-3" transform="rotate(-61.64 396.556 151.638)" d="M396.39 146.69h.3v9.9h-.3z"/><path class="prefix__cls-4" transform="rotate(-61.64 398.052 148.882)" d="M397.89 143.94h.3v9.9h-.3z"/><path class="prefix__cls-4" d="M385.1 142.1l.1-.3L91.5-16.8l-.1.3z"/><path class="prefix__cls-3" transform="rotate(-61.64 399.426 146.18)" d="M399.27 141.23h.3v9.9h-.3z"/><path class="prefix__cls-3" d="M386.6 139.4a.37.37 0 00.1-.3L92.9-19.5l-.1.3zM396.2 141.1l9 4.9.1-.3-9.1-4.9zM388.4 136.9c.1-.1.2-.1.3-.2L94.5-22.2l-.1.3zM425.4 75.9a4.62 4.62 0 01-.7-.7l-296.5-160-.1.3zM427 76.8l12.1 6.6.1-.3L428 77a3.55 3.55 0 01-1-.2zM431.7 75.8l8.9 4.8.1-.3-8.8-4.7zM423.6 71.5l.1-.3-294-158.7-.1.3zM433.2 73.1l8.8 4.7.1-.3-8.9-4.8zM425 68.7l.2-.2-294-158.8-.2.3z"/><path class="prefix__cls-4" d="M432.2 69.1l11.2 6.1.1-.3-12.2-6.6a2.36 2.36 0 01.9.8zM428.9 67.3a2 2 0 011.1.3L132.7-93l-.1.3z"/><path class="prefix__cls-3" d="M438.7 55l12.1 6.6.1-.3-11.2-6c-.3-.1-.6-.2-1-.3zM437.1 54.2a4.62 4.62 0 01-.7-.7L140-106.6l-.1.3zM443.4 54l8.9 4.8.1-.3-8.8-4.8c0 .2-.1.3-.2.3zM435.4 49.7l.1-.3-294-158.7-.1.3z"/><path class="prefix__cls-3" transform="rotate(-61.64 449.5 53.561)" d="M449.34 48.66h.3v9.8h-.3z"/><path class="prefix__cls-3" d="M436.6 46.8c0-.1.1-.2.1-.3L142.9-112.1l-.1.3z"/><path class="prefix__cls-4" d="M438.1 44.1l.1-.3-293.8-158.6-.1.3z"/><path class="prefix__cls-4" transform="rotate(-61.64 450.984 50.901)" d="M450.83 45.95h.3v9.9h-.3z"/><path class="prefix__cls-3" d="M439.6 41.4l.1-.3-293.8-158.7-.1.3z"/><path class="prefix__cls-3" transform="rotate(-61.64 452.4 48.11)" d="M452.24 43.16h.3v9.9h-.3z"/><path class="prefix__cls-3" transform="rotate(-61.64 453.868 45.44)" d="M453.71 40.5h.3v9.9h-.3z"/><path class="prefix__cls-3" d="M441 38.7l.1-.3-293.8-158.7-.1.3zM450.9 40.5l8.7 4.7.1-.3-8.7-4.7zM442.5 35.9c.1 0 .1-.2.2-.3L148.8-123l-.1.3z"/><path class="prefix__cls-4" d="M445 33.8a.6.6 0 01.4-.1L150.3-125.7l-.1.3zM451.3 37.2l9.8 5.3.1-.3-10.1-5.5a.65.65 0 01.2.5z"/><path class="prefix__cls-3" d="M382.2 165.2l9.8 5.3.1-.3-10.1-5.4c.1.1.1.2.2.4zM376.1 161.8a.6.6 0 01.4-.1L81.2 2.3l-.2.3z"/><path class="prefix__cls-7" d="M268.2 107a2 2 0 01-.3 2.5l-4 4a4.36 4.36 0 01-2.9 1.1l-29.1-1.3v-.8l29 1.4a3.1 3.1 0 002.2-.9l4-4a1.36 1.36 0 00.1-1.7l-3.6-4.3a3.58 3.58 0 00-2.2-1.1l-32.7-1.5a1 1 0 00-1.1 1l-.4 8.4a1 1 0 001 1.1l24.1 1.1a3.1 3.1 0 002.2-.9l2.7-2.7a1.23 1.23 0 00.1-1.6L255 104a3.58 3.58 0 00-2.2-1.1l-20.4-1v-.8l20.4 1a4 4 0 012.7 1.4l2.4 2.9a2.13 2.13 0 01-.1 2.8l-2.7 2.7a4.36 4.36 0 01-2.9 1.1l-24-1.1a1.84 1.84 0 01-1.8-2l.4-8.4a1.9 1.9 0 012-1.8l32.8 1.5a4 4 0 012.7 1.4l3.6 4.3z"/><path class="prefix__cls-8" d="M231.7 100.9l17.1.8c2.7.1 5.8 1.4 7 2.8a3.81 3.81 0 01-.2 5c-1.3 1.3-4.6 2.3-7.2 2.2l-17.4-.8a4.83 4.83 0 01-4.6-5.1l.1-1.7a4.83 4.83 0 015.1-4.6l26.1 1.3a12.22 12.22 0 017.6 3.5 4.74 4.74 0 01-.3 6.3 11.45 11.45 0 01-7.9 2.8l-25.7-1.3"/><path class="prefix__cls-7" d="M343.1 111.2a2 2 0 01.3 1.1v5.7a4 4 0 01-1.2 2.8l-21.4 19.7-.6-.6 21.4-19.7a3.72 3.72 0 001-2.2v-5.7a1.28 1.28 0 00-1.1-1.2l-5.6-.5a4 4 0 00-2.3.8l-24.2 22.2a1.09 1.09 0 00-.1 1.5l5.7 6.2a1.09 1.09 0 001.5.1l17.8-16.3a3.72 3.72 0 001-2.2v-3.8a1.28 1.28 0 00-1.1-1.2l-3.8-.3a4 4 0 00-2.3.8L313 132l-.6-.6 15.1-13.8a4.45 4.45 0 012.9-1l3.8.3a2.23 2.23 0 011.9 2v3.8a4.49 4.49 0 01-1.2 2.8l-17.7 16.3a1.9 1.9 0 01-2.7-.1l-5.7-6.2a1.9 1.9 0 01.1-2.7l24.2-22.1a4.45 4.45 0 012.9-1l5.6.5a2 2 0 011.5 1z"/><path class="prefix__cls-8" d="M311.8 131.9l12.6-11.5c2-1.8 5.1-3.2 6.9-3a3.78 3.78 0 013.4 3.7c0 1.9-1.6 4.9-3.6 6.7l-12.8 11.8a4.77 4.77 0 01-6.8-.3l-1.1-1.3a4.77 4.77 0 01.3-6.8l19.2-17.6a12 12 0 017.8-2.9 4.93 4.93 0 014.3 4.7 12.22 12.22 0 01-3.5 7.6l-19 17.4"/><path class="prefix__cls-7" d="M280.9 129.9a1.84 1.84 0 01.2 1.6l-10.3 31.1a4.29 4.29 0 01-2.1 2.3l-5.1 2.3a2.07 2.07 0 01-2.6-.9l-2.8-4.9a4.11 4.11 0 01-.3-3.1l9.1-27.6.8.3-9.1 27.6a4 4 0 00.2 2.4l2.8 4.9a1.17 1.17 0 001.5.5l5.1-2.3a3.53 3.53 0 001.6-1.8l10.3-31.1a.75.75 0 00-.1-.8.63.63 0 00-.6-.5l-7.9-2.6a1.08 1.08 0 00-1.4.7l-7.5 22.9a4 4 0 00.2 2.4l1.9 3.3a1.26 1.26 0 001.6.5l3.5-1.6a3.53 3.53 0 001.6-1.8l6.4-19.4.8.3-6.4 19.4a4.52 4.52 0 01-2 2.3l-3.5 1.6a2 2 0 01-2.6-.9l-1.9-3.3a4.11 4.11 0 01-.3-3.1l7.5-22.9a1.9 1.9 0 012.4-1.2l8 2.6a2.72 2.72 0 011 .8z"/><path class="prefix__cls-8" d="M278.1 133.5l-5.4 16.2c-.8 2.5-2.9 5.2-4.6 6a3.74 3.74 0 01-4.8-1.6c-.9-1.6-1-5-.2-7.6l5.4-16.6a4.9 4.9 0 016.1-3.1l1.6.6a4.9 4.9 0 013.1 6.1l-8.2 24.8a12.15 12.15 0 01-5.4 6.4 4.81 4.81 0 01-6-2 11.91 11.91 0 01-.6-8.3l8.1-24.4"/><path class="prefix__cls-7" d="M256.6 128.2a4.88 4.88 0 01.3.7l1.4 8.3a1.9 1.9 0 01-1.6 2.2l-32.3 5.4a4.17 4.17 0 01-3-.8l-4.4-3.4a2.16 2.16 0 01-.5-2.7l3.1-4.8a3.9 3.9 0 012.6-1.7l28.7-4.8.1.8-28.7 4.7a3.9 3.9 0 00-2 1.3l-3.1 4.7a1.25 1.25 0 00.3 1.6l4.4 3.4a3.22 3.22 0 002.3.6l32.3-5.4a1.09 1.09 0 00.9-1.2L256 129a1 1 0 00-1.2-.9l-23.8 4a3.36 3.36 0 00-2 1.3l-2.1 3.2a1.25 1.25 0 00.3 1.6l3 2.4a3.22 3.22 0 002.3.6l20.2-3.4.1.8-20.2 3.3a4.49 4.49 0 01-3-.7l-3-2.3a2.16 2.16 0 01-.5-2.7l2.1-3.2a4.45 4.45 0 012.6-1.6l23.8-3.9a1.59 1.59 0 012 .7z"/><path class="prefix__cls-8" d="M252.9 137.7l-16.9 2.8c-2.6.5-6-.1-7.4-1.3a3.72 3.72 0 01-.8-4.9c1-1.6 4-3.2 6.6-3.7l17.1-2.8a4.92 4.92 0 015.6 4l.3 1.7a4.92 4.92 0 01-4 5.6l-25.7 4.3a12.18 12.18 0 01-8.1-1.8 4.78 4.78 0 01-1-6.3 11.69 11.69 0 017.1-4.4l25.4-4.2"/><g opacity=".1"><path class="prefix__cls-10" d="M401.5-9.1a10.6 10.6 0 012.1 1.1 5.24 5.24 0 011.1 1 4.67 4.67 0 01.5 1 1 1 0 01-.4 1c-.7.6-2.3 1.1-2.7 1.7s0 1.3.9 2.1a11.41 11.41 0 011.1 1.1 3.7 3.7 0 01.5 1.1 3.73 3.73 0 01.3 2.1 4.62 4.62 0 01-1.7 1.7 11.49 11.49 0 01-3.7 1.2l-.9-.2a20.28 20.28 0 01-1.8-1.3l-.6-.6a2.65 2.65 0 01-.5-.6 4.13 4.13 0 01-.7-1.1 1.69 1.69 0 01-.3-1c-.1-.6.5-1.2.9-1.7a3 3 0 01.8-.8 6.11 6.11 0 011.4-.7c1-.5 1.6-1.1 1.3-1.7s-1.7-1.4-2.3-2.1a.65.65 0 01-.2-.9 4.7 4.7 0 01.6-.9 5.67 5.67 0 011.3-.8 9 9 0 012.1-.8zM364.7 56.7c-20.2 17.7-52 22.5-77.4 11a78.07 78.07 0 01-17.3-11 108.11 108.11 0 01-14.2-14.5 103.06 103.06 0 01-18.9-35.3 85.21 85.21 0 01-2.3-10 70.46 70.46 0 01-1-10.3 75.24 75.24 0 012.2-20.6 83.2 83.2 0 017.3-19.5l1.2-2.3c.4-.8.8-1.5 1.3-2.3l2.9-4.4c.5-.7 1-1.4 1.6-2.1l1.6-2.1c.6-.7 1.1-1.4 1.7-2l1.8-1.9 1.8-1.9.9-.9 1-.9c1.3-1.2 2.6-2.3 3.9-3.5a81.69 81.69 0 018.5-6l2.2-1.4a16.65 16.65 0 012.3-1.2c1.6-.8 3.1-1.6 4.7-2.3l4.8-2c1.6-.6 3.3-1.1 4.9-1.6a40.71 40.71 0 015-1.3c1.7-.4 3.4-.7 5.1-1s3.4-.5 5.1-.7l5.1-.3a70.66 70.66 0 0120 2.3l-.1 1a114.66 114.66 0 00-19.4 1.7 97.76 97.76 0 00-18.2 5.5 79.38 79.38 0 00-16.3 9.2c-2.5 1.8-4.9 3.7-7.3 5.8-1.1 1.1-2.2 2.2-3.3 3.2l-.8.8-.8.9-1.5 1.7A84.72 84.72 0 00252-48.4l-1.2 2-1.1 2.1c-.7 1.4-1.3 2.8-2 4.2a38.35 38.35 0 00-1.7 4.3 29.6 29.6 0 00-1.4 4.5A88.65 88.65 0 00242.1 6c.3 1.6.5 3.2.9 4.7l.5 2.3.7 2.3c.4 1.6 1 3.1 1.5 4.6a43.19 43.19 0 001.9 4.5 63.56 63.56 0 0025.5 28.3 85.28 85.28 0 008.5 4.4l2.2 1c.7.3 1.5.6 2.2.9 1.5.6 2.9 1.2 4.4 1.7a104.44 104.44 0 0018.1 4.6 89.86 89.86 0 0018.7.8 101.59 101.59 0 0037-9.8z"/><path class="prefix__cls-10" d="M399.6 6.1a16.8 16.8 0 011 8.6 18.61 18.61 0 01-.8 4.1 12.7 12.7 0 01-1.8 3.7c-1.7 2.2-4.3 4-5.8 6.1a21.53 21.53 0 00-3.3 7.4 27 27 0 01-1.4 4 30.65 30.65 0 01-2 3.6 29.72 29.72 0 01-5.2 6.5 30.56 30.56 0 01-7.1 4.5 22.52 22.52 0 01-8.5 2l-.5-.8a52 52 0 014.2-7.2 41.94 41.94 0 0110.1-10.9c.9-.8 1.8-1.7 2.8-2.5s2.1-1.5 3.3-2.3a13.37 13.37 0 004.9-5.9c1-2.4.7-5.4 1.1-7.9a11.18 11.18 0 011.2-3.5 26.85 26.85 0 011.8-3.3c.7-1.1 1.4-2.2 2.2-3.3a22.74 22.74 0 013-3.2z"/></g><path style="isolation:isolate" opacity=".15" fill="#403f41" d="M256.3-174.6l-.4-.1-.5.6-.1.2.1-.1-2.6 2.8-2.1 2.4-9.8 11.1-.8.8-5.3 6-5.2 5.9-5.3 6-5.3 5.9-5.2 6-5.2 5.9-5.3 6-5.3 5.9-5.3 6-3.8 4.2-6.8 7.8-5.3 5.9-5.2 5.9-3.9 4.3-17.2 19.4-5.2 6-5.3 6-.7.8-9.8 11.1-4.8 5.4L119-20l-5.3 6-5.3 5.9-1.1 1.3-9.4 10.6-3.8 4.3-6.7 7.6-5.3 6-15.8 17.8-5.3 6-10.5 11.8v.1l-1.3 1.5-1.2 1.3-.8.8-2.5 2.9-1.7 1.9-1.3 1.5-10.9 12.3L44 91.3 58.4 75l5.2-5.8 5.4-6.1 4.2-4.8 6.3-7.1 5.3-6 5.2-5.9 5.3-5.9 5.3-6 5.2-6 5.3-5.9 5.3-6 5.2-5.9 5.3-6 15.8-17.8 5.3-6 5.2-5.9 5.3-6 5.3-5.9 5.2-6 5.3-5.9 5.3-6 5.2-5.9 2.6-3 8-8.9 4.5-5.2 6-6.7 5.3-6 7-7.9 3.5-4 5.3-5.9 5.2-6 5.3-5.9 5.3-6 15.8-17.8 5.2-6 4.7-5.2.1-.1-.1-.1.3-.6.3.1 8.8-23.7-4.8 2.7-16.8 9.4z"/><path class="prefix__cls-12" transform="rotate(-48.49 153.714 -48.355)" d="M-4.73-57.17h316.9v17.6H-4.73z"/><path transform="rotate(-48.49 41.476 78.492)" fill="#d7aeca" d="M30.48 69.7h22v17.6h-22z"/><path class="prefix__cls-14" d="M100-.8l5.2-6 18.5 5.7-5.3 6L100-.8zM89.4 11.1l5.3-6 18.5 5.7-5.3 6-18.5-5.7zM78.9 23l5.2-6 18.5 5.7-5.2 6L78.9 23zM68.3 34.9l5.3-6 18.5 5.7-5.3 6-18.5-5.7zM57.8 46.8l5.3-6 18.5 5.7-5.3 6-18.5-5.7zM47.3 58.7l5.2-6L71 58.4l-5.2 6-18.5-5.7z"/><g clip-path="url(#prefix__clip-path)"><path class="prefix__cls-14" d="M36.8 70.6l5.2-6 18.5 5.7-5.3 6-18.4-5.7z"/></g><path transform="rotate(-48.49 48.835 70.188)" fill="#d6d6d6" d="M43.19 61.39h11.3v17.6h-11.3z"/><path class="prefix__cls-17" transform="rotate(-48.52 47.072 72.19)" d="M45.72 63.39h2.7v17.6h-2.7z"/><path class="prefix__cls-17" transform="rotate(-48.52 50.341 68.43)" d="M49 59.63h2.7v17.6H49z"/><path style="isolation:isolate" opacity=".2" fill="#fff" d="M257.3-152.5l2.1 1.8L52.7 82.5l-2.1-1.9 206.7-233.1z"/><path stroke="#bbb" stroke-miterlimit="10" fill="none" d="M165.8 204.9l-.6.3"/><g opacity=".5"><path class="prefix__cls-10" d="M82.1 276.1a8.17 8.17 0 01-2 1.2 4.19 4.19 0 01-1.5.4 3.75 3.75 0 01-1.1-.1.76.76 0 01-.6-.8c-.2-.9.3-2.6 0-3.2s-1.1-.7-2.2-.4a7.58 7.58 0 01-1.6.3 4.87 4.87 0 01-1.2-.1 2.46 2.46 0 01-1.9-.9 4.75 4.75 0 01-.6-2.4 12.41 12.41 0 01.9-3.8l.7-.7a18 18 0 012.1-.8 3.09 3.09 0 01.8-.2 2 2 0 01.8-.1H76a1.93 1.93 0 011 .3 2.82 2.82 0 01.9 1.6 4.25 4.25 0 01.2 1.1 7.57 7.57 0 01-.1 1.5c-.1 1.1.1 1.9.8 2s2.1-.7 3-.9a.81.81 0 01.9.3 1.78 1.78 0 01.4 1 3.79 3.79 0 010 1.5 18.46 18.46 0 01-.4 2.3zM120.6 290a8.8 8.8 0 01-7 2.9 3.77 3.77 0 01-2.1-.7c-1.4-.9-2.4-2.8-3.7-3.4a5.84 5.84 0 00-4.5-.1 22.11 22.11 0 01-2.5.5 17 17 0 01-2.3-.1 18.46 18.46 0 01-2.3-.4 7.61 7.61 0 01-2.1-.8 11.66 11.66 0 01-3.5-3.1 10.89 10.89 0 01-1.4-2.3 9.18 9.18 0 01-.9-2.8l.5-.9a12.9 12.9 0 012.8-.8 9.86 9.86 0 012.4-.3 16.2 16.2 0 012.2.1 11.8 11.8 0 012 .4 11 11 0 013.5 2 10.92 10.92 0 011.7 1.3c.5.5 1 1.2 1.6 1.8a12.88 12.88 0 001.7 1.6 3.61 3.61 0 002 .6 4.65 4.65 0 002.3-.6 9.17 9.17 0 012.3-.9 3.38 3.38 0 012 .1 6.63 6.63 0 011.9.9 13.3 13.3 0 011.9 1.4 21.1 21.1 0 011.9 2.3v1.3zM191.5 261a13.41 13.41 0 01-1 4.4 16.49 16.49 0 01-2 3.7 26 26 0 01-2.6 3.2 11.19 11.19 0 01-3.3 2.4c-2.5 1.2-5.6 1.5-7.9 2.8a23.58 23.58 0 00-6.3 5 27.55 27.55 0 01-3 2.9 25.38 25.38 0 01-3.4 2.3 29.83 29.83 0 01-7.5 3.4 28.91 28.91 0 01-8.3.8 22 22 0 01-8.4-2l-.1-1a51 51 0 016.9-4.5 70.79 70.79 0 016.8-3.2 57.1 57.1 0 017.1-1.9c1.2-.3 2.4-.7 3.6-.9s2.6-.4 3.9-.6a14.34 14.34 0 007.1-2.9c2-1.7 3.1-4.4 4.6-6.4a10.7 10.7 0 012.6-2.6 21.12 21.12 0 013.1-2.1c1.1-.7 2.3-1.3 3.4-1.9a28.64 28.64 0 014.1-1.5z"/><path class="prefix__cls-10" d="M46.2 209.8c-4.2-26.5 8.7-56 32-71.3a79.25 79.25 0 0118.6-8.8 112.59 112.59 0 0119.8-4.2 104.43 104.43 0 0140.1 2.9 85.85 85.85 0 019.7 3.4 60.77 60.77 0 019.2 4.6 81.23 81.23 0 0116.3 12.9 84.51 84.51 0 0112.6 16.6l1.3 2.3a10.08 10.08 0 011.2 2.3l2.2 4.8a24.43 24.43 0 011 2.4l.9 2.5c.3.8.6 1.6.9 2.5l.7 2.5.6 2.6.3 1.3.2 1.3c.3 1.7.6 3.5.8 5.2a73.15 73.15 0 01.5 10.4v2.6a22.75 22.75 0 01-.2 2.6c-.2 1.7-.3 3.5-.5 5.2l-.9 5.1c-.3 1.7-.8 3.4-1.2 5a39.74 39.74 0 01-1.5 4.9 47.8 47.8 0 01-1.9 4.8c-.7 1.6-1.4 3.1-2.1 4.7l-2.5 4.5a73.64 73.64 0 01-12.6 15.7l-.8-.6a113.06 113.06 0 008.9-17.3 90.24 90.24 0 005-18.3 83.53 83.53 0 00.9-18.7 92.42 92.42 0 00-1-9.2l-.9-4.5-.2-1.1-.3-1.1-.6-2.2a87.43 87.43 0 00-6.9-17.1l-1.1-2.1-1.2-2c-.8-1.4-1.7-2.6-2.5-3.9s-1.8-2.5-2.7-3.8a33.67 33.67 0 00-3-3.6 89.06 89.06 0 00-30.2-22.1c-1.5-.6-2.9-1.2-4.5-1.7l-2.3-.8-2.3-.7c-1.5-.5-3.1-.8-4.7-1.2a40 40 0 00-4.8-.8 63.16 63.16 0 00-37.5 6.5c-2.8 1.5-5.6 3.1-8.3 4.8l-2 1.3a23.07 23.07 0 00-1.9 1.4 35.83 35.83 0 00-3.7 2.8A110.47 110.47 0 0069.5 158a86.45 86.45 0 00-10.7 15.4 101.81 101.81 0 00-11.5 36.5h-1.1z"/><path class="prefix__cls-10" d="M70.4 266.4a16.17 16.17 0 01-7.8-3.7 20.57 20.57 0 01-3-2.9 11.52 11.52 0 01-2.2-3.5c-1-2.6-1.1-5.8-2.1-8.2a21.93 21.93 0 00-4.5-6.7c-1-1.1-1.8-2.2-2.7-3.3a26.43 26.43 0 01-2-3.7 27.36 27.36 0 01-2.7-7.9 29.55 29.55 0 010-8.4 21.61 21.61 0 012.8-8.2h1a47.33 47.33 0 013.9 7.4 60.35 60.35 0 012.6 7.1 60.49 60.49 0 011.3 7.2c.2 1.2.4 2.4.6 3.7a25.49 25.49 0 01.2 3.9 13.52 13.52 0 002.4 7.3c1.5 2.1 4.1 3.5 6.1 5.2a13.74 13.74 0 012.4 2.9 35.42 35.42 0 011.9 3.3c.6 1.2 1.1 2.4 1.6 3.6a21.7 21.7 0 011.1 4.2z"/></g><path class="prefix__cls-12" d="M33.2 255.5a12.52 12.52 0 014.3-17.1l17.1-10.2a12.5 12.5 0 0117.1 4.3l2.2 3.7a12.5 12.5 0 01-4.3 17.1l-17.1 10.2a12.5 12.5 0 01-17.1-4.3z"/><path d="M73.9 236.2l-2.2-3.7a12.5 12.5 0 00-17.1-4.3l-4.2 2.5a85.62 85.62 0 0014.9 25.2l4.3-2.6a12.41 12.41 0 004.3-17.1z" style="isolation:isolate" fill="#313032" opacity=".1"/><circle class="prefix__cls-12" cx="131.8" cy="199.4" r="84.1"/><circle cx="131.79" cy="199.41" r="75" fill="#d1ab82"/><circle cx="131.79" cy="199.42" r="68.5" fill="#d8b58b"/><path style="isolation:isolate" opacity=".1" d="M229 312.8l-14.6-44.4-6.9 2.3-37.2 12.2 6.9 21 7.7 23.4 44.1-14.5z"/><path transform="rotate(-18.2 201.165 296.617)" fill="#a2d068" d="M177.99 273.3h46.4V320h-46.4z"/><path d="M178.7 302.7a22.62 22.62 0 0030.3-33.3l-37.2 12.2z" fill="#f5d13b"/><path class="prefix__cls-27" transform="rotate(-18.2 198.416 288.397)" d="M179.89 283.32h37.1v10.2h-37.1z"/><path class="prefix__cls-27" d="M212.8 283.8c1.5 4.4-3.8 10.1-11.7 12.7s-15.5 1.1-16.9-3.3 3.8-10.1 11.7-12.7 15.4-1.2 16.9 3.3z"/><path class="prefix__cls-2" transform="rotate(-18.2 198.62 288.525)" d="M189.5 286.71h18.3v3.7h-18.3z"/><path class="prefix__cls-28" d="M183.6 265.7q-3-3-6.3-6.6M193.3 274.6s-8.1-2.2-12.8-6.6"/></svg>