<svg id="Calque_1" data-name="Calque 1" xmlns="http://www.w3.org/2000/svg" xmlns:xlink="http://www.w3.org/1999/xlink" viewBox="0 0 580 600"><defs><style>.cls-1,.cls-5,.cls-6,.cls-8{fill:none;}.cls-2,.cls-20{fill:#fff;}.cls-3{fill:#c9def2;}.cls-4{fill:#aecbed;}.cls-5{stroke:#d57482;}.cls-5,.cls-6,.cls-8{stroke-miterlimit:10;}.cls-6{stroke:#aecbed;}.cls-11,.cls-17,.cls-7{fill:#403f41;}.cls-7,.cls-9{opacity:0.1;}.cls-8{stroke:#686868;stroke-width:2.66px;}.cls-10{fill:#cf943a;}.cls-11{opacity:0.15;}.cls-12{fill:#f6f2e7;}.cls-13{fill:#d7aeca;}.cls-14{fill:#a9dde2;}.cls-15{clip-path:url(#clip-path);}.cls-16{fill:#dfd7ce;}.cls-18{fill:#d6d6d6;}.cls-19{fill:#ededed;}.cls-20{opacity:0.2;}</style><clipPath id="clip-path"><rect class="cls-1" x="374.34" y="43.73" width="17.64" height="316.89" transform="translate(-41.24 115.16) rotate(-16.23)"/></clipPath></defs><title>help-center-2</title><path class="cls-2" d="M543.54,86,200.88,11,95.27,493.47l342.66,75a3.1,3.1,0,0,0,3.56-2.55L545.78,89.51A2.84,2.84,0,0,0,543.54,86ZM117.18,463.33a4.87,4.87,0,1,1,5.8-3.72A4.87,4.87,0,0,1,117.18,463.33Zm-.29-21.21,3-13.29a4.8,4.8,0,1,1,9.37,2.05l-2.9,13.31a4.84,4.84,0,1,1-9.45-2.07Zm23.22-83.54a4.87,4.87,0,1,1,5.8-3.71A4.86,4.86,0,0,1,140.11,358.58Zm1.63-30,3-13.3a4.8,4.8,0,1,1,9.37,2.05l-2.9,13.32a4.84,4.84,0,1,1-9.45-2.07Zm18.75-63.13a4.88,4.88,0,1,1,5.8-3.72A4.89,4.89,0,0,1,160.49,265.48Zm11.43-74.72a4.81,4.81,0,0,1,5.73-3.73,4.87,4.87,0,0,1,3.72,5.8l-2.93,13.31a4.8,4.8,0,1,1-9.37-2Zm9-18.39a4.87,4.87,0,1,1,5.8-3.72A4.89,4.89,0,0,1,180.87,172.37Zm15.89-95.12a4.84,4.84,0,1,1,9.45,2.07l-2.92,13.3a4.8,4.8,0,1,1-9.38-2.05Zm7-9.63a4.87,4.87,0,1,1,5.8-3.72A4.88,4.88,0,0,1,203.8,67.62Z"/><polygon class="cls-3" points="534.3 141.96 189.07 66.39 189.14 66.08 534.37 141.65 534.3 141.96"/><rect class="cls-3" x="360.9" y="-69.66" width="0.31" height="353.4" transform="translate(179.28 436.86) rotate(-77.65)"/><polygon class="cls-4" points="527.68 172.19 182.45 96.62 182.52 96.31 527.75 171.88 527.68 172.19"/><polygon class="cls-3" points="528.34 169.16 183.12 93.59 183.18 93.29 528.41 168.86 528.34 169.16"/><rect class="cls-4" x="352.3" y="-30.36" width="0.31" height="353.4" transform="translate(134.13 459.35) rotate(-77.65)"/><polygon class="cls-3" points="527.02 175.21 181.79 99.64 181.86 99.34 527.09 174.91 527.02 175.21"/><polygon class="cls-3" points="526.36 178.23 181.13 102.66 181.2 102.36 526.42 177.93 526.36 178.23"/><polygon class="cls-3" points="525.7 181.25 180.47 105.69 180.53 105.38 525.76 180.95 525.7 181.25"/><polygon class="cls-4" points="522.39 196.37 177.16 120.8 177.23 120.5 522.45 196.07 522.39 196.37"/><rect class="cls-3" x="351.64" y="-27.34" width="0.31" height="353.4" transform="translate(130.66 461.08) rotate(-77.65)"/><rect class="cls-3" x="350.98" y="-24.31" width="0.31" height="353.4" transform="translate(127.18 462.81) rotate(-77.65)"/><polygon class="cls-3" points="523.05 193.35 177.82 117.78 177.89 117.48 523.12 193.04 523.05 193.35"/><polygon class="cls-4" points="519.74 208.46 174.51 132.89 174.58 132.59 519.81 208.16 519.74 208.46"/><rect class="cls-3" x="348.99" y="-15.24" width="0.31" height="353.4" transform="translate(116.76 468) rotate(-77.65)"/><polygon class="cls-3" points="521.06 202.42 175.84 126.85 175.9 126.55 521.13 202.11 521.06 202.42"/><rect class="cls-3" x="347.67" y="-9.2" width="0.31" height="353.4" transform="translate(109.82 471.46) rotate(-77.65)"/><rect class="cls-4" x="344.36" y="5.92" width="0.31" height="353.4" transform="translate(92.45 480.11) rotate(-77.65)"/><rect class="cls-3" x="346.34" y="-3.15" width="0.31" height="353.4" transform="translate(102.87 474.92) rotate(-77.65)"/><rect class="cls-3" x="345.68" y="-0.13" width="0.31" height="353.4" transform="translate(99.4 476.65) rotate(-77.65)"/><polygon class="cls-3" points="517.76 217.53 172.53 141.96 172.59 141.66 517.82 217.23 517.76 217.53"/><polygon class="cls-4" points="514.45 232.65 169.22 157.08 169.28 156.78 514.51 232.34 514.45 232.65"/><rect class="cls-3" x="343.7" y="8.94" width="0.31" height="353.4" transform="translate(88.98 481.84) rotate(-77.65)"/><polygon class="cls-3" points="515.77 226.6 170.54 151.03 170.61 150.73 515.84 226.3 515.77 226.6"/><polygon class="cls-3" points="515.11 229.62 169.88 154.05 169.95 153.75 515.17 229.32 515.11 229.62"/><rect class="cls-4" x="336.42" y="42.19" width="0.31" height="353.4" transform="translate(50.77 500.88) rotate(-77.65)"/><rect class="cls-3" x="338.4" y="33.12" width="0.31" height="353.4" transform="translate(61.19 495.68) rotate(-77.65)"/><rect class="cls-3" x="337.74" y="36.15" width="0.31" height="353.4" transform="translate(57.72 497.42) rotate(-77.65)"/><polygon class="cls-3" points="509.81 253.81 164.59 178.24 164.65 177.94 509.88 253.5 509.81 253.81"/><polygon class="cls-4" points="501.21 293.11 155.99 217.54 156.05 217.24 501.28 292.8 501.21 293.11"/><rect class="cls-3" x="330.46" y="69.4" width="0.31" height="353.4" transform="translate(19.51 516.45) rotate(-77.65)"/><rect class="cls-3" x="329.8" y="72.42" width="0.31" height="353.4" transform="translate(16.04 518.18) rotate(-77.65)"/><polygon class="cls-3" points="501.87 290.08 156.65 214.51 156.71 214.21 501.94 289.78 501.87 290.08"/><rect class="cls-4" x="325.83" y="90.56" width="0.31" height="353.4" transform="translate(-4.8 528.56) rotate(-77.65)"/><polygon class="cls-3" points="500.55 296.13 155.32 220.56 155.39 220.26 500.62 295.83 500.55 296.13"/><polygon class="cls-3" points="499.89 299.15 154.66 223.58 154.73 223.28 499.95 298.85 499.89 299.15"/><polygon class="cls-3" points="499.23 302.18 154 226.61 154.07 226.3 499.29 301.87 499.23 302.18"/><polygon class="cls-4" points="495.92 317.29 150.69 241.72 150.76 241.42 495.99 316.99 495.92 317.29"/><rect class="cls-3" x="325.17" y="93.59" width="0.31" height="353.4" transform="translate(-8.28 530.29) rotate(-77.65)"/><rect class="cls-3" x="324.51" y="96.61" width="0.31" height="353.4" transform="translate(-11.75 532.02) rotate(-77.65)"/><polygon class="cls-3" points="496.58 314.27 151.35 238.7 151.42 238.4 496.65 313.96 496.58 314.27"/><rect class="cls-3" x="322.52" y="105.68" width="0.31" height="353.4" transform="translate(-22.17 537.21) rotate(-77.65)"/><polygon class="cls-3" points="494.6 323.34 149.37 247.77 149.43 247.47 494.66 323.03 494.6 323.34"/><rect class="cls-3" x="321.2" y="111.72" width="0.31" height="353.4" transform="translate(-29.12 540.67) rotate(-77.65)"/><rect class="cls-4" x="317.89" y="126.84" width="0.31" height="353.4" transform="translate(-46.48 549.32) rotate(-77.65)"/><polygon class="cls-3" points="491.29 338.45 146.06 262.88 146.13 262.58 491.35 338.15 491.29 338.45"/><polygon class="cls-4" points="487.98 353.57 142.75 278 142.82 277.69 488.04 353.26 487.98 353.57"/><polygon class="cls-3" points="489.96 344.5 144.74 268.93 144.8 268.63 490.03 344.2 489.96 344.5"/><polygon class="cls-3" points="489.3 347.52 144.07 271.95 144.14 271.65 489.37 347.22 489.3 347.52"/><polygon class="cls-3" points="488.64 350.54 143.41 274.98 143.48 274.67 488.71 350.24 488.64 350.54"/><polygon class="cls-4" points="485.33 365.66 140.1 290.09 140.17 289.79 485.4 365.36 485.33 365.66"/><rect class="cls-3" x="314.58" y="141.95" width="0.31" height="353.4" transform="translate(-63.85 557.97) rotate(-77.65)"/><polygon class="cls-3" points="486.65 359.61 141.43 284.04 141.49 283.74 486.72 359.31 486.65 359.61"/><polygon class="cls-3" points="485.99 362.64 140.76 287.07 140.83 286.76 486.06 362.33 485.99 362.64"/><rect class="cls-4" x="309.95" y="163.11" width="0.31" height="353.4" transform="translate(-88.16 570.08) rotate(-77.65)"/><rect class="cls-3" x="311.93" y="154.05" width="0.31" height="353.4" transform="translate(-77.74 564.89) rotate(-77.65)"/><rect class="cls-3" x="311.27" y="157.07" width="0.31" height="353.4" transform="translate(-81.22 566.62) rotate(-77.65)"/><rect class="cls-3" x="310.61" y="160.09" width="0.31" height="353.4" transform="translate(-84.69 568.35) rotate(-77.65)"/><rect class="cls-3" x="309.29" y="166.14" width="0.31" height="353.4" transform="translate(-91.64 571.81) rotate(-77.65)"/><polygon class="cls-3" points="481.36 383.8 136.13 308.23 136.2 307.93 481.43 383.49 481.36 383.8"/><polygon class="cls-4" points="474.74 414.03 129.52 338.46 129.58 338.16 474.81 413.73 474.74 414.03"/><rect class="cls-3" x="303.33" y="193.34" width="0.31" height="353.4" transform="translate(-122.9 587.38) rotate(-77.65)"/><polygon class="cls-3" points="475.4 411 130.18 335.44 130.24 335.13 475.47 410.7 475.4 411"/><polygon class="cls-3" points="474.08 417.05 128.85 341.48 128.92 341.18 474.15 416.75 474.08 417.05"/><polygon class="cls-3" points="473.42 420.07 128.19 344.5 128.26 344.2 473.49 419.77 473.42 420.07"/><rect class="cls-4" x="296.71" y="223.57" width="0.31" height="353.4" transform="translate(-157.63 604.69) rotate(-77.65)"/><rect class="cls-3" x="298.04" y="217.53" width="0.31" height="353.4" transform="translate(-150.68 601.23) rotate(-77.65)"/><polygon class="cls-3" points="470.11 435.19 124.88 359.62 124.95 359.32 470.18 434.89 470.11 435.19"/><polygon class="cls-4" points="466.8 450.3 121.58 374.73 121.64 374.43 466.87 450 466.8 450.3"/><rect class="cls-3" x="296.05" y="226.6" width="0.31" height="353.4" transform="translate(-161.1 606.42) rotate(-77.65)"/><polygon class="cls-3" points="468.13 444.26 122.9 368.69 122.97 368.39 468.19 443.95 468.13 444.26"/><rect class="cls-3" x="294.73" y="232.64" width="0.31" height="353.4" transform="translate(-168.05 609.88) rotate(-77.65)"/><rect class="cls-4" x="291.42" y="247.76" width="0.31" height="353.4" transform="translate(-185.41 618.53) rotate(-77.65)"/><rect class="cls-3" x="293.41" y="238.69" width="0.31" height="353.4" transform="translate(-175 613.34) rotate(-77.65)"/><polygon class="cls-3" points="465.48 456.35 120.25 380.78 120.32 380.48 465.55 456.05 465.48 456.35"/><polygon class="cls-3" points="464.82 459.37 119.59 383.8 119.66 383.5 464.88 459.07 464.82 459.37"/><polygon class="cls-4" points="461.51 474.49 116.28 398.92 116.35 398.62 461.57 474.19 461.51 474.49"/><polygon class="cls-3" points="463.49 465.42 118.27 389.85 118.33 389.55 463.56 465.12 463.49 465.42"/><rect class="cls-3" x="290.1" y="253.8" width="0.31" height="353.4" transform="translate(-192.36 621.99) rotate(-77.65)"/><polygon class="cls-3" points="462.17 471.46 116.94 395.89 117.01 395.59 462.24 471.16 462.17 471.46"/><polygon class="cls-4" points="458.86 486.58 113.63 411.01 113.7 410.71 458.93 486.28 458.86 486.58"/><rect class="cls-3" x="288.11" y="262.87" width="0.31" height="353.4" transform="translate(-202.78 627.18) rotate(-77.65)"/><polygon class="cls-3" points="460.19 480.53 114.96 404.96 115.02 404.66 460.25 480.23 460.19 480.53"/><polygon class="cls-3" points="459.52 483.56 114.3 407.99 114.36 407.69 459.59 483.25 459.52 483.56"/><rect class="cls-3" x="285.46" y="274.97" width="0.31" height="353.4" transform="translate(-216.67 634.1) rotate(-77.65)"/><rect class="cls-3" x="284.8" y="277.99" width="0.31" height="353.4" transform="translate(-220.15 635.83) rotate(-77.65)"/><rect class="cls-3" x="284.14" y="281.01" width="0.31" height="353.4" transform="translate(-223.62 637.56) rotate(-77.65)"/><rect class="cls-4" x="278.19" y="308.22" width="0.31" height="353.4" transform="translate(-254.88 653.13) rotate(-77.65)"/><rect class="cls-3" x="277.52" y="311.24" width="0.31" height="353.4" transform="translate(-258.35 654.86) rotate(-77.65)"/><line class="cls-5" x1="264.28" y1="24.56" x2="158.66" y2="507.03"/><line class="cls-6" x1="278.42" y1="27.97" x2="172.81" y2="510.45"/><line class="cls-6" x1="292.63" y1="31.08" x2="187.02" y2="513.56"/><line class="cls-6" x1="306.83" y1="34.19" x2="201.22" y2="516.67"/><line class="cls-6" x1="321.04" y1="37.3" x2="215.43" y2="519.78"/><line class="cls-6" x1="335.25" y1="40.41" x2="229.64" y2="522.89"/><line class="cls-6" x1="349.46" y1="43.52" x2="243.85" y2="526"/><line class="cls-6" x1="363.67" y1="46.63" x2="258.06" y2="529.11"/><line class="cls-6" x1="377.88" y1="49.74" x2="272.26" y2="532.22"/><line class="cls-6" x1="392.08" y1="52.85" x2="286.47" y2="535.33"/><line class="cls-6" x1="406.29" y1="55.96" x2="300.68" y2="538.44"/><line class="cls-6" x1="420.5" y1="59.07" x2="314.89" y2="541.55"/><line class="cls-6" x1="434.71" y1="62.18" x2="329.1" y2="544.66"/><line class="cls-6" x1="448.92" y1="65.29" x2="343.31" y2="547.77"/><line class="cls-6" x1="463.12" y1="68.4" x2="357.51" y2="550.88"/><line class="cls-6" x1="477.33" y1="71.51" x2="371.72" y2="553.99"/><line class="cls-6" x1="491.54" y1="74.62" x2="385.93" y2="557.1"/><line class="cls-6" x1="505.75" y1="77.73" x2="400.14" y2="560.21"/><line class="cls-6" x1="519.96" y1="80.85" x2="414.35" y2="563.32"/><line class="cls-6" x1="534.16" y1="83.96" x2="428.55" y2="566.43"/><path class="cls-4" d="M198.47,74.46l-10.66-2.33-.06.3,10.43,2.29Z"/><path class="cls-4" d="M205.8,76.07a3.73,3.73,0,0,1,.16.35L533,148l.06-.3Z"/><rect class="cls-3" x="191.77" y="71.44" width="0.31" height="9.84" transform="translate(76.29 247.51) rotate(-77.65)"/><path class="cls-3" d="M206.2,79.32s0,.14-.07.31L532.31,151l.07-.31Z"/><polygon class="cls-3" points="196.11 80.28 186.49 78.18 186.42 78.48 196.05 80.59 196.11 80.28"/><path class="cls-3" d="M205.54,82.35c0,.1,0,.2-.07.3l326.18,71.4.07-.3Z"/><path class="cls-3" d="M204.87,85.37l-.06.3L531,157.07l.07-.3Z"/><polygon class="cls-3" points="195.47 83.31 185.83 81.2 185.76 81.5 195.4 83.61 195.47 83.31"/><rect class="cls-4" x="189.81" y="80.49" width="0.31" height="9.88" transform="translate(65.88 252.73) rotate(-77.65)"/><path class="cls-4" d="M204.21,88.39l-.06.3,326.18,71.4.06-.3Z"/><rect class="cls-3" x="189.15" y="83.51" width="0.31" height="9.9" transform="translate(62.42 254.47) rotate(-77.65)"/><path class="cls-3" d="M203.55,91.41c0,.11-.05.21-.07.31l326.19,71.4.06-.31Z"/><path class="cls-3" d="M193.87,92.46l-10-2.19-.06.3,10.16,2.23A3.4,3.4,0,0,1,193.87,92.46Z"/><path class="cls-3" d="M202.54,94.36l-.21.27L529,166.14l.06-.3Z"/><path class="cls-3" d="M114.65,455.26,104.44,453l-.07.3,10,2.2Z"/><path class="cls-3" d="M122.85,457.06c0,.11.07.23.1.34L449.6,528.9l.06-.3Z"/><path class="cls-3" d="M122.8,460.22a2.49,2.49,0,0,1-.11.29l326.25,71.41.06-.3Z"/><path class="cls-3" d="M113.37,458.15l-9.6-2.1-.06.31,9.64,2.11C113.35,458.36,113.36,458.26,113.37,458.15Z"/><path class="cls-4" d="M122.74,425.36l-11.69-2.56-.06.3,11.3,2.48A3.13,3.13,0,0,1,122.74,425.36Z"/><path class="cls-4" d="M128.09,426.53a4.16,4.16,0,0,1,.32.39l327.81,71.75.06-.3Z"/><path class="cls-3" d="M129.35,430c0,.11,0,.21,0,.32l326.22,71.4.07-.3Z"/><path class="cls-3" d="M120.15,428l-9.76-2.14-.06.31,9.71,2.12A2.49,2.49,0,0,1,120.15,428Z"/><rect class="cls-3" x="114.37" y="425.11" width="0.31" height="9.89" transform="translate(-330.07 449.97) rotate(-77.65)"/><path class="cls-3" d="M128.78,433a2.82,2.82,0,0,0-.07.31l326.18,71.4.07-.31Z"/><polygon class="cls-3" points="118.72 433.98 109.07 431.87 109 432.17 118.65 434.28 118.72 433.98"/><path class="cls-3" d="M128.11,436l-.06.3,326.18,71.4.07-.3Z"/><polygon class="cls-4" points="118.04 437 108.41 434.89 108.34 435.19 117.97 437.3 118.04 437"/><path class="cls-4" d="M127.45,439.06l-.06.3,326.18,71.4.06-.3Z"/><rect class="cls-3" x="112.37" y="434.2" width="0.31" height="9.85" transform="translate(-340.5 455.15) rotate(-77.65)"/><path class="cls-3" d="M126.79,442.08a2.82,2.82,0,0,1-.07.31l326.19,71.4.06-.31Z"/><path class="cls-3" d="M116.78,443.06l-9.7-2.12-.06.3,9.77,2.14C116.78,443.27,116.78,443.17,116.78,443.06Z"/><path class="cls-3" d="M126.05,445.09c0,.1-.09.19-.14.29l326.33,71.43.07-.3Z"/><path class="cls-3" d="M118.08,446.51,106.42,444l-.06.3,12.16,2.67A5.77,5.77,0,0,1,118.08,446.51Z"/><path class="cls-3" d="M123.4,447.68l-.59.19,328.77,72,.07-.3Z"/><path class="cls-4" d="M160,256.11l-11.85-2.6-.07.3,11.41,2.5A5.38,5.38,0,0,1,160,256.11Z"/><path class="cls-4" d="M164.88,257.18a4.75,4.75,0,0,1,.38.4l328,71.8.07-.3Z"/><path class="cls-3" d="M157.12,258.65l-9.67-2.12-.07.31,9.62,2.1Z"/><path class="cls-3" d="M166.4,260.68c0,.11,0,.21,0,.32l326.22,71.41.07-.31Z"/><path class="cls-3" d="M156.77,261.74l-10-2.18-.07.3,10.13,2.22C156.82,262,156.8,261.86,156.77,261.74Z"/><path class="cls-3" d="M165.43,263.64l-.22.27L492,335.43l.06-.3Z"/><path class="cls-3" d="M183.83,163.13a4.37,4.37,0,0,1,.92.52l329,72,.06-.3Z"/><path class="cls-3" d="M182.05,162.74l-13.43-2.94-.06.3L181,162.82A4.65,4.65,0,0,1,182.05,162.74Z"/><path class="cls-3" d="M177.81,165,168,162.82l-.06.3,9.75,2.14C177.7,165.16,177.76,165.07,177.81,165Z"/><path class="cls-3" d="M186.74,166.93l0,.33,326.35,71.43.07-.3Z"/><path class="cls-3" d="M177.06,168l-9.76-2.14-.07.31,9.86,2.15A3.16,3.16,0,0,1,177.06,168Z"/><path class="cls-3" d="M186.17,170a2.61,2.61,0,0,1-.17.28l326.46,71.47.07-.31Z"/><path class="cls-4" d="M179.12,171.6l-12.48-2.73-.07.3,13.57,3A4.51,4.51,0,0,1,179.12,171.6Z"/><path class="cls-4" d="M182.78,172.4a4.88,4.88,0,0,1-1.15.07L511.8,244.74l.07-.3Z"/><path class="cls-3" d="M176.75,186.92,163.33,184l-.07.3L175.7,187A4.56,4.56,0,0,1,176.75,186.92Z"/><path class="cls-3" d="M178.53,187.31a4.37,4.37,0,0,1,.92.52l329,72,.07-.3Z"/><path class="cls-3" d="M172.57,189.17l-9.9-2.16-.07.3,9.8,2.14Z"/><path class="cls-3" d="M181.43,191.11c0,.11,0,.22,0,.33l326.36,71.44.07-.31Z"/><rect class="cls-3" x="166.63" y="186.31" width="0.31" height="9.84" transform="translate(-55.69 313.27) rotate(-77.65)"/><path class="cls-3" d="M181.05,194.2q0,.13-.06.3l326.18,71.4.06-.3Z"/><path class="cls-4" d="M180.4,197.22c0,.1,0,.2-.07.3l326.18,71.4.06-.3Z"/><polygon class="cls-4" points="170.97 195.16 161.34 193.05 161.28 193.35 170.91 195.46 170.97 195.16"/><path class="cls-3" d="M179.73,200.24c0,.1,0,.2-.07.31L505.84,272l.07-.31Z"/><rect class="cls-3" x="165.32" y="192.34" width="0.31" height="9.87" transform="translate(-62.63 316.74) rotate(-77.65)"/><polygon class="cls-3" points="169.68 201.21 160.02 199.1 159.96 199.4 169.62 201.51 169.68 201.21"/><path class="cls-3" d="M179.07,203.27c0,.1,0,.2-.07.3L505.18,275l.07-.3Z"/><path class="cls-3" d="M169,204.24l-9.68-2.12-.07.3,9.7,2.12C169,204.44,169,204.34,169,204.24Z"/><path class="cls-3" d="M178.4,206.29c0,.1-.05.2-.08.3L504.52,278l.07-.3Z"/><path class="cls-4" d="M176.55,209.05l-.36.24L503.86,281l.07-.3Z"/><path class="cls-4" d="M169.56,207.52l-10.86-2.38-.07.31,11.16,2.44C169.71,207.77,169.63,207.65,169.56,207.52Z"/><path class="cls-3" d="M138.65,349.65l-11.05-2.43-.07.31,10.76,2.35Z"/><path class="cls-3" d="M145.17,351.07c.08.12.15.24.22.37L472.76,423.1l.06-.31Z"/><path class="cls-4" d="M136.51,352.34l-9.58-2.09-.06.3,9.56,2.09C136.45,352.54,136.48,352.44,136.51,352.34Z"/><path class="cls-4" d="M146,354.42c0,.1,0,.2-.05.3l326.16,71.4.06-.3Z"/><path class="cls-3" d="M144.58,357.28l-.28.25,327.13,71.61.07-.3Z"/><path class="cls-3" d="M136.59,355.53l-10.32-2.26-.06.3,10.53,2.31A2.63,2.63,0,0,1,136.59,355.53Z"/><path class="cls-3" d="M145.76,313.19,135.54,311l-.07.3,10.08,2.21Z"/><path class="cls-3" d="M154,315c0,.11.06.22.08.33L480.7,386.82l.07-.3Z"/><polygon class="cls-4" points="144.55 316.09 134.88 313.97 134.81 314.27 144.48 316.39 144.55 316.09"/><path class="cls-4" d="M153.92,318.14c0,.09,0,.19-.07.3L480,389.84l.06-.3Z"/><rect class="cls-3" x="138.85" y="313.26" width="0.31" height="9.88" transform="translate(-201.56 385.96) rotate(-77.65)"/><path class="cls-3" d="M153.26,321.16l-.06.31,326.18,71.4.06-.31Z"/><rect class="cls-3" x="138.18" y="316.29" width="0.31" height="9.87" transform="translate(-205.04 387.67) rotate(-77.65)"/><path class="cls-3" d="M152.6,324.19c0,.1,0,.2-.07.3l326.18,71.4.07-.3Z"/><polygon class="cls-3" points="142.52 325.15 132.89 323.04 132.82 323.34 142.45 325.45 142.52 325.15"/><path class="cls-3" d="M151.94,327.21c0,.1-.05.2-.07.3l326.18,71.4.07-.3Z"/><rect class="cls-4" x="136.85" y="322.35" width="0.31" height="9.84" transform="translate(-211.99 391.12) rotate(-77.65)"/><path class="cls-4" d="M151.29,330.24l-.07.3,326.17,71.4.07-.31Z"/><path class="cls-3" d="M141.92,331.35l-10.35-2.26-.07.3,10.56,2.31A3.65,3.65,0,0,1,141.92,331.35Z"/><path class="cls-3" d="M149.87,333.09l-.28.26L476.73,405l.06-.3Z"/><path class="cls-3" d="M200.72,65.45,189.8,63.06l-.07.3L201,65.83C200.89,65.71,200.8,65.58,200.72,65.45Z"/><path class="cls-3" d="M207.51,66.94c-.13.08-.26.16-.4.23L535,138.93l.07-.3Z"/><path class="cls-2" d="M387.36,65.28l-350,23.13L69.92,581.23l350-23.12a3.11,3.11,0,0,0,2.72-3.44L390.49,68A2.84,2.84,0,0,0,387.36,65.28ZM82.6,546.19A4.88,4.88,0,1,1,87.14,541,4.88,4.88,0,0,1,82.6,546.19ZM76.43,525.9l-.83-13.61a4.8,4.8,0,1,1,9.57-.63l.91,13.6a4.87,4.87,0,0,1-4.53,5.18A4.82,4.82,0,0,1,76.43,525.9Zm-.9-86.71A4.87,4.87,0,1,1,80.07,434,4.87,4.87,0,0,1,75.53,439.19ZM68.77,410l-.83-13.61a4.8,4.8,0,1,1,9.57-.63l.91,13.6a4.84,4.84,0,1,1-9.65.64Zm.47-65.86a4.88,4.88,0,1,1,4.54-5.19A4.88,4.88,0,0,1,69.24,344.09Zm-9.78-74.95a4.84,4.84,0,1,1,9.66-.64L70,282.1a4.8,4.8,0,1,1-9.57.63ZM63,249a4.87,4.87,0,1,1,4.54-5.18A4.87,4.87,0,0,1,63,249ZM51.8,153.19a4.84,4.84,0,1,1,9.66-.64l.88,13.6a4.8,4.8,0,1,1-9.57.63ZM55.89,142a4.88,4.88,0,1,1,4.54-5.19A4.86,4.86,0,0,1,55.89,142Z"/><rect class="cls-3" x="41" y="132.94" width="353.4" height="0.31" transform="translate(-8.3 14.64) rotate(-3.78)"/><rect class="cls-3" x="41.21" y="136.03" width="353.4" height="0.31" transform="translate(-8.5 14.66) rotate(-3.78)"/><rect class="cls-4" x="43.04" y="163.82" width="353.4" height="0.31" transform="matrix(1, -0.07, 0.07, 1, -10.33, 14.84)"/><rect class="cls-3" x="42.84" y="160.73" width="353.4" height="0.31" transform="translate(-10.13 14.82) rotate(-3.78)"/><polygon class="cls-4" points="396.89 164.83 44.25 188.13 44.23 187.82 396.87 164.52 396.89 164.83"/><rect class="cls-3" x="43.25" y="166.9" width="353.4" height="0.31" transform="translate(-10.53 14.86) rotate(-3.78)"/><rect class="cls-3" x="43.45" y="169.99" width="353.4" height="0.31" transform="translate(-10.74 14.88) rotate(-3.78)"/><rect class="cls-3" x="43.66" y="173.08" width="353.4" height="0.31" transform="matrix(1, -0.07, 0.07, 1, -10.94, 14.9)"/><polygon class="cls-4" points="397.7 177.18 45.07 200.48 45.05 200.17 397.68 176.87 397.7 177.18"/><rect class="cls-3" x="44.06" y="179.26" width="353.4" height="0.31" transform="translate(-11.35 14.94) rotate(-3.78)"/><rect class="cls-3" x="44.27" y="182.34" width="353.4" height="0.31" transform="translate(-11.55 14.96) rotate(-3.78)"/><rect class="cls-3" x="44.47" y="185.43" width="353.4" height="0.31" transform="translate(-11.75 14.98) rotate(-3.78)"/><rect class="cls-4" x="45.49" y="200.87" width="353.4" height="0.31" transform="translate(-12.77 15.09) rotate(-3.78)"/><rect class="cls-3" x="44.88" y="191.61" width="353.4" height="0.31" transform="translate(-12.16 15.03) rotate(-3.78)"/><rect class="cls-3" x="45.08" y="194.7" width="353.4" height="0.31" transform="translate(-12.36 15.05) rotate(-3.78)"/><rect class="cls-3" x="45.29" y="197.78" width="353.4" height="0.31" transform="translate(-12.57 15.07) rotate(-3.78)"/><rect class="cls-4" x="46.31" y="213.22" width="353.4" height="0.31" transform="translate(-13.58 15.17) rotate(-3.78)"/><rect class="cls-3" x="45.7" y="203.96" width="353.4" height="0.31" transform="translate(-12.97 15.11) rotate(-3.78)"/><rect class="cls-3" x="45.9" y="207.05" width="353.4" height="0.31" transform="translate(-13.18 15.13) rotate(-3.78)"/><rect class="cls-3" x="46.1" y="210.13" width="353.4" height="0.31" transform="translate(-13.38 15.15) rotate(-3.78)"/><rect class="cls-4" x="47.12" y="225.57" width="353.4" height="0.31" transform="translate(-14.39 15.25) rotate(-3.78)"/><rect class="cls-3" x="46.51" y="216.31" width="353.4" height="0.31" transform="translate(-13.78 15.19) rotate(-3.78)"/><rect class="cls-3" x="46.72" y="219.4" width="353.4" height="0.31" transform="translate(-13.99 15.21) rotate(-3.78)"/><rect class="cls-3" x="46.92" y="222.49" width="353.4" height="0.31" transform="translate(-14.19 15.23) rotate(-3.78)"/><rect class="cls-4" x="48.76" y="250.28" width="353.4" height="0.31" transform="translate(-16.02 15.41) rotate(-3.78)"/><rect class="cls-3" x="48.14" y="241.01" width="353.4" height="0.31" transform="translate(-15.41 15.35) rotate(-3.78)"/><rect class="cls-3" x="48.35" y="244.1" width="353.4" height="0.31" transform="translate(-15.61 15.37) rotate(-3.78)"/><rect class="cls-3" x="48.55" y="247.19" width="353.4" height="0.31" transform="translate(-15.82 15.39) rotate(-3.78)"/><rect class="cls-4" x="51.2" y="287.33" width="353.4" height="0.31" transform="matrix(1, -0.07, 0.07, 1, -18.46, 15.65)"/><rect class="cls-3" x="50.59" y="278.07" width="353.4" height="0.31" transform="translate(-17.85 15.59) rotate(-3.78)"/><rect class="cls-3" x="50.8" y="281.16" width="353.4" height="0.31" transform="translate(-18.05 15.61) rotate(-3.78)"/><rect class="cls-3" x="51" y="284.24" width="353.4" height="0.31" transform="translate(-18.25 15.63) rotate(-3.78)"/><rect class="cls-4" x="52.02" y="299.68" width="353.4" height="0.31" transform="matrix(1, -0.07, 0.07, 1, -19.27, 15.73)"/><rect class="cls-3" x="51.41" y="290.42" width="353.4" height="0.31" transform="translate(-18.66 15.67) rotate(-3.78)"/><rect class="cls-3" x="51.61" y="293.51" width="353.4" height="0.31" transform="translate(-18.86 15.69) rotate(-3.78)"/><rect class="cls-3" x="51.82" y="296.59" width="353.4" height="0.31" transform="translate(-19.07 15.71) rotate(-3.78)"/><polygon class="cls-4" points="405.86 300.69 53.23 323.99 53.21 323.68 405.84 300.38 405.86 300.69"/><rect class="cls-3" x="52.22" y="302.77" width="353.4" height="0.31" transform="translate(-19.47 15.75) rotate(-3.78)"/><rect class="cls-3" x="52.43" y="305.86" width="353.4" height="0.31" transform="translate(-19.68 15.77) rotate(-3.78)"/><rect class="cls-3" x="52.63" y="308.95" width="353.4" height="0.31" transform="translate(-19.88 15.79) rotate(-3.78)"/><rect class="cls-3" x="53.04" y="315.12" width="353.4" height="0.31" transform="translate(-20.29 15.83) rotate(-3.78)"/><rect class="cls-3" x="53.24" y="318.21" width="353.4" height="0.31" transform="translate(-20.49 15.85) rotate(-3.78)"/><rect class="cls-3" x="53.45" y="321.3" width="353.4" height="0.31" transform="translate(-20.69 15.87) rotate(-3.78)"/><rect class="cls-4" x="54.47" y="336.74" width="353.4" height="0.31" transform="translate(-21.71 15.97) rotate(-3.78)"/><rect class="cls-3" x="54.26" y="333.65" width="353.4" height="0.31" transform="translate(-21.5 15.95) rotate(-3.78)"/><rect class="cls-4" x="55.28" y="349.09" width="353.4" height="0.31" transform="translate(-22.52 16.05) rotate(-3.78)"/><rect class="cls-3" x="54.67" y="339.82" width="353.4" height="0.31" transform="translate(-21.91 15.99) rotate(-3.78)"/><polygon class="cls-3" points="407.9 331.57 55.27 354.87 55.25 354.56 407.88 331.26 407.9 331.57"/><rect class="cls-3" x="55.08" y="346" width="353.4" height="0.31" transform="translate(-22.32 16.03) rotate(-3.78)"/><rect class="cls-4" x="56.1" y="361.44" width="353.4" height="0.31" transform="translate(-23.33 16.13) rotate(-3.78)"/><rect class="cls-3" x="55.49" y="352.18" width="353.4" height="0.31" transform="translate(-22.72 16.07) rotate(-3.78)"/><rect class="cls-3" x="55.69" y="355.26" width="353.4" height="0.31" transform="translate(-22.93 16.09) rotate(-3.78)"/><rect class="cls-3" x="55.9" y="358.35" width="353.4" height="0.31" transform="translate(-23.13 16.11) rotate(-3.78)"/><rect class="cls-4" x="56.92" y="373.79" width="353.4" height="0.31" transform="translate(-24.14 16.21) rotate(-3.78)"/><rect class="cls-3" x="56.3" y="364.53" width="353.4" height="0.31" transform="translate(-23.53 16.15) rotate(-3.78)"/><rect class="cls-3" x="56.51" y="367.61" width="353.4" height="0.31" transform="translate(-23.74 16.17) rotate(-3.78)"/><rect class="cls-3" x="56.71" y="370.7" width="353.4" height="0.31" transform="translate(-23.94 16.19) rotate(-3.78)"/><rect class="cls-3" x="57.12" y="376.88" width="353.4" height="0.31" transform="translate(-24.35 16.24) rotate(-3.78)"/><rect class="cls-3" x="57.32" y="379.97" width="353.4" height="0.31" transform="matrix(1, -0.07, 0.07, 1, -24.55, 16.26)"/><rect class="cls-4" x="59.37" y="410.84" width="353.4" height="0.31" transform="translate(-26.58 16.46) rotate(-3.78)"/><rect class="cls-3" x="58.96" y="404.67" width="353.4" height="0.31" transform="translate(-26.18 16.42) rotate(-3.78)"/><rect class="cls-3" x="59.16" y="407.76" width="353.4" height="0.31" transform="translate(-26.38 16.44) rotate(-3.78)"/><rect class="cls-3" x="59.57" y="413.93" width="353.4" height="0.31" transform="translate(-26.78 16.48) rotate(-3.78)"/><polygon class="cls-3" points="412.8 405.68 60.17 428.98 60.15 428.67 412.78 405.37 412.8 405.68"/><polygon class="cls-4" points="414.02 424.21 61.39 447.51 61.37 447.2 414 423.9 414.02 424.21"/><rect class="cls-3" x="60.59" y="429.37" width="353.4" height="0.31" transform="translate(-27.8 16.58) rotate(-3.78)"/><rect class="cls-3" x="60.79" y="432.46" width="353.4" height="0.31" transform="matrix(1, -0.07, 0.07, 1, -28, 16.6)"/><rect class="cls-4" x="61.81" y="447.9" width="353.4" height="0.31" transform="translate(-29.02 16.7) rotate(-3.78)"/><polygon class="cls-3" points="414.23 427.3 61.6 450.59 61.58 450.29 414.21 426.99 414.23 427.3"/><rect class="cls-3" x="61.41" y="441.72" width="353.4" height="0.31" transform="translate(-28.61 16.66) rotate(-3.78)"/><polygon class="cls-3" points="414.64 433.47 62 456.77 61.98 456.46 414.62 433.16 414.64 433.47"/><rect class="cls-4" x="62.63" y="460.25" width="353.4" height="0.31" transform="translate(-29.83 16.78) rotate(-3.78)"/><rect class="cls-3" x="62.02" y="450.99" width="353.4" height="0.31" transform="matrix(1, -0.07, 0.07, 1, -29.22, 16.72)"/><polygon class="cls-3" points="415.25 442.74 62.62 466.03 62.6 465.72 415.23 442.43 415.25 442.74"/><rect class="cls-3" x="62.43" y="457.16" width="353.4" height="0.31" transform="translate(-29.63 16.76) rotate(-3.78)"/><polygon class="cls-4" points="416.47 461.26 63.84 484.56 63.82 484.25 416.45 460.95 416.47 461.26"/><rect class="cls-3" x="62.83" y="463.34" width="353.4" height="0.31" transform="translate(-30.03 16.8) rotate(-3.78)"/><rect class="cls-3" x="63.04" y="466.43" width="353.4" height="0.31" transform="translate(-30.24 16.82) rotate(-3.78)"/><polygon class="cls-3" points="416.27 458.17 63.63 481.47 63.62 481.16 416.25 457.87 416.27 458.17"/><rect class="cls-4" x="64.26" y="484.95" width="353.4" height="0.31" transform="translate(-31.46 16.94) rotate(-3.78)"/><rect class="cls-3" x="63.65" y="475.69" width="353.4" height="0.31" transform="translate(-30.85 16.88) rotate(-3.78)"/><rect class="cls-3" x="63.85" y="478.78" width="353.4" height="0.31" transform="matrix(1, -0.07, 0.07, 1, -31.05, 16.9)"/><rect class="cls-3" x="64.06" y="481.87" width="353.4" height="0.31" transform="translate(-31.25 16.92) rotate(-3.78)"/><rect class="cls-3" x="64.47" y="488.04" width="353.4" height="0.31" transform="translate(-31.66 16.96) rotate(-3.78)"/><polygon class="cls-3" points="417.7 479.79 65.06 503.09 65.04 502.78 417.68 479.48 417.7 479.79"/><rect class="cls-3" x="64.87" y="494.22" width="353.4" height="0.31" transform="matrix(1, -0.07, 0.07, 1, -32.07, 17)"/><rect class="cls-4" x="66.71" y="522.01" width="353.4" height="0.31" transform="translate(-33.89 17.18) rotate(-3.78)"/><polygon class="cls-3" points="419.94 513.75 67.31 537.05 67.29 536.75 419.92 513.45 419.94 513.75"/><line class="cls-5" x1="102.03" y1="83.83" x2="134.59" y2="576.65"/><line class="cls-6" x1="116.56" y1="83.18" x2="149.12" y2="576"/><line class="cls-6" x1="131.07" y1="82.22" x2="163.63" y2="575.04"/><line class="cls-6" x1="145.59" y1="81.26" x2="178.15" y2="574.08"/><line class="cls-6" x1="160.1" y1="80.3" x2="192.66" y2="573.12"/><line class="cls-6" x1="174.61" y1="79.34" x2="207.17" y2="572.16"/><line class="cls-6" x1="189.12" y1="78.38" x2="221.68" y2="571.2"/><line class="cls-6" x1="203.64" y1="77.42" x2="236.2" y2="570.24"/><line class="cls-6" x1="218.15" y1="76.46" x2="250.71" y2="569.29"/><line class="cls-6" x1="232.66" y1="75.51" x2="265.22" y2="568.33"/><line class="cls-6" x1="247.18" y1="74.55" x2="279.74" y2="567.37"/><line class="cls-6" x1="261.69" y1="73.59" x2="294.25" y2="566.41"/><line class="cls-6" x1="276.2" y1="72.63" x2="308.76" y2="565.45"/><line class="cls-6" x1="290.71" y1="71.67" x2="323.27" y2="564.49"/><line class="cls-6" x1="305.23" y1="70.71" x2="337.79" y2="563.53"/><line class="cls-6" x1="319.74" y1="69.75" x2="352.3" y2="562.57"/><line class="cls-6" x1="334.25" y1="68.79" x2="366.81" y2="561.61"/><line class="cls-6" x1="348.77" y1="67.83" x2="381.33" y2="560.66"/><line class="cls-6" x1="363.28" y1="66.88" x2="395.84" y2="559.7"/><line class="cls-6" x1="377.79" y1="65.92" x2="410.35" y2="558.74"/><path class="cls-4" d="M52.67,150l-10.88.72,0,.31,10.66-.7C52.53,150.26,52.6,150.15,52.67,150Z"/><path class="cls-4" d="M60.16,149.55a3.47,3.47,0,0,1,.25.29l334-22.07,0-.31Z"/><rect class="cls-3" x="41.99" y="153.53" width="9.84" height="0.31" transform="translate(-10.03 3.43) rotate(-3.78)"/><path class="cls-3" d="M61.44,152.57s0,.14,0,.3l333.18-22,0-.31Z"/><rect class="cls-3" x="42.19" y="156.61" width="9.85" height="0.31" transform="translate(-10.23 3.45) rotate(-3.78)"/><path class="cls-3" d="M61.65,155.65c0,.1,0,.21,0,.31l333.18-22,0-.31Z"/><path class="cls-3" d="M61.85,158.74l0,.31,333.18-22,0-.31Z"/><rect class="cls-3" x="42.4" y="159.7" width="9.87" height="0.31" transform="translate(-10.44 3.47) rotate(-3.78)"/><rect class="cls-4" x="42.6" y="162.79" width="9.88" height="0.31" transform="translate(-10.64 3.49) rotate(-3.78)"/><path class="cls-4" d="M62.06,161.83c0,.1,0,.21,0,.31l333.18-22,0-.31Z"/><rect class="cls-3" x="42.81" y="165.88" width="9.9" height="0.31" transform="translate(-10.84 3.51) rotate(-3.78)"/><path class="cls-3" d="M62.26,164.92c0,.11,0,.21,0,.31l333.18-22,0-.31Z"/><path class="cls-3" d="M53.25,168.61,43,169.29l0,.31,10.38-.69A2.11,2.11,0,0,1,53.25,168.61Z"/><path class="cls-3" d="M62.11,168l-.12.32,333.67-22,0-.31Z"/><path class="cls-3" d="M77.92,539.14l-10.43.69,0,.31,10.27-.68C77.82,539.35,77.87,539.25,77.92,539.14Z"/><path class="cls-3" d="M86.3,538.59c.07.1.13.2.19.3l333.66-22,0-.31Z"/><path class="cls-3" d="M87.13,541.64c0,.1,0,.21,0,.31l333.24-22,0-.31Z"/><path class="cls-3" d="M77.5,542.27l-9.8.65,0,.31,9.84-.65Z"/><path class="cls-4" d="M77.38,508.17,65.45,509l0,.31L77,508.5A3.8,3.8,0,0,1,77.38,508.17Z"/><path class="cls-4" d="M82.85,507.8c.15.09.28.19.42.29L418.11,486l0-.3Z"/><path class="cls-3" d="M85,510.76a2.82,2.82,0,0,1,.07.31l333.22-22,0-.31Z"/><path class="cls-3" d="M75.62,511.38l-10,.66,0,.31,9.92-.65C75.6,511.59,75.61,511.49,75.62,511.38Z"/><rect class="cls-3" x="65.86" y="514.8" width="9.89" height="0.31" transform="translate(-33.78 5.78) rotate(-3.78)"/><path class="cls-3" d="M85.31,513.84c0,.11,0,.21,0,.31l333.18-22,0-.31Z"/><polygon class="cls-3" points="75.92 517.57 66.06 518.22 66.08 518.53 75.94 517.88 75.92 517.57"/><path class="cls-3" d="M85.52,516.93c0,.1,0,.21,0,.31l333.18-22,0-.31Z"/><polygon class="cls-4" points="76.11 520.65 66.27 521.3 66.29 521.61 76.13 520.96 76.11 520.65"/><path class="cls-4" d="M85.72,520l0,.31,333.18-22,0-.31Z"/><rect class="cls-3" x="66.47" y="524.07" width="9.85" height="0.31" transform="matrix(1, -0.07, 0.07, 1, -34.4, 5.85)"/><path class="cls-3" d="M85.92,523.11l0,.31,333.17-22,0-.3Z"/><path class="cls-3" d="M76.58,526.83l-9.9.65,0,.31,10-.66Z"/><path class="cls-3" d="M86.05,526.2a2.87,2.87,0,0,1,0,.31l333.33-22,0-.31Z"/><path class="cls-3" d="M78.79,529.78l-11.91.79,0,.31,12.43-.82A3.45,3.45,0,0,1,78.79,529.78Z"/><path class="cls-3" d="M84.22,529.42a4.59,4.59,0,0,1-.51.35l335.82-22.19,0-.31Z"/><path class="cls-4" d="M66.13,335.23,54,336l0,.31,11.65-.77Z"/><path class="cls-4" d="M71.16,334.9c.16.09.32.18.47.28L406.68,313l0-.3Z"/><path class="cls-3" d="M64.11,338.47l-9.88.65,0,.31,9.82-.65C64.08,338.68,64.09,338.57,64.11,338.47Z"/><path class="cls-3" d="M73.59,337.84c0,.1.06.21.08.31l333.21-22,0-.31Z"/><path class="cls-3" d="M64.63,341.54l-10.19.67,0,.31,10.34-.68Z"/><path class="cls-3" d="M73.48,341c0,.11-.09.22-.13.32l333.74-22,0-.31Z"/><path class="cls-3" d="M63.23,239.29a4.5,4.5,0,0,1,1,.24l336.09-22.21,0-.31Z"/><path class="cls-3" d="M61.41,239.41l-13.71.9,0,.31,12.7-.84A4.91,4.91,0,0,1,61.41,239.41Z"/><path class="cls-3" d="M58,242.73l-10.06.67,0,.31,10-.66C57.91,242.94,57.94,242.84,58,242.73Z"/><path class="cls-3" d="M67.08,242.13c0,.1.09.2.13.3l333.35-22,0-.31Z"/><path class="cls-3" d="M58.07,245.83l-10,.66,0,.31,10.07-.67Z"/><path class="cls-3" d="M67.39,245.21l-.09.32,333.46-22,0-.31Z"/><path class="cls-4" d="M61.06,248.73l-12.75.84,0,.31L62.19,249A4.74,4.74,0,0,1,61.06,248.73Z"/><path class="cls-4" d="M64.81,248.48a5,5,0,0,1-1.09.39L401,226.59l0-.31Z"/><path class="cls-3" d="M63,264.11l-13.71.9,0,.31,12.7-.84A4.41,4.41,0,0,1,63,264.11Z"/><path class="cls-3" d="M64.86,264a4.54,4.54,0,0,1,1,.24L402,242l0-.3Z"/><path class="cls-3" d="M59.65,267.43l-10.11.67,0,.31,10-.66C59.59,267.64,59.62,267.54,59.65,267.43Z"/><path class="cls-3" d="M68.7,266.84a2.71,2.71,0,0,1,.13.3l333.36-22,0-.31Z"/><rect class="cls-3" x="49.74" y="270.86" width="9.84" height="0.31" transform="matrix(1, -0.07, 0.07, 1, -17.76, 4.2)"/><path class="cls-3" d="M69.2,269.9c0,.1,0,.21,0,.31l333.18-22,0-.31Z"/><path class="cls-4" d="M69.41,273l0,.31,333.17-22,0-.31Z"/><rect class="cls-4" x="49.95" y="273.95" width="9.86" height="0.31" transform="matrix(1, -0.07, 0.07, 1, -17.95, 4.21)"/><path class="cls-3" d="M69.6,276.08c0,.1,0,.21,0,.31l333.18-22,0-.31Z"/><rect class="cls-3" x="50.15" y="277.04" width="9.87" height="0.31" transform="matrix(1, -0.07, 0.07, 1, -18.16, 4.23)"/><rect class="cls-3" x="50.35" y="280.13" width="9.89" height="0.31" transform="translate(-18.36 4.26) rotate(-3.78)"/><path class="cls-3" d="M69.81,279.17c0,.1,0,.21,0,.31l333.18-22,0-.31Z"/><path class="cls-3" d="M60.45,282.89l-9.89.65,0,.31,9.9-.65Z"/><path class="cls-3" d="M70,282.26c0,.1,0,.2,0,.31l333.2-22,0-.31Z"/><path class="cls-4" d="M69,285.42a3,3,0,0,1-.28.33l334.7-22.11,0-.31Z"/><path class="cls-4" d="M61.86,285.9l-11.1.73,0,.31,11.4-.76C62.07,286.09,62,286,61.86,285.9Z"/><path class="cls-3" d="M71.64,431l-11.29.75,0,.31,11-.73Z"/><path class="cls-3" d="M78.3,430.57l.32.29L413,408.77l0-.31Z"/><path class="cls-4" d="M70.33,434.2l-9.77.65,0,.3,9.76-.64C70.34,434.41,70.33,434.3,70.33,434.2Z"/><path class="cls-4" d="M80,433.56a2.91,2.91,0,0,1,0,.31l333.16-22,0-.31Z"/><path class="cls-3" d="M79.46,436.7a3.45,3.45,0,0,1-.2.32l334.15-22.08,0-.3Z"/><path class="cls-3" d="M71.3,437.24l-10.54.69,0,.31,10.76-.71A2.17,2.17,0,0,1,71.3,437.24Z"/><path class="cls-3" d="M68.34,394l-10.44.69,0,.31,10.3-.68Z"/><path class="cls-3" d="M76.8,393.46a2.69,2.69,0,0,1,.16.29l333.6-22,0-.3Z"/><rect class="cls-4" x="58.11" y="397.46" width="9.9" height="0.31" transform="matrix(1, -0.07, 0.07, 1, -26.07, 5.02)"/><path class="cls-4" d="M77.56,396.51c0,.09,0,.19,0,.31l333.18-22,0-.31Z"/><rect class="cls-3" x="58.31" y="400.55" width="9.88" height="0.31" transform="translate(-26.29 5.04) rotate(-3.78)"/><path class="cls-3" d="M77.77,399.59c0,.11,0,.21,0,.31l333.17-22,0-.31Z"/><rect class="cls-3" x="58.51" y="403.64" width="9.87" height="0.31" transform="translate(-26.49 5.06) rotate(-3.78)"/><path class="cls-3" d="M78,402.68c0,.1,0,.21,0,.31l333.18-22,0-.31Z"/><rect class="cls-3" x="58.72" y="406.73" width="9.85" height="0.31" transform="translate(-26.69 5.08) rotate(-3.78)"/><path class="cls-3" d="M78.17,405.77c0,.1,0,.21,0,.31l333.18-22,0-.31Z"/><rect class="cls-4" x="58.92" y="409.82" width="9.84" height="0.31" transform="matrix(1, -0.07, 0.07, 1, -26.9, 5.1)"/><path class="cls-4" d="M78.39,408.86c0,.13,0,.23,0,.31l333.17-22,0-.31Z"/><path class="cls-3" d="M69.7,412.53l-10.57.7,0,.31,10.79-.71Z"/><path class="cls-3" d="M77.82,412c-.06.11-.13.21-.2.32l334.16-22.08,0-.31Z"/><path class="cls-3" d="M52.33,140.76l-11.16.74,0,.31,11.49-.76Z"/><path class="cls-3" d="M59.26,140.3c-.1.12-.2.23-.31.34l334.88-22.13,0-.31Z"/><path class="cls-7" d="M190.72,216a2.1,2.1,0,0,1-2-1.6l-1.25-5.5a4.24,4.24,0,0,1,.59-3L204.7,182l.68.47-16.67,23.83a3.42,3.42,0,0,0-.46,2.36l1.25,5.5a1.28,1.28,0,0,0,1.36.95l5.53-.74a3.49,3.49,0,0,0,2.06-1.26l18.78-26.86a1.08,1.08,0,0,0-.26-1.51l-6.86-4.8a1.09,1.09,0,0,0-1.51.27L194.8,200a3.44,3.44,0,0,0-.46,2.36l.84,3.74a1.26,1.26,0,0,0,1.35.94l3.75-.52a3.49,3.49,0,0,0,2.06-1.26l11.72-16.75.67.47L203,205.69a4.24,4.24,0,0,1-2.61,1.6l-3.76.52a2.08,2.08,0,0,1-2.27-1.57l-.84-3.74a4.3,4.3,0,0,1,.6-3l13.79-19.73a1.92,1.92,0,0,1,2.66-.47l6.86,4.8a1.91,1.91,0,0,1,.47,2.65l-18.79,26.87a4.27,4.27,0,0,1-2.62,1.59l-5.53.74Z"/><path class="cls-8" d="M215.32,188.39l-9.8,14c-1.53,2.18-4.28,4.17-6.13,4.43a3.79,3.79,0,0,1-4.11-2.87c-.41-1.83.5-5.11,2-7.29l10-14.26a4.84,4.84,0,0,1,6.73-1.19l1.39,1a4.85,4.85,0,0,1,1.19,6.73l-15,21.4a12,12,0,0,1-7,4.52,4.8,4.8,0,0,1-5.2-3.64,11.82,11.82,0,0,1,1.81-8.17L206,182"/><path class="cls-7" d="M147.2,277.14a2,2,0,0,1-1.06-.3l-4.79-3a4.26,4.26,0,0,1-1.72-2.54l-5.18-28.61.81-.15,5.18,28.62a3.38,3.38,0,0,0,1.34,2l4.8,3a1.26,1.26,0,0,0,1.62-.3l3.37-4.44a3.48,3.48,0,0,0,.56-2.35L146.3,236.8a1.09,1.09,0,0,0-1.26-.88l-8.24,1.49a1.08,1.08,0,0,0-.87,1.26l4.28,23.7a3.5,3.5,0,0,0,1.35,2l3.25,2a1.23,1.23,0,0,0,1.61-.3l2.28-3a3.46,3.46,0,0,0,.56-2.34l-3.64-20.12.81-.14,3.64,20.11a4.38,4.38,0,0,1-.71,3l-2.28,3a2.08,2.08,0,0,1-2.71.5l-3.25-2a4.3,4.3,0,0,1-1.72-2.54l-4.28-23.69a1.91,1.91,0,0,1,1.54-2.22l8.23-1.49a1.91,1.91,0,0,1,2.22,1.54l5.83,32.26a4.26,4.26,0,0,1-.71,3l-3.37,4.45A2.08,2.08,0,0,1,147.2,277.14Z"/><path class="cls-8" d="M146.34,239.6l3,16.83c.47,2.62-.06,6-1.18,7.47a3.79,3.79,0,0,1-4.93.9c-1.59-1-3.27-4-3.75-6.57l-3.09-17.13a4.85,4.85,0,0,1,3.89-5.62l1.67-.3a4.85,4.85,0,0,1,5.62,3.9l4.64,25.69a11.87,11.87,0,0,1-1.73,8.17,4.82,4.82,0,0,1-6.25,1.13,11.89,11.89,0,0,1-4.52-7l-4.58-25.33"/><path class="cls-7" d="M164.53,214.56a1.89,1.89,0,0,1-1.47-.69l-20.85-25.3a4.34,4.34,0,0,1-.83-3l.77-5.52a2.09,2.09,0,0,1,2.13-1.76l5.64.26a4.27,4.27,0,0,1,2.74,1.38l18.49,22.44-.64.52L152,180.49a3.45,3.45,0,0,0-2.14-1.08l-5.64-.26a1.26,1.26,0,0,0-1.28,1l-.77,5.53a3.54,3.54,0,0,0,.66,2.31l20.84,25.31a1.07,1.07,0,0,0,.74.38,1,1,0,0,0,.79-.24l6.46-5.32a1.09,1.09,0,0,0,.15-1.53l-15.31-18.58a3.5,3.5,0,0,0-2.15-1.08l-3.83-.19a1.24,1.24,0,0,0-1.26,1.05l-.51,3.76a3.48,3.48,0,0,0,.66,2.31l13,15.78-.64.52-13-15.77a4.39,4.39,0,0,1-.84-2.95l.51-3.76a2.08,2.08,0,0,1,2.12-1.76l3.83.19a4.27,4.27,0,0,1,2.74,1.38l15.31,18.58a1.89,1.89,0,0,1-.26,2.68l-6.46,5.33A1.89,1.89,0,0,1,164.53,214.56Z"/><path class="cls-8" d="M163,210.26l-10.88-13.2c-1.69-2.05-2.87-5.24-2.62-7.09a3.78,3.78,0,0,1,3.87-3.19c1.87.1,4.79,1.85,6.48,3.9L171,204.12a4.84,4.84,0,0,1-.65,6.8L169,212a4.85,4.85,0,0,1-6.8-.66l-16.6-20.15a12,12,0,0,1-2.48-8,4.82,4.82,0,0,1,4.91-4,11.84,11.84,0,0,1,7.38,3.93L171.76,203"/><path class="cls-7" d="M179,194.94a1.91,1.91,0,0,1-.73-.15l-7.72-3.24a1.93,1.93,0,0,1-1-2.5l12.72-30.22a4.31,4.31,0,0,1,2.22-2.11l5.25-1.88a2.08,2.08,0,0,1,2.55,1.06l2.39,5.12a4.25,4.25,0,0,1,.05,3.06l-11.27,26.81-.76-.32L194,163.77a3.48,3.48,0,0,0-.05-2.4l-2.38-5.12a1.27,1.27,0,0,0-1.53-.64l-5.25,1.89a3.51,3.51,0,0,0-1.75,1.65l-12.71,30.22a1.09,1.09,0,0,0,.58,1.42l7.72,3.24a1.08,1.08,0,0,0,1.42-.57l9.33-22.2a3.42,3.42,0,0,0,0-2.4l-1.61-3.48a1.25,1.25,0,0,0-1.52-.63L182.61,166a3.55,3.55,0,0,0-1.75,1.67l-7.92,18.84-.76-.32,7.93-18.84a4.29,4.29,0,0,1,2.22-2.12l3.56-1.3a2.09,2.09,0,0,1,2.55,1.06l1.61,3.48a4.28,4.28,0,0,1,0,3.07l-9.34,22.19A1.9,1.9,0,0,1,179,194.94Z"/><path class="cls-8" d="M172.87,186.7l6.63-15.77c1-2.45,3.31-5,5.06-5.61a3.77,3.77,0,0,1,4.62,1.94c.79,1.7.59,5.1-.44,7.54l-6.75,16a4.85,4.85,0,0,1-6.33,2.58l-1.56-.66a4.85,4.85,0,0,1-2.58-6.33l10.12-24.06a11.9,11.9,0,0,1,5.91-5.9,4.81,4.81,0,0,1,5.85,2.46,11.89,11.89,0,0,1-.05,8.37l-10,23.73"/><g class="cls-9"><path class="cls-10" d="M217.68,390.74a9.11,9.11,0,0,1-2,1.19,4.66,4.66,0,0,1-1.5.41,2.53,2.53,0,0,1-1.13-.14.94.94,0,0,1-.63-.82c-.16-.91.29-2.55,0-3.17s-1.1-.67-2.2-.37a11.2,11.2,0,0,1-1.56.33,4.09,4.09,0,0,1-1.2-.13,2.85,2.85,0,0,1-1.9-.89,4,4,0,0,1-.54-2.35,10,10,0,0,1,.95-3.76l.68-.69a12.8,12.8,0,0,1,2.07-.77,6.86,6.86,0,0,1,.84-.21,5.87,5.87,0,0,1,.76-.14,5.42,5.42,0,0,1,1.26,0,2.35,2.35,0,0,1,1,.26c.55.27.73,1,.93,1.63a3.5,3.5,0,0,1,.24,1.1,12.67,12.67,0,0,1-.11,1.55c-.12,1.1.06,1.89.75,2s2.12-.72,3-.86a.78.78,0,0,1,.89.31,2.28,2.28,0,0,1,.41,1,4.82,4.82,0,0,1,.05,1.51,10.54,10.54,0,0,1-.43,2.26Z"/><path class="cls-10" d="M256.17,404.65a8.86,8.86,0,0,1-7.05,2.92,4.08,4.08,0,0,1-2.15-.69c-1.35-.92-2.42-2.78-3.74-3.42a6,6,0,0,0-4.51-.15,18.75,18.75,0,0,1-2.5.5,12.08,12.08,0,0,1-2.34-.11c-.77-.1-1.54-.19-2.29-.35a8.51,8.51,0,0,1-2.13-.78,12.19,12.19,0,0,1-3.52-3.12,12.37,12.37,0,0,1-1.35-2.22,11,11,0,0,1-1-2.79l.47-.85a13.85,13.85,0,0,1,2.8-.75,13,13,0,0,1,2.44-.28,13.29,13.29,0,0,1,2.21.08,8.71,8.71,0,0,1,2,.39,11.77,11.77,0,0,1,3.5,2.05,10.21,10.21,0,0,1,1.68,1.33,22.3,22.3,0,0,1,1.55,1.82,7.38,7.38,0,0,0,1.7,1.58,4.08,4.08,0,0,0,2,.62,5.93,5.93,0,0,0,2.28-.59,13,13,0,0,1,2.29-.91,3.32,3.32,0,0,1,2,.1,7.92,7.92,0,0,1,1.91.87,9.11,9.11,0,0,1,1.87,1.44,11,11,0,0,1,1.85,2.34Z"/><path class="cls-10" d="M327.06,375.7a14.58,14.58,0,0,1-1,4.36,18.32,18.32,0,0,1-2,3.72,22.21,22.21,0,0,1-2.6,3.19,11.43,11.43,0,0,1-3.29,2.43c-2.53,1.23-5.61,1.54-7.95,2.75a21.8,21.8,0,0,0-6.27,5,32.42,32.42,0,0,1-3,2.94,25.17,25.17,0,0,1-3.45,2.29,28.75,28.75,0,0,1-7.52,3.39,27.68,27.68,0,0,1-8.28.77,21.81,21.81,0,0,1-8.4-2.05l-.11-1a44,44,0,0,1,6.93-4.51,60.41,60.41,0,0,1,6.76-3.17,62.14,62.14,0,0,1,7.06-1.94c1.2-.3,2.38-.66,3.64-.89s2.57-.37,3.89-.57a13.27,13.27,0,0,0,7.06-2.94c2-1.66,3.06-4.42,4.57-6.45a12.18,12.18,0,0,1,2.63-2.59,32.07,32.07,0,0,1,3.07-2.12,31.09,31.09,0,0,1,3.44-1.86,22.29,22.29,0,0,1,4.12-1.45Z"/><path class="cls-10" d="M181.73,324.5c-4.23-26.51,8.69-56,32-71.32a77.92,77.92,0,0,1,18.57-8.79,110.18,110.18,0,0,1,19.81-4.23A104.54,104.54,0,0,1,292.11,243a84.59,84.59,0,0,1,9.67,3.38A72.27,72.27,0,0,1,311,251a79.47,79.47,0,0,1,16.29,12.85,80.77,80.77,0,0,1,12.6,16.63l1.3,2.28a20.45,20.45,0,0,1,1.23,2.31l2.18,4.78a22.07,22.07,0,0,1,.94,2.45l.87,2.48c.28.83.59,1.65.85,2.49l.66,2.54.64,2.55.32,1.27.23,1.3c.3,1.72.57,3.45.84,5.18a83,83,0,0,1,.54,10.45v2.61c0,.87-.13,1.73-.19,2.6-.18,1.73-.26,3.47-.52,5.18l-.9,5.12c-.34,1.69-.83,3.36-1.24,5a42.63,42.63,0,0,1-1.54,4.93,48.09,48.09,0,0,1-1.86,4.8c-.71,1.57-1.35,3.15-2.11,4.67L339.66,360a74.18,74.18,0,0,1-12.6,15.74l-.74-.63a110.17,110.17,0,0,0,8.88-17.31,90.27,90.27,0,0,0,5-18.32,81.35,81.35,0,0,0,.9-18.68,91.84,91.84,0,0,0-1-9.22c-.32-1.51-.65-3-.94-4.54l-.23-1.13-.32-1.11-.63-2.23A84.23,84.23,0,0,0,331,285.41L330,283.34l-1.2-2c-.77-1.35-1.65-2.61-2.52-3.9s-1.82-2.51-2.72-3.77-1.94-2.42-3-3.59a87.73,87.73,0,0,0-30.24-22c-1.48-.57-2.94-1.25-4.47-1.74l-2.27-.79-2.32-.66c-1.54-.47-3.11-.79-4.68-1.16s-3.18-.58-4.78-.79a63.78,63.78,0,0,0-37.54,6.46,85.07,85.07,0,0,0-8.23,4.81l-2,1.32c-.65.45-1.27.94-1.9,1.41-1.27.94-2.56,1.82-3.75,2.85a103.8,103.8,0,0,0-13.54,12.88A90.28,90.28,0,0,0,194.18,288a100.12,100.12,0,0,0-11.47,36.48Z"/><path class="cls-10" d="M205.94,381a17.2,17.2,0,0,1-7.85-3.73,21.37,21.37,0,0,1-3-2.89,11.2,11.2,0,0,1-2.16-3.51c-1-2.63-1.06-5.75-2.09-8.21a22,22,0,0,0-4.5-6.73,32.59,32.59,0,0,1-2.67-3.32,26.62,26.62,0,0,1-2-3.66,30.35,30.35,0,0,1-2.72-7.87,29,29,0,0,1,0-8.37,22.74,22.74,0,0,1,2.79-8.25l1,0a43.83,43.83,0,0,1,3.87,7.37,44.83,44.83,0,0,1,3.87,14.33c.22,1.23.44,2.45.58,3.73s.16,2.61.23,4a13.59,13.59,0,0,0,2.36,7.33c1.5,2.11,4.14,3.48,6.06,5.16a12.5,12.5,0,0,1,2.38,2.87,35.82,35.82,0,0,1,1.87,3.26,30.59,30.59,0,0,1,1.57,3.62,22,22,0,0,1,1.12,4.24Z"/></g><polygon class="cls-11" points="435.19 356.25 435.51 355.98 435.23 355.24 435.23 355.24 435.12 355.09 435.12 355.19 435.18 355.19 434.17 351.53 433.27 348.38 433.27 348.38 429.17 334.25 428.84 333.1 428.84 333.1 426.62 325.46 426.62 325.46 424.4 317.84 424.4 317.84 422.18 310.2 422.18 310.2 419.96 302.57 419.96 302.57 417.74 295 417.74 295 415.52 287.42 415.52 287.42 413.3 279.74 413.3 279.74 411.08 272.08 411.08 272.08 408.86 264.44 408.86 264.44 407.28 258.97 404.41 249.05 404.41 249.05 402.19 241.48 402.19 241.48 399.97 233.88 399.97 233.88 398.39 228.31 391.18 203.38 391.18 203.39 388.91 195.76 388.91 195.76 386.67 188.13 386.67 188.13 386.36 187.11 382.21 172.87 382.2 172.87 380.19 165.97 377.76 157.61 377.76 157.61 375.54 149.98 375.54 149.98 373.32 142.35 373.32 142.35 372.83 140.68 368.87 127.09 368.87 127.09 367.27 121.59 364.43 111.83 364.43 111.83 362.21 104.21 362.21 104.21 355.55 81.32 355.55 81.32 353.32 73.69 353.32 73.69 348.9 58.48 348.88 58.43 348.88 58.43 348.32 56.51 348.33 56.51 347.82 54.76 347.82 54.76 347.52 53.7 346.44 50.07 346.44 50.07 345.7 47.59 345.7 47.59 345.18 45.74 345.17 45.7 340.57 29.91 323.64 34.83 329.73 55.73 329.73 55.73 331.91 63.22 334.17 70.99 334.17 70.99 335.94 77.09 338.61 86.25 338.61 86.25 340.83 93.88 340.83 93.88 343.05 101.5 343.05 101.5 345.27 109.14 345.27 109.14 347.5 116.77 347.5 116.77 349.72 124.39 349.72 124.39 351.94 132.02 351.94 132.02 354.16 139.66 354.16 139.66 356.38 147.28 356.38 147.28 358.6 154.91 358.6 154.91 365.26 177.8 365.26 177.8 367.49 185.43 367.49 185.43 369.71 193.06 369.71 193.06 371.93 200.69 371.93 200.69 374.15 208.32 374.15 208.32 376.37 215.95 376.37 215.95 378.59 223.58 378.59 223.58 380.81 231.21 380.81 231.21 383.03 238.84 383.03 238.84 384.14 242.63 387.48 254.09 387.48 254.09 389.4 260.69 391.92 269.36 391.92 269.36 394.14 276.99 394.14 276.99 397.09 287.13 398.58 292.25 398.58 292.25 400.81 299.88 400.81 299.88 403.02 307.5 403.02 307.5 405.25 315.13 405.25 315.13 407.47 322.76 407.47 322.76 414.13 345.65 414.13 345.65 416.35 353.28 416.35 353.28 418.31 360.02 418.31 360.02 418.31 360.02 418.36 360.17 418.42 360.16 418.82 360.7 418.57 360.91 433.88 381 434.17 375.5 434.17 375.5 435.19 356.25"/><rect class="cls-12" x="374.34" y="43.73" width="17.64" height="316.89" transform="translate(-41.24 115.16) rotate(-16.23)"/><rect class="cls-13" x="326.98" y="28.52" width="17.64" height="21.97" transform="translate(2.34 95.44) rotate(-16.23)"/><polygon class="cls-14" points="429.46 329.69 431.69 337.32 416.97 349.88 414.75 342.25 429.46 329.69"/><polygon class="cls-14" points="425.02 314.43 427.25 322.06 412.53 334.62 410.31 326.99 425.02 314.43"/><polygon class="cls-14" points="420.58 299.17 422.8 306.8 408.09 319.36 405.87 311.73 420.58 299.17"/><polygon class="cls-14" points="416.14 283.91 418.36 291.54 403.64 304.1 401.42 296.47 416.14 283.91"/><polygon class="cls-14" points="411.7 268.65 413.92 276.28 399.2 288.84 396.98 281.21 411.7 268.65"/><polygon class="cls-14" points="407.25 253.39 409.48 261.02 394.76 273.58 392.54 265.95 407.25 253.39"/><polygon class="cls-14" points="402.81 238.13 405.03 245.76 390.32 258.32 388.1 250.69 402.81 238.13"/><polygon class="cls-14" points="398.37 222.87 400.59 230.5 385.88 243.06 383.65 235.43 398.37 222.87"/><polygon class="cls-14" points="393.93 207.62 396.15 215.25 381.43 227.8 379.21 220.18 393.93 207.62"/><polygon class="cls-14" points="389.48 192.35 391.7 199.99 376.99 212.55 374.77 204.92 389.48 192.35"/><polygon class="cls-14" points="385.04 177.09 387.26 184.73 372.55 197.29 370.33 189.66 385.04 177.09"/><polygon class="cls-14" points="380.6 161.84 382.82 169.47 368.11 182.03 365.88 174.4 380.6 161.84"/><polygon class="cls-14" points="376.16 146.58 378.38 154.21 363.66 166.77 361.44 159.14 376.16 146.58"/><polygon class="cls-14" points="371.71 131.32 373.93 138.95 359.22 151.51 357 143.88 371.71 131.32"/><polygon class="cls-14" points="367.27 116.06 369.49 123.69 354.78 136.25 352.56 128.62 367.27 116.06"/><polygon class="cls-14" points="362.83 100.8 365.05 108.43 350.33 120.99 348.11 113.36 362.83 100.8"/><polygon class="cls-14" points="358.39 85.54 360.61 93.17 345.89 105.73 343.67 98.1 358.39 85.54"/><polygon class="cls-14" points="353.94 70.28 356.17 77.91 341.45 90.47 339.23 82.84 353.94 70.28"/><polygon class="cls-14" points="349.5 55.02 351.72 62.65 337.01 75.21 334.79 67.58 349.5 55.02"/><g class="cls-15"><polygon class="cls-14" points="433.91 344.95 436.13 352.58 421.41 365.13 419.19 357.51 433.91 344.95"/><polygon class="cls-14" points="345.06 39.77 347.28 47.39 332.57 59.95 330.34 52.32 345.06 39.77"/></g><polyline class="cls-16" points="418.93 356.62 434.5 377.6 435.87 351.69"/><polyline class="cls-17" points="431.19 373.14 434.5 377.6 434.79 372.09"/><rect class="cls-18" x="330.08" y="44.51" width="17.65" height="11.29" transform="translate(-0.51 96.73) rotate(-16.23)"/><rect class="cls-19" x="329.39" y="46.46" width="17.65" height="2.66" transform="matrix(0.96, -0.28, 0.28, 0.96, 0.12, 96.43)"/><rect class="cls-19" x="330.78" y="51.21" width="17.65" height="2.66" transform="matrix(0.96, -0.28, 0.28, 0.96, -1.14, 97.08)"/><polygon class="cls-20" points="415.96 345.37 413.29 346.16 326.46 46.91 329.13 46.13 415.96 345.37"/><rect class="cls-1" x="-507.58" y="78.28" width="633.77" height="475.33"/></svg>