<svg width="24" height="24" viewBox="0 0 24 24" xmlns="http://www.w3.org/2000/svg" xmlns:xlink="http://www.w3.org/1999/xlink">
    <defs>
        <path d="M8.414 7l5.293-5.293c.391-.39.391-1.023 0-1.414-.39-.39-1.023-.39-1.414 0L7 5.586 1.707.293c-.39-.39-1.023-.39-1.414 0-.39.391-.39 1.023 0 1.414L5.586 7 .293 12.293c-.39.391-.39 1.023 0 1.414.195.195.451.293.707.293.256 0 .512-.098.707-.293L7 8.414l5.293 5.293c.195.195.451.293.707.293.256 0 .512-.098.707-.293.391-.39.391-1.023 0-1.414L8.414 7z" id="a"/>
    </defs>
    <g transform="translate(5 5)" fill="none" fill-rule="evenodd">
        <mask id="b" fill="#fff">
            <use xlink:href="#a"/>
        </mask>
        <g mask="url(#b)" fill="#748494">
            <path d="M-5-5h24v24H-5z"/>
        </g>
    </g>
</svg>
