<svg width="24" height="24" viewBox="0 0 24 24" xmlns="http://www.w3.org/2000/svg" xmlns:xlink="http://www.w3.org/1999/xlink">
    <title>
        Artboard
    </title>
    <defs>
        <path d="M12 13c0 .551-.448 1-1 1H3c-.552 0-1-.449-1-1V9c0-.551.448-1 1-1h8c.552 0 1 .449 1 1v4zM4 5c0-1.654 1.346-3 3-3s3 1.346 3 3v1H4V5zm8 1.184V5c0-2.757-2.243-5-5-5S2 2.243 2 5v1.184C.839 6.599 0 7.698 0 9v4c0 1.654 1.346 3 3 3h8c1.654 0 3-1.346 3-3V9c0-1.302-.839-2.401-2-2.816z" id="a"/>
    </defs>
    <g transform="translate(5 4)" fill="none" fill-rule="evenodd">
        <mask id="b" fill="#fff">
            <use xlink:href="#a"/>
        </mask>
        <g mask="url(#b)" fill="#fff">
            <path d="M-5-4h24v24H-5z"/>
        </g>
    </g>
</svg>