<svg id="Calque_1" data-name="Calque 1" xmlns="http://www.w3.org/2000/svg" viewBox="0 0 160 160"><defs><style>.cls-1{fill:#7171e2;}.cls-2{fill:#f4d0ae;}</style></defs><circle class="cls-1" cx="80" cy="80" r="67.5"/><path class="cls-2" d="M129.86,89.79c-3-.29-11.52,3.7-17,6.06s-9.19-.25-10.17-3.35,1.17-11.41,3.51-18,10.91-25.85,11.39-28.75-.49-5.16-1.91-5.67-3.17-.94-4.35,1.56-6.1,12.68-9.45,20.41-6.77,11.32-8.94,10.83-.26-6.93,1-11.12,4.75-18.58,5.2-23.62.81-8.7-3.76-9.4-4.63,5.34-4.93,7.64a156.74,156.74,0,0,1-3.29,15.48c-.82,2.23-4,15.08-4.42,16.83s-2.94,1.42-3.22.32,0-7.22.15-10.17S80.94,41,81.18,37.5s-.35-5.45-3-5.79-4.59,1-4.9,3.39-1.15,13.64-1.85,18.22-.4,14.48-.74,17.94-4.56,4-5.13,3.47A67.63,67.63,0,0,1,59.85,66C58.68,63.64,56.16,56.1,55,53.3s-3.38-5.85-6.41-4.55-1.75,4.44-.55,7.46,4.86,14,6.31,16.74,4,12,4.44,19.68-.17,14.3,5.15,21.46a4.16,4.16,0,0,0,.32.39c.09.11.34,19,.49,31.24H94.2c-.24-11.89-.63-28-.35-28,.54-.11,1.05-.23,1.54-.35,4.94-1.27,17.44-10.88,19.89-12.58s8.74-4.38,12.22-5.84,6.81-5,6.63-6.13S132.9,90.08,129.86,89.79Z"/><path class="cls-1" d="M80,15A65,65,0,1,1,15,80,65.08,65.08,0,0,1,80,15m0-2.5A67.5,67.5,0,1,0,147.5,80,67.5,67.5,0,0,0,80,12.5Z"/></svg>