<svg id="prefix__Calque_1" data-name="Calque 1" xmlns="http://www.w3.org/2000/svg" viewBox="0 0 160 160"><defs><style>.prefix__cls-1{fill:#b6bec8}</style></defs><path class="prefix__cls-1" d="M102.81 79.39a20.45 20.45 0 01-15.11-4.51l-4-3.29a20.69 20.69 0 01-3-29l16.57-20.31a20.66 20.66 0 0129-3l4 3.28a20.65 20.65 0 012.94 29l-16.54 20.3a20.51 20.51 0 01-13.86 7.53zm9.37-54.68a10.62 10.62 0 00-7.2 3.85l-16.55 20.3a10.71 10.71 0 001.53 15l4 3.29a10.73 10.73 0 0015-1.53l16.55-20.29a10.69 10.69 0 00-1.53-15L120 27a10.62 10.62 0 00-7.82-2.29zM49.15 145.19A20.46 20.46 0 0134 140.67l-4.36-3.55a20.68 20.68 0 01-2.95-29l17.1-20.95a20.69 20.69 0 0129-3l4.36 3.56a20.65 20.65 0 013 29l-17.09 20.99a20.5 20.5 0 01-13.91 7.47zM58.7 89.6a10.59 10.59 0 00-7.2 3.86l-17.06 20.92a10.74 10.74 0 001.52 15l4.36 3.62a10.74 10.74 0 0015-1.52l17.06-20.93a10.7 10.7 0 00-1.52-15L66.5 92a10.62 10.62 0 00-7.8-2.4z"/><path class="prefix__cls-1" d="M64.61 106.09A5 5 0 0160.25 98l33.54-41.13a5 5 0 017.71 6.29L68 104.28a5 5 0 01-3.39 1.81z"/><path class="prefix__cls-1" d="M77.17 87.78l-1.3-1.06-6.29 7.7 1.31 1.06a10.7 10.7 0 011.52 15l-17.06 20.96a10.74 10.74 0 01-15 1.52L39 131.9l-6.29 7.71 1.29 1.06a20.67 20.67 0 0029-2.95l17.12-20.92a20.65 20.65 0 00-2.95-29.02zM130.32 22.61L129 21.55l-6.29 7.71 1.3 1.06a10.69 10.69 0 011.53 15L109 65.64a10.73 10.73 0 01-15 1.53l-1.3-1.06-6.29 7.7 1.31 1.07a20.69 20.69 0 0029-2.95l16.54-20.3a20.65 20.65 0 00-2.94-29.02z"/><path class="prefix__cls-1" d="M100.79 56.16L61 105a5 5 0 007-.72l33.5-41.12a5 5 0 00-.71-7z"/></svg>