<svg id="Calque_1" data-name="Calque 1" xmlns="http://www.w3.org/2000/svg" viewBox="0 0 160 160"><defs><style>.cls-1{fill:#393939;}.cls-2{fill:#dbdbdb;}</style></defs><path class="cls-1" d="M112.29,79.35A40.11,40.11,0,1,1,72.18,39.24,40.12,40.12,0,0,1,112.29,79.35Z"/><path class="cls-1" d="M60.22,118.28s43.55,24.49,87.28-10.34l-11.05-9.52s-26.53,25.48-59.32,18.44S60.22,118.28,60.22,118.28Z"/><path class="cls-2" d="M72.18,20.32A59.68,59.68,0,1,0,131.86,80,59.68,59.68,0,0,0,72.18,20.32Zm0,11.31A15.65,15.65,0,1,1,56.52,47.28,15.66,15.66,0,0,1,72.18,31.63Zm-46,37.72A15.66,15.66,0,1,1,41.85,85,15.66,15.66,0,0,1,26.2,69.35Zm27.12,51.19A15.65,15.65,0,1,1,69,104.88,15.66,15.66,0,0,1,53.32,120.54ZM65.49,79.35A6.69,6.69,0,1,1,72.18,86,6.69,6.69,0,0,1,65.49,79.35Zm25.34,41.19a15.65,15.65,0,1,1,15.65-15.66A15.66,15.66,0,0,1,90.83,120.54Zm11-35.55a15.65,15.65,0,1,1,15.65-15.64A15.64,15.64,0,0,1,101.87,85Z"/></svg>