<svg id="Calque_1" data-name="Calque 1" xmlns="http://www.w3.org/2000/svg" width="160" height="160" viewBox="0 0 160 160">
  <title>Plan de travail 23</title>
  <g>
    <path d="M80.05,12.5v135a67.5,67.5,0,0,0,0-135Z" fill="#3b88f5"/>
    <path d="M139.27,80c0-37.28-26.56-67.5-59.32-67.5a67.5,67.5,0,0,0,0,135C112.71,147.5,139.27,117.28,139.27,80Z" fill="#28abfa"/>
    <path d="M114.81,72.94,68.61,46.25A8.18,8.18,0,0,0,64,45.17v69.66a8.18,8.18,0,0,0,4.64-1.08l46.2-26.69a8.15,8.15,0,0,0,0-14.12Z" fill="#c4f3ff"/>
    <path d="M107.22,87.06a8.81,8.81,0,0,0,0-14.12L67,46.25A6.53,6.53,0,0,0,64,45.17a8.14,8.14,0,0,0-7.58,8.14v53.38a8.18,8.18,0,0,0,4.08,7.07A8.09,8.09,0,0,0,64,114.83a6.45,6.45,0,0,0,3-1.08Z" fill="#fff"/>
  </g>
</svg>
